# Blender 3.3.1
# www.blender.org
mtllib wall.mtl
o wall
v 5.258978 1.168334 0.321996
v 5.258978 1.168334 -0.321997
v -5.258978 1.168334 0.321997
v -5.258978 1.168334 -0.321999
v 5.258978 -1.168333 0.321996
v 5.258978 -1.168333 -0.321997
v -5.258978 -1.168334 0.321997
v -5.258978 -1.168334 -0.321999
vn -0.0000 1.0000 -0.0000
vn -1.0000 -0.0000 -0.0000
vn -0.0000 -1.0000 -0.0000
vn 1.0000 -0.0000 -0.0000
vn -0.0000 -0.0000 1.0000
vn -0.0000 -0.0000 -1.0000
vt 0.737570 0.986910
vt 0.273680 0.820380
vt 0.001950 0.937060
vt 0.678140 0.981510
vt 0.253810 0.876650
vt 0.485700 0.812820
vt 0.825770 0.016310
vt 0.494380 0.831420
vt 0.276450 0.001950
vt 0.766350 0.010910
vt 0.474520 0.887690
vt 0.684350 0.136130
vt 0.763840 0.007350
vt 0.477840 0.892460
vt 0.209690 0.998040
vt 0.704410 0.001950
vt 0.457970 0.948720
vt 0.287060 0.754500
vt 0.290220 0.759340
vt 0.675630 0.977940
vt 0.484200 0.062930
vt 0.270350 0.815610
vt 0.616210 0.972540
vt 0.485700 0.077820
s 0
usemtl defaultMat
f 1/1/1 2/4/1 4/10/1 3/7/1
f 3/8/2 4/11/2 8/22/2 7/19/2
f 7/20/3 8/23/3 6/16/3 5/13/3
f 5/14/4 6/17/4 2/5/4 1/2/4
f 3/9/5 7/21/5 5/15/5 1/3/5
f 8/24/6 4/12/6 2/6/6 6/18/6
