# Blender 3.3.1
# www.blender.org
mtllib trap6.mtl
o trap6
v -4.098267 -0.425508 0.551357
v -4.291611 -0.875383 0.225623
v -4.291611 -0.793237 0.351039
v -1.727856 -0.875383 0.225623
v -1.921200 -0.425508 0.551357
v -1.727856 -0.793237 0.351039
v -4.291611 -0.875383 -0.219289
v -4.184666 -0.501215 -0.589371
v -4.291611 -0.793237 -0.344704
v -1.834801 -0.501214 -0.589371
v -1.727856 -0.875383 -0.219289
v -1.727856 -0.793237 -0.344704
v -4.169270 1.120583 0.209518
v -4.098267 0.674742 0.551357
v -4.291611 1.042471 0.351039
v -1.921200 0.674742 0.551357
v -1.735493 1.131873 0.213329
v -1.727856 1.042471 0.351039
v -4.184666 0.750441 -0.589371
v -4.169270 1.120583 -0.203183
v -4.291611 1.042471 -0.344704
v -1.735493 1.131873 -0.206990
v -1.834801 0.750441 -0.589371
v -1.727856 1.042471 -0.344704
v -1.381234 -0.546014 0.152354
v -1.381234 -0.357927 0.257339
v -1.381234 -0.490922 0.236461
v -1.381234 -0.357927 -0.251004
v -1.381234 -0.546014 -0.146016
v -1.381234 -0.490922 -0.230122
v -1.381234 0.607154 0.257339
v -1.388871 0.802496 0.140056
v -1.381234 0.740157 0.236461
v -1.388871 0.802496 -0.133721
v -1.381234 0.607154 -0.251004
v -1.381234 0.740157 -0.230122
v -1.727856 1.124617 -0.219288
v -4.213841 1.120583 -0.215256
v -4.213841 1.120583 0.221591
v -1.727856 1.124617 0.225624
v -1.381234 0.795241 0.152355
v -1.381234 0.795241 -0.146016
v -1.740078 0.866484 -0.203183
v -1.740078 0.866484 0.209518
v -1.399739 0.543084 -0.131241
v -1.399739 0.543084 0.137576
v -4.205307 0.859360 -0.203183
v -4.205307 0.859360 0.209518
v -4.291611 -0.594926 0.382171
v -1.727856 -0.594926 0.382171
v -1.727856 0.844153 0.382171
v -4.291611 0.844153 0.382171
v -1.727856 -0.594926 -0.375836
v -4.291611 -0.594926 -0.375836
v -4.291611 0.844153 -0.375836
v -1.727856 0.844153 -0.375836
v 4.098266 -0.425508 0.551357
v 4.291610 -0.875382 0.225623
v 4.291610 -0.793237 0.351039
v 1.727855 -0.875383 0.225623
v 1.921199 -0.425508 0.551357
v 1.727855 -0.793237 0.351039
v 4.291610 -0.875382 -0.219289
v 4.184665 -0.501214 -0.589371
v 4.291610 -0.793237 -0.344704
v 1.834800 -0.501214 -0.589371
v 1.727855 -0.875383 -0.219289
v 1.727855 -0.793237 -0.344704
v 4.169269 1.120583 0.209518
v 4.098266 0.674743 0.551357
v 4.291610 1.042472 0.351039
v 1.921199 0.674743 0.551357
v 1.735492 1.131873 0.213329
v 1.727855 1.042472 0.351039
v 4.184665 0.750441 -0.589371
v 4.169269 1.120583 -0.203183
v 4.291610 1.042472 -0.344704
v 1.735492 1.131873 -0.206990
v 1.834800 0.750441 -0.589371
v 1.727855 1.042472 -0.344704
v 1.381233 -0.546014 0.152354
v 1.381233 -0.357927 0.257339
v 1.381233 -0.490922 0.236461
v 1.381233 -0.357927 -0.251004
v 1.381233 -0.546014 -0.146016
v 1.381233 -0.490922 -0.230122
v 1.381233 0.607154 0.257339
v 1.388874 0.802497 0.140056
v 1.381233 0.740157 0.236461
v 1.388874 0.802497 -0.133721
v 1.381233 0.607154 -0.251004
v 1.381233 0.740157 -0.230122
v 1.727855 1.124617 -0.219288
v 4.213840 1.120583 -0.215256
v 4.213840 1.120583 0.221591
v 1.727855 1.124617 0.225624
v 1.381233 0.795241 0.152355
v 1.381233 0.795241 -0.146016
v 1.740078 0.866484 -0.203183
v 1.740078 0.866484 0.209518
v 1.399738 0.543085 -0.131241
v 1.399738 0.543085 0.137576
v 4.205307 0.859360 -0.203183
v 4.205307 0.859360 0.209518
v 4.291610 -0.594926 0.382171
v 1.727855 -0.594926 0.382171
v 1.727855 0.844153 0.382171
v 4.291610 0.844153 0.382171
v 1.727855 -0.594926 -0.375836
v 4.291610 -0.594926 -0.375836
v 4.291610 0.844153 -0.375836
v 1.727855 0.844153 -0.375836
vn 0.6733 0.6185 0.4051
vn -0.0000 -0.0000 1.0000
vn -0.0000 -0.0000 -1.0000
vn -0.0000 -1.0000 -0.0000
vn -0.0000 -0.1551 0.9879
vn -0.0000 -0.8365 0.5479
vn -0.0000 -0.1551 -0.9879
vn -0.0000 -0.8365 -0.5479
vn -0.0011 0.8467 -0.5321
vn -0.0000 0.1551 -0.9879
vn -0.0000 0.1551 0.9879
vn -0.0011 0.8467 0.5321
vn -0.7087 0.7056 -0.0000
vn 0.3388 -0.0000 0.9408
vn 0.4193 -0.1408 -0.8969
vn 0.6733 -0.6185 -0.4051
vn 0.3388 -0.0000 -0.9408
vn 0.6888 -0.7249 -0.0000
vn 0.6733 -0.6185 0.4051
vn 0.4193 -0.1408 0.8969
vn 0.9906 -0.1367 -0.0000
vn 0.6733 0.6185 -0.4051
vn 0.4193 0.1408 0.8969
vn 0.4193 0.1408 -0.8969
vn -0.0034 0.9598 -0.2806
vn -0.0034 0.9598 0.2806
vn -0.0000 1.0000 -0.0000
vn 0.6888 0.7249 -0.0001
vn 0.6888 0.7249 0.0001
vn -0.0000 0.8613 0.5081
vn -0.0029 1.0000 -0.0000
vn 0.6888 0.7249 -0.0000
vn -0.1909 0.0174 -0.9814
vn 0.0008 0.0072 1.0000
vn -0.1909 0.0174 0.9814
vn 0.0008 0.0072 -1.0000
vn -0.0000 -0.7066 0.7076
vn -0.0000 0.7066 0.7076
vn -0.6585 -0.0000 0.7526
vn 0.6585 -0.0000 0.7526
vn -0.0000 -0.9157 -0.4019
vn -0.0000 0.9157 -0.4019
vn -0.8941 -0.0000 -0.4478
vn 0.8941 -0.0000 -0.4478
vn -0.0000 0.8612 -0.5082
vn -0.0000 0.0096 -1.0000
vn -0.0000 0.8366 -0.5479
vn -0.0000 0.8366 0.5479
vn -0.6733 0.6185 0.4051
vn 0.0011 0.8467 -0.5321
vn 0.0011 0.8467 0.5321
vn 0.7087 0.7056 -0.0000
vn -0.3388 -0.0000 0.9408
vn -0.4193 -0.1408 -0.8969
vn -0.6733 -0.6185 -0.4051
vn -0.3388 -0.0000 -0.9408
vn -0.6888 -0.7249 -0.0000
vn -0.6733 -0.6185 0.4051
vn -0.4193 -0.1408 0.8969
vn -0.9906 -0.1367 -0.0000
vn -0.6733 0.6185 -0.4051
vn -0.4193 0.1408 0.8969
vn -0.4193 0.1408 -0.8969
vn 0.0034 0.9598 -0.2806
vn 0.0034 0.9598 0.2806
vn -0.6888 0.7249 -0.0001
vn -0.6888 0.7249 0.0001
vn 0.0029 1.0000 -0.0000
vn -0.6888 0.7249 -0.0000
vn 0.1909 0.0174 -0.9814
vn -0.0008 0.0072 1.0000
vn 0.1909 0.0174 0.9814
vn -0.0008 0.0072 -1.0000
vn -0.0000 0.0096 1.0000
vn 1.0000 -0.0000 -0.0000
vn -1.0000 -0.0000 -0.0000
vt 0.644680 0.713460
vt 0.661240 0.746890
vt 0.659160 0.738680
vt 0.490000 0.751410
vt 0.500830 0.717820
vt 0.488840 0.743420
vt 0.674780 0.768920
vt 0.662850 0.805740
vt 0.674840 0.778980
vt 0.687090 0.766220
vt 0.502260 0.804250
vt 0.491360 0.775070
vt 0.491290 0.782610
vt 0.663520 0.608030
vt 0.654990 0.978830
vt 0.649680 0.644830
vt 0.667650 0.617710
vt 0.498920 0.649330
vt 0.483440 0.611140
vt 0.484040 0.969570
vt 0.483420 0.622290
vt 0.657140 0.888590
vt 0.698340 0.607830
vt 0.656750 0.926200
vt 0.666400 0.916250
vt 0.709550 0.619740
vt 0.489110 0.908260
vt 0.501030 0.876040
vt 0.489270 0.898770
vt 0.461250 0.751730
vt 0.460520 0.732120
vt 0.461140 0.743120
vt 0.462690 0.797380
vt 0.462310 0.777270
vt 0.462660 0.785960
vt 0.456910 0.659730
vt 0.455840 0.641980
vt 0.460500 0.947380
vt 0.456360 0.650000
vt 0.463690 0.893200
vt 0.463310 0.873260
vt 0.463460 0.883970
vt 0.488690 0.907360
vt 0.659890 0.925720
vt 0.699410 0.611100
vt 0.666600 0.608850
vt 0.483000 0.612180
vt 0.455490 0.643020
vt 0.463240 0.892040
vt 0.486450 0.922920
vt 0.484210 0.951000
vt 0.461510 0.910690
vt 0.460370 0.929520
vt 0.653190 0.940200
vt 0.651290 0.964430
vt 0.658850 0.727140
vt 0.486600 0.732710
vt 0.482750 0.635880
vt 0.666210 0.630570
vt 0.490010 0.792600
vt 0.674870 0.792360
vt 0.700540 0.749500
vt 0.668090 0.902940
vt 0.714260 0.636070
vt 0.488860 0.887230
vt 0.081950 0.732580
vt 0.068020 0.767030
vt 0.069280 0.758670
vt 0.239530 0.759950
vt 0.226370 0.727230
vt 0.240120 0.751920
vt 0.056720 0.790080
vt 0.071050 0.825970
vt 0.057310 0.800110
vt 0.044870 0.788260
vt 0.231000 0.813470
vt 0.239850 0.783620
vt 0.240440 0.791140
vt 0.056640 0.628890
vt 0.090690 0.998040
vt 0.073310 0.664570
vt 0.053650 0.638670
vt 0.223700 0.658710
vt 0.236530 0.619510
vt 0.260500 0.977010
vt 0.237300 0.630640
vt 0.082360 0.908190
vt 0.021040 0.630430
vt 0.085330 0.945650
vt 0.075020 0.936410
vt 0.009440 0.643720
vt 0.251260 0.916160
vt 0.237150 0.884880
vt 0.250450 0.906710
vt 0.268270 0.758350
vt 0.267650 0.738740
vt 0.267790 0.749760
vt 0.270000 0.804020
vt 0.268980 0.783920
vt 0.269240 0.792630
vt 0.266300 0.666240
vt 0.266150 0.648430
vt 0.282410 0.953250
vt 0.266180 0.656490
vt 0.275550 0.899320
vt 0.274600 0.879400
vt 0.275160 0.890100
vt 0.251620 0.915240
vt 0.082170 0.945390
vt 0.020130 0.633750
vt 0.053640 0.629920
vt 0.237030 0.620520
vt 0.266570 0.649440
vt 0.275930 0.898140
vt 0.254910 0.930630
vt 0.259050 0.958490
vt 0.278940 0.916870
vt 0.281350 0.935450
vt 0.089840 0.959370
vt 0.093390 0.983420
vt 0.068480 0.747140
vt 0.241620 0.741110
vt 0.238910 0.644160
vt 0.056060 0.651460
vt 0.242420 0.801020
vt 0.058170 0.813450
vt 0.031190 0.772440
vt 0.072420 0.923240
vt 0.005640 0.660040
vt 0.250060 0.895170
s 0
usemtl defaultMat
f 18/21/1 33/39/1 41/48/1 40/47/1
f 14/16/2 1/1/2 5/5/2 16/18/2
f 8/8/3 19/22/3 23/28/3 10/11/3
f 2/2/4 7/7/4 11/12/4 4/4/4
f 49/56/5 3/3/5 6/6/5 50/57/5
f 3/3/6 2/2/6 4/4/6 6/6/6
f 53/60/7 12/13/7 9/9/7 54/61/7
f 12/13/8 11/12/8 7/7/8 9/9/8
f 37/43/9 24/29/9 21/25/9 38/44/9
f 24/29/10 56/65/10 55/63/10 21/25/10
f 51/58/11 18/21/11 15/17/11 52/59/11
f 18/21/12 40/47/12 39/46/12 15/17/12
f 21/26/13 15/17/13 39/46/13 38/45/13
f 50/57/14 26/31/14 31/36/14 51/58/14
f 53/60/15 28/33/15 30/35/15 12/13/15
f 12/13/16 30/35/16 29/34/16 11/12/16
f 56/65/17 35/41/17 28/33/17 53/60/17
f 11/12/18 29/34/18 25/30/18 4/4/18
f 4/4/19 25/30/19 27/32/19 6/6/19
f 6/6/20 27/32/20 26/31/20 50/57/20
f 13/15/21 48/55/21 47/54/21 20/24/21
f 37/43/22 42/49/22 36/42/22 24/29/22
f 51/58/23 31/36/23 33/39/23 18/21/23
f 24/29/24 36/42/24 35/41/24 56/65/24
f 84/98/7 86/100/7 30/35/7 28/33/7
f 22/27/25 37/43/25 38/44/25 20/24/25
f 13/14/26 39/46/26 40/47/26 17/19/26
f 20/23/27 38/45/27 39/46/27 13/14/27
f 17/19/28 40/47/28 41/48/28 32/37/28
f 34/40/29 42/49/29 37/43/29 22/27/29
f 88/102/30 32/37/30 41/48/30 97/113/30
f 47/54/31 48/55/31 44/51/31 43/50/31
f 44/51/32 46/53/32 45/52/32 43/50/32
f 32/38/33 46/53/33 44/51/33 17/20/33
f 20/24/34 47/54/34 43/50/34 22/27/34
f 22/27/35 43/50/35 45/52/35 34/40/35
f 17/20/36 44/51/36 48/55/36 13/15/36
f 1/1/37 49/56/37 50/57/37 5/5/37
f 16/18/38 51/58/38 52/59/38 14/16/38
f 14/16/39 52/59/39 49/56/39 1/1/39
f 5/5/40 50/57/40 51/58/40 16/18/40
f 10/11/41 53/60/41 54/61/41 8/8/41
f 19/22/42 55/63/42 56/65/42 23/28/42
f 8/8/43 54/61/43 55/63/43 19/22/43
f 23/28/44 56/65/44 53/60/44 10/11/44
f 102/118/27 101/117/27 45/52/27 46/53/27
f 34/40/45 90/105/45 98/114/45 42/49/45
f 81/95/6 83/97/6 27/32/6 25/30/6
f 91/106/3 84/98/3 28/33/3 35/41/3
f 85/99/4 81/95/4 25/30/4 29/34/4
f 87/101/11 89/104/11 33/39/11 31/36/11
f 83/97/5 82/96/5 26/31/5 27/32/5
f 82/96/2 87/101/2 31/36/2 26/31/2
f 86/100/8 85/99/8 29/34/8 30/35/8
f 92/107/10 91/106/10 35/41/10 36/42/10
f 32/38/46 88/103/46 102/118/46 46/53/46
f 98/114/47 92/107/47 36/42/47 42/49/47
f 89/104/48 97/113/48 41/48/48 33/39/48
f 74/86/49 96/112/49 97/113/49 89/104/49
f 70/81/2 72/83/2 61/70/2 57/66/2
f 64/73/3 66/76/3 79/93/3 75/87/3
f 58/67/4 60/69/4 67/77/4 63/72/4
f 105/121/5 106/122/5 62/71/5 59/68/5
f 59/68/6 62/71/6 60/69/6 58/67/6
f 109/125/7 110/126/7 65/74/7 68/78/7
f 68/78/8 65/74/8 63/72/8 67/77/8
f 93/108/50 94/109/50 77/90/50 80/94/50
f 80/94/10 77/90/10 111/128/10 112/130/10
f 107/123/11 108/124/11 71/82/11 74/86/11
f 74/86/51 71/82/51 95/111/51 96/112/51
f 71/82/52 77/91/52 94/110/52 95/111/52
f 106/122/53 107/123/53 87/101/53 82/96/53
f 109/125/54 68/78/54 86/100/54 84/98/54
f 68/78/55 67/77/55 85/99/55 86/100/55
f 112/130/56 109/125/56 84/98/56 91/106/56
f 67/77/57 60/69/57 81/95/57 85/99/57
f 60/69/58 62/71/58 83/97/58 81/95/58
f 62/71/59 106/122/59 82/96/59 83/97/59
f 69/80/60 76/89/60 103/119/60 104/120/60
f 93/108/61 80/94/61 92/107/61 98/114/61
f 107/123/62 74/86/62 89/104/62 87/101/62
f 80/94/63 112/130/63 91/106/63 92/107/63
f 78/92/64 76/89/64 94/109/64 93/108/64
f 69/79/65 73/84/65 96/112/65 95/111/65
f 76/88/27 69/79/27 95/111/27 94/110/27
f 73/84/66 88/102/66 97/113/66 96/112/66
f 90/105/67 78/92/67 93/108/67 98/114/67
f 103/119/68 99/115/68 100/116/68 104/120/68
f 100/116/69 99/115/69 101/117/69 102/118/69
f 88/103/70 73/85/70 100/116/70 102/118/70
f 76/89/71 78/92/71 99/115/71 103/119/71
f 78/92/72 90/105/72 101/117/72 99/115/72
f 73/85/73 69/80/73 104/120/73 100/116/73
f 57/66/37 61/70/37 106/122/37 105/121/37
f 72/83/38 70/81/38 108/124/38 107/123/38
f 70/81/40 57/66/40 105/121/40 108/124/40
f 61/70/39 72/83/39 107/123/39 106/122/39
f 66/76/41 64/73/41 110/126/41 109/125/41
f 75/87/42 79/93/42 112/130/42 111/128/42
f 64/73/44 75/87/44 111/128/44 110/126/44
f 79/93/43 66/76/43 109/125/43 112/130/43
f 90/105/74 34/40/74 45/52/74 101/117/74
f 108/124/75 111/129/75 77/91/75 71/82/75
f 105/121/75 110/127/75 111/129/75 108/124/75
f 65/75/75 110/127/75 105/121/75 59/68/75
f 63/72/75 65/75/75 59/68/75 58/67/75
f 9/10/76 3/3/76 49/56/76 54/62/76
f 7/7/76 2/2/76 3/3/76 9/10/76
f 54/62/76 49/56/76 52/59/76 55/64/76
f 55/64/76 52/59/76 15/17/76 21/26/76
