# Blender 3.3.1
# www.blender.org
mtllib trap6.mtl
o trap6.001
v -4.152290 1.518249 -0.066704
v -4.152290 6.465302 -0.066703
v -4.152290 1.518249 0.066703
v -4.152290 6.465302 0.066704
v 4.152290 1.518249 -0.066704
v 4.152290 6.465302 -0.066703
v 4.152290 1.518249 0.066703
v 4.152290 6.465302 0.066704
vn -1.0000 -0.0000 -0.0000
vn -0.0000 -0.0000 1.0000
vn 1.0000 -0.0000 -0.0000
vn -0.0000 -0.0000 -1.0000
vn -0.0000 -1.0000 -0.0000
vn -0.0000 1.0000 -0.0000
vt 0.033970 0.011080
vt 0.374720 0.022580
vt 0.034150 0.001950
vt 0.720150 0.041050
vt 0.024830 0.011070
vt 0.374270 0.013450
vt 0.383840 0.023130
vt 0.011070 0.575570
vt 0.347480 0.594600
vt 0.697560 0.606290
vt 0.010370 0.584660
vt 0.001950 0.574990
vt 0.346050 0.603660
vt 0.356610 0.595120
s 0
usemtl defaultMat
f 1/1/1 3/3/1 4/6/1 2/2/1
f 3/4/2 7/10/2 8/14/2 4/7/2
f 7/11/3 5/8/3 6/9/3 8/13/3
f 5/8/4 1/1/4 2/2/4 6/9/4
f 3/5/5 1/1/5 5/8/5 7/12/5
f 8/14/6 6/9/6 2/2/6 4/7/6
