# Blender 3.3.1
# www.blender.org
mtllib floor_start.mtl
o floor_start.001
v -5.206526 0.056928 12.641197
v -5.206526 -0.056932 12.641197
v -5.206526 0.056932 -12.641197
v -5.206526 -0.056928 -12.641197
v 5.206530 0.056928 12.641197
v 5.206530 -0.056932 12.641197
v 5.206530 0.056932 -12.641197
v 5.206530 -0.056928 -12.641197
v -5.206526 -0.000002 12.641197
v -5.206526 0.056930 0.000000
v -5.206526 0.000002 -12.641197
v 0.000002 0.056928 12.641197
v 5.206530 -0.000002 12.641197
v 0.000002 0.056932 -12.641197
v 5.206530 0.000002 -12.641197
v 0.000002 -0.056932 12.641197
v 5.206530 -0.056930 -0.000000
v -5.206526 -0.056930 -0.000000
v 0.000002 -0.056928 -12.641197
v 5.206530 0.056930 0.000000
v 0.000002 -0.056930 -0.000000
v 0.000002 0.056930 0.000000
v 0.000002 -0.000002 12.641197
v 5.206530 0.000000 0.000000
v 0.000002 0.000002 -12.641197
v -5.206526 0.000000 0.000000
v -5.206526 -0.028467 12.641197
v -5.206526 0.056931 -6.320599
v -5.206526 -0.028463 -12.641197
v 2.603266 0.056928 12.641197
v 5.206530 -0.028467 12.641197
v 2.603266 0.056932 -12.641197
v 5.206530 -0.028463 -12.641197
v 2.603266 -0.056932 12.641197
v 5.206530 -0.056929 -6.320599
v -5.206526 -0.056929 -6.320599
v 2.603266 -0.056928 -12.641197
v 5.206530 0.056931 -6.320599
v -5.206526 0.028463 12.641197
v -5.206526 0.056929 6.320599
v -5.206526 0.028467 -12.641197
v -2.603262 0.056928 12.641197
v 5.206530 0.028463 12.641197
v -2.603262 0.056932 -12.641197
v 5.206530 0.028467 -12.641197
v -2.603262 -0.056932 12.641197
v 5.206530 -0.056931 6.320599
v -5.206526 -0.056931 6.320599
v -2.603262 -0.056928 -12.641197
v 5.206530 0.056929 6.320599
v -2.603262 -0.056930 -0.000000
v 2.603266 -0.056930 -0.000000
v 0.000002 -0.056929 -6.320599
v 0.000002 -0.056931 6.320599
v 2.603266 0.056930 0.000000
v -2.603262 0.056930 0.000000
v 0.000002 0.056931 -6.320599
v 0.000002 0.056929 6.320599
v 0.000002 -0.028467 12.641197
v 0.000002 0.028463 12.641197
v 2.603266 -0.000002 12.641197
v -2.603262 -0.000002 12.641197
v 5.206530 -0.028465 -0.000000
v 5.206530 0.028465 0.000000
v 5.206530 0.000001 -6.320599
v 5.206530 -0.000001 6.320599
v 0.000002 -0.028463 -12.641197
v 0.000002 0.028467 -12.641197
v -2.603262 0.000002 -12.641197
v 2.603266 0.000002 -12.641197
v -5.206526 -0.028465 -0.000000
v -5.206526 0.028465 0.000000
v -5.206526 -0.000001 6.320599
v -5.206526 0.000001 -6.320599
v -5.206526 0.028466 -6.320599
v -5.206526 0.028464 6.320599
v -5.206526 -0.028466 6.320599
v 2.603266 0.028467 -12.641197
v -2.603262 0.028467 -12.641197
v -2.603262 -0.028463 -12.641197
v 5.206530 0.028464 6.320599
v 5.206530 0.028466 -6.320599
v 5.206530 -0.028464 -6.320599
v -2.603262 0.028463 12.641197
v 2.603266 0.028463 12.641197
v 2.603266 -0.028467 12.641197
v -2.603262 0.056929 6.320599
v -2.603262 0.056931 -6.320599
v 2.603266 0.056931 -6.320599
v 2.603266 -0.056931 6.320599
v 2.603266 -0.056929 -6.320599
v -2.603262 -0.056929 -6.320599
v -2.603262 -0.056931 6.320599
v 2.603266 0.056929 6.320599
v -2.603262 -0.028467 12.641197
v 5.206530 -0.028466 6.320599
v 2.603266 -0.028463 -12.641197
v -5.206526 -0.028464 -6.320599
vn -1.0000 -0.0000 -0.0000
vn -0.0000 -0.0000 -1.0000
vn 1.0000 -0.0000 -0.0000
vn -0.0000 -0.0000 1.0000
vn -0.0000 1.0000 -0.0000
vn -0.0000 -1.0000 -0.0000
vt 0.931121 0.974479
vt 0.979906 0.413176
vt 0.846447 0.974479
vt 0.975608 0.413176
vt 0.020094 0.974479
vt 0.935419 0.974479
vt 0.931121 0.020094
vt 0.979906 0.453364
vt 0.846447 0.020094
vt 0.935419 0.020094
vt 0.975608 0.453364
vt 0.020094 0.020094
vt 0.453364 0.974479
vt 0.890933 0.974479
vt 0.979906 0.020094
vt 0.886635 0.974479
vt 0.975608 0.020094
vt 0.413176 0.974479
vt 0.979906 0.846447
vt 0.890933 0.020094
vt 0.453365 0.020094
vt 0.975608 0.846447
vt 0.886635 0.020094
vt 0.413176 0.020094
vt 0.933270 0.974479
vt 0.977757 0.413176
vt 0.931121 0.497286
vt 0.846447 0.497286
vt 0.977757 0.453364
vt 0.933270 0.020094
vt 0.979906 0.216635
vt 0.649906 0.974479
vt 0.977757 0.020094
vt 0.888784 0.974479
vt 0.979906 0.649906
vt 0.649906 0.020094
vt 0.888784 0.020094
vt 0.977757 0.846447
vt 0.216635 0.974479
vt 0.975608 0.216635
vt 0.413176 0.497286
vt 0.886635 0.497286
vt 0.020094 0.497286
vt 0.935419 0.497286
vt 0.216635 0.020094
vt 0.975608 0.649906
vt 0.890933 0.497286
vt 0.453365 0.497286
vt 0.216635 0.497286
vt 0.649906 0.497286
vt 0.977757 0.216635
vt 0.888784 0.497286
vt 0.977757 0.649906
vt 0.933270 0.497286
vt 0.934345 0.974479
vt 0.976682 0.413176
vt 0.931121 0.258690
vt 0.846447 0.258690
vt 0.976682 0.453364
vt 0.934345 0.020094
vt 0.979906 0.118365
vt 0.551635 0.974479
vt 0.976682 0.020094
vt 0.887709 0.974479
vt 0.979906 0.748176
vt 0.551635 0.020094
vt 0.887709 0.020094
vt 0.976682 0.846447
vt 0.975608 0.118365
vt 0.314906 0.974479
vt 0.886635 0.258690
vt 0.413176 0.258690
vt 0.020094 0.258690
vt 0.935419 0.258690
vt 0.314906 0.020094
vt 0.975608 0.748176
vt 0.890933 0.258690
vt 0.453365 0.258690
vt 0.932196 0.974479
vt 0.978831 0.413176
vt 0.931121 0.735883
vt 0.846447 0.735883
vt 0.932196 0.020094
vt 0.978831 0.453364
vt 0.979906 0.314906
vt 0.748176 0.974479
vt 0.889858 0.974479
vt 0.978831 0.020094
vt 0.979906 0.551635
vt 0.748176 0.020094
vt 0.978831 0.846447
vt 0.889858 0.020094
vt 0.118365 0.974479
vt 0.975608 0.314906
vt 0.413176 0.735883
vt 0.886635 0.735883
vt 0.935419 0.735883
vt 0.020094 0.735882
vt 0.975608 0.551635
vt 0.118365 0.020094
vt 0.890933 0.735883
vt 0.453364 0.735882
vt 0.118365 0.497286
vt 0.314906 0.497286
vt 0.216635 0.258690
vt 0.216635 0.735883
vt 0.551635 0.497286
vt 0.748176 0.497286
vt 0.649906 0.258690
vt 0.649906 0.735883
vt 0.976682 0.216635
vt 0.978831 0.216635
vt 0.977757 0.118365
vt 0.977757 0.314906
vt 0.887709 0.497286
vt 0.889858 0.497286
vt 0.888784 0.258690
vt 0.888784 0.735883
vt 0.976682 0.649906
vt 0.978831 0.649906
vt 0.977757 0.551635
vt 0.977757 0.748176
vt 0.934345 0.497286
vt 0.932196 0.497286
vt 0.933270 0.735883
vt 0.933270 0.258690
vt 0.932196 0.258690
vt 0.932196 0.735883
vt 0.934345 0.735883
vt 0.978831 0.748176
vt 0.978831 0.551635
vt 0.976682 0.551635
vt 0.889858 0.735883
vt 0.889858 0.258690
vt 0.887709 0.258690
vt 0.978831 0.314906
vt 0.978831 0.118365
vt 0.976682 0.118365
vt 0.748176 0.735883
vt 0.748176 0.258690
vt 0.551635 0.258690
vt 0.314906 0.735883
vt 0.314906 0.258690
vt 0.118365 0.258690
vt 0.118365 0.735883
vt 0.551635 0.735883
vt 0.976682 0.314906
vt 0.887709 0.735883
vt 0.976682 0.748176
vt 0.934345 0.258690
s 0
f 98/150/1 29/60/1 4/10/1 36/74/1
f 97/149/2 33/68/2 8/22/2 37/76/2
f 96/148/3 31/64/3 6/16/3 47/96/3
f 95/147/4 27/56/4 2/4/4 46/94/4
f 94/146/5 30/62/5 5/13/5 50/102/5
f 93/145/6 46/93/6 2/5/6 48/98/6
f 92/144/6 51/103/6 18/43/6 36/73/6
f 91/143/6 52/104/6 21/49/6 53/105/6
f 90/142/6 34/70/6 16/39/6 54/106/6
f 89/141/5 55/107/5 20/48/5 38/78/5
f 88/140/5 56/108/5 22/50/5 57/109/5
f 87/139/5 42/86/5 12/32/5 58/110/5
f 86/138/4 59/111/4 16/40/4 34/69/4
f 85/137/4 60/112/4 23/51/4 61/113/4
f 84/136/4 39/80/4 9/26/4 62/114/4
f 83/135/3 63/115/3 17/42/3 35/71/3
f 82/134/3 64/116/3 24/52/3 65/117/3
f 81/133/3 43/87/3 13/34/3 66/118/3
f 80/132/2 67/119/2 19/46/2 49/99/2
f 79/131/2 68/120/2 25/53/2 69/121/2
f 78/130/2 45/91/2 15/38/2 70/122/2
f 77/129/1 71/123/1 18/44/1 48/97/1
f 76/128/1 72/124/1 26/54/1 73/125/1
f 75/127/1 41/83/1 11/30/1 74/126/1
f 72/124/1 75/127/1 74/126/1 26/54/1
f 10/27/1 28/57/1 75/127/1 72/124/1
f 28/57/1 3/7/1 41/83/1 75/127/1
f 39/79/1 76/128/1 73/125/1 9/25/1
f 1/1/1 40/81/1 76/128/1 39/79/1
f 40/81/1 10/27/1 72/124/1 76/128/1
f 27/55/1 77/129/1 48/97/1 2/6/1
f 9/25/1 73/125/1 77/129/1 27/55/1
f 73/125/1 26/54/1 71/123/1 77/129/1
f 68/120/2 78/130/2 70/122/2 25/53/2
f 14/35/2 32/65/2 78/130/2 68/120/2
f 32/65/2 7/19/2 45/91/2 78/130/2
f 41/84/2 79/131/2 69/121/2 11/29/2
f 3/8/2 44/89/2 79/131/2 41/84/2
f 44/89/2 14/35/2 68/120/2 79/131/2
f 29/59/2 80/132/2 49/99/2 4/11/2
f 11/29/2 69/121/2 80/132/2 29/59/2
f 69/121/2 25/53/2 67/119/2 80/132/2
f 64/116/3 81/133/3 66/118/3 24/52/3
f 20/47/3 50/101/3 81/133/3 64/116/3
f 50/101/3 5/14/3 43/87/3 81/133/3
f 45/92/3 82/134/3 65/117/3 15/37/3
f 7/20/3 38/77/3 82/134/3 45/92/3
f 38/77/3 20/47/3 64/116/3 82/134/3
f 33/67/3 83/135/3 35/71/3 8/23/3
f 15/37/3 65/117/3 83/135/3 33/67/3
f 65/117/3 24/52/3 63/115/3 83/135/3
f 60/112/4 84/136/4 62/114/4 23/51/4
f 12/31/4 42/85/4 84/136/4 60/112/4
f 42/85/4 1/2/4 39/80/4 84/136/4
f 43/88/4 85/137/4 61/113/4 13/33/4
f 5/15/4 30/61/4 85/137/4 43/88/4
f 30/61/4 12/31/4 60/112/4 85/137/4
f 31/63/4 86/138/4 34/69/4 6/17/4
f 13/33/4 61/113/4 86/138/4 31/63/4
f 61/113/4 23/51/4 59/111/4 86/138/4
f 56/108/5 87/139/5 58/110/5 22/50/5
f 10/28/5 40/82/5 87/139/5 56/108/5
f 40/82/5 1/3/5 42/86/5 87/139/5
f 44/90/5 88/140/5 57/109/5 14/36/5
f 3/9/5 28/58/5 88/140/5 44/90/5
f 28/58/5 10/28/5 56/108/5 88/140/5
f 32/66/5 89/141/5 38/78/5 7/21/5
f 14/36/5 57/109/5 89/141/5 32/66/5
f 57/109/5 22/50/5 55/107/5 89/141/5
f 52/104/6 90/142/6 54/106/6 21/49/6
f 17/41/6 47/95/6 90/142/6 52/104/6
f 47/95/6 6/18/6 34/70/6 90/142/6
f 37/75/6 91/143/6 53/105/6 19/45/6
f 8/24/6 35/72/6 91/143/6 37/75/6
f 35/72/6 17/41/6 52/104/6 91/143/6
f 49/100/6 92/144/6 36/73/6 4/12/6
f 19/45/6 53/105/6 92/144/6 49/100/6
f 53/105/6 21/49/6 51/103/6 92/144/6
f 51/103/6 93/145/6 48/98/6 18/43/6
f 21/49/6 54/106/6 93/145/6 51/103/6
f 54/106/6 16/39/6 46/93/6 93/145/6
f 55/107/5 94/146/5 50/102/5 20/48/5
f 22/50/5 58/110/5 94/146/5 55/107/5
f 58/110/5 12/32/5 30/62/5 94/146/5
f 59/111/4 95/147/4 46/94/4 16/40/4
f 23/51/4 62/114/4 95/147/4 59/111/4
f 62/114/4 9/26/4 27/56/4 95/147/4
f 63/115/3 96/148/3 47/96/3 17/42/3
f 24/52/3 66/118/3 96/148/3 63/115/3
f 66/118/3 13/34/3 31/64/3 96/148/3
f 67/119/2 97/149/2 37/76/2 19/46/2
f 25/53/2 70/122/2 97/149/2 67/119/2
f 70/122/2 15/38/2 33/68/2 97/149/2
f 71/123/1 98/150/1 36/74/1 18/44/1
f 26/54/1 74/126/1 98/150/1 71/123/1
f 74/126/1 11/30/1 29/60/1 98/150/1
