# Blender 3.3.1
# www.blender.org
mtllib button.mtl
o button
v -0.653324 0.951004 1.595422
v -0.653324 0.714340 1.595422
v -0.653324 0.951004 1.598173
v -0.653324 0.714340 1.598173
v -0.753111 0.951004 1.595422
v -0.753111 0.714340 1.595422
v -0.753111 0.951004 1.598173
v -0.753111 0.714340 1.598173
v -0.703524 0.886517 1.596337
v -0.703524 0.900725 1.590603
v -0.708961 0.887599 1.596337
v -0.713570 0.890679 1.596337
v -0.716650 0.895288 1.596337
v -0.717731 0.900725 1.596337
v -0.716650 0.906162 1.596337
v -0.713570 0.910771 1.596337
v -0.708961 0.913851 1.596337
v -0.703524 0.914933 1.596337
v -0.698086 0.913851 1.596337
v -0.693477 0.910771 1.596337
v -0.690397 0.906162 1.596337
v -0.689316 0.900725 1.596337
v -0.690397 0.895288 1.596337
v -0.693477 0.890679 1.596337
v -0.698086 0.887599 1.596337
v -0.708961 0.887599 1.594068
v -0.703524 0.886517 1.594068
v -0.713570 0.890679 1.594068
v -0.716650 0.895288 1.594068
v -0.717731 0.900725 1.594068
v -0.716650 0.906162 1.594068
v -0.713570 0.910771 1.594068
v -0.708961 0.913851 1.594068
v -0.703524 0.914933 1.594068
v -0.698086 0.913851 1.594068
v -0.693477 0.910771 1.594068
v -0.690397 0.906162 1.594068
v -0.689316 0.900725 1.594068
v -0.690397 0.895288 1.594068
v -0.693477 0.890679 1.594068
v -0.698086 0.887599 1.594068
v -0.707551 0.891002 1.592223
v -0.703524 0.890201 1.592223
v -0.710965 0.893283 1.592223
v -0.713246 0.896698 1.592223
v -0.714048 0.900725 1.592223
v -0.713246 0.904752 1.592223
v -0.710965 0.908167 1.592223
v -0.707551 0.910448 1.592223
v -0.703524 0.911249 1.592223
v -0.699496 0.910448 1.592223
v -0.696082 0.908167 1.592223
v -0.693800 0.904752 1.592223
v -0.692999 0.900725 1.592223
v -0.693800 0.896698 1.592223
v -0.696082 0.893283 1.592223
v -0.699496 0.891002 1.592223
v -0.705968 0.894823 1.591071
v -0.703524 0.894337 1.591071
v -0.708040 0.896208 1.591071
v -0.709424 0.898280 1.591071
v -0.709911 0.900725 1.591071
v -0.709424 0.903170 1.591071
v -0.708040 0.905242 1.591071
v -0.705968 0.906627 1.591071
v -0.703524 0.907113 1.591071
v -0.701079 0.906627 1.591071
v -0.699005 0.905242 1.591071
v -0.697621 0.903170 1.591071
v -0.697135 0.900725 1.591071
v -0.697621 0.898280 1.591071
v -0.699005 0.896208 1.591071
v -0.701079 0.894823 1.591071
v -0.703524 0.818732 1.596337
v -0.703524 0.832940 1.590603
v -0.708961 0.819814 1.596337
v -0.713570 0.822893 1.596337
v -0.716650 0.827503 1.596337
v -0.717731 0.832940 1.596337
v -0.716650 0.838377 1.596337
v -0.713570 0.842986 1.596337
v -0.708961 0.846066 1.596337
v -0.703524 0.847147 1.596337
v -0.698086 0.846066 1.596337
v -0.693477 0.842986 1.596337
v -0.690397 0.838377 1.596337
v -0.689316 0.832940 1.596337
v -0.690397 0.827503 1.596337
v -0.693477 0.822893 1.596337
v -0.698086 0.819814 1.596337
v -0.708961 0.819814 1.594068
v -0.703524 0.818732 1.594068
v -0.713570 0.822893 1.594068
v -0.716650 0.827503 1.594068
v -0.717731 0.832940 1.594068
v -0.716650 0.838377 1.594068
v -0.713570 0.842986 1.594068
v -0.708961 0.846066 1.594068
v -0.703524 0.847147 1.594068
v -0.698086 0.846066 1.594068
v -0.693477 0.842986 1.594068
v -0.690397 0.838377 1.594068
v -0.689316 0.832940 1.594068
v -0.690397 0.827503 1.594068
v -0.693477 0.822893 1.594068
v -0.698086 0.819814 1.594068
v -0.707551 0.823217 1.592223
v -0.703524 0.822416 1.592223
v -0.710965 0.825498 1.592223
v -0.713246 0.828912 1.592223
v -0.714048 0.832940 1.592223
v -0.713246 0.836967 1.592223
v -0.710965 0.840381 1.592223
v -0.707551 0.842663 1.592223
v -0.703524 0.843464 1.592223
v -0.699496 0.842663 1.592223
v -0.696082 0.840381 1.592223
v -0.693800 0.836967 1.592223
v -0.692999 0.832940 1.592223
v -0.693800 0.828912 1.592223
v -0.696082 0.825498 1.592223
v -0.699496 0.823217 1.592223
v -0.705968 0.827038 1.591071
v -0.703524 0.826552 1.591071
v -0.708040 0.828423 1.591071
v -0.709424 0.830495 1.591071
v -0.709911 0.832940 1.591071
v -0.709424 0.835384 1.591071
v -0.708040 0.837457 1.591071
v -0.705968 0.838841 1.591071
v -0.703524 0.839328 1.591071
v -0.701079 0.838841 1.591071
v -0.699005 0.837457 1.591071
v -0.697621 0.835384 1.591071
v -0.697135 0.832940 1.591071
v -0.697621 0.830495 1.591071
v -0.699005 0.828423 1.591071
v -0.701079 0.827038 1.591071
v -0.703524 0.750946 1.596337
v -0.703524 0.765154 1.590603
v -0.708961 0.752028 1.596337
v -0.713570 0.755108 1.596337
v -0.716650 0.759717 1.596337
v -0.717731 0.765154 1.596337
v -0.716650 0.770591 1.596337
v -0.713570 0.775201 1.596337
v -0.708961 0.778280 1.596337
v -0.703524 0.779362 1.596337
v -0.698086 0.778280 1.596337
v -0.693477 0.775201 1.596337
v -0.690397 0.770591 1.596337
v -0.689316 0.765154 1.596337
v -0.690397 0.759717 1.596337
v -0.693477 0.755108 1.596337
v -0.698086 0.752028 1.596337
v -0.708961 0.752028 1.594068
v -0.703524 0.750946 1.594068
v -0.713570 0.755108 1.594068
v -0.716650 0.759717 1.594068
v -0.717731 0.765154 1.594068
v -0.716650 0.770591 1.594068
v -0.713570 0.775201 1.594068
v -0.708961 0.778280 1.594068
v -0.703524 0.779362 1.594068
v -0.698086 0.778280 1.594068
v -0.693477 0.775201 1.594068
v -0.690397 0.770591 1.594068
v -0.689316 0.765154 1.594068
v -0.690397 0.759717 1.594068
v -0.693477 0.755108 1.594068
v -0.698086 0.752028 1.594068
v -0.707551 0.755431 1.592223
v -0.703524 0.754630 1.592223
v -0.710965 0.757713 1.592223
v -0.713246 0.761127 1.592223
v -0.714048 0.765154 1.592223
v -0.713246 0.769182 1.592223
v -0.710965 0.772596 1.592223
v -0.707551 0.774877 1.592223
v -0.703524 0.775678 1.592223
v -0.699496 0.774877 1.592223
v -0.696082 0.772596 1.592223
v -0.693800 0.769182 1.592223
v -0.692999 0.765154 1.592223
v -0.693800 0.761127 1.592223
v -0.696082 0.757713 1.592223
v -0.699496 0.755431 1.592223
v -0.705968 0.759252 1.591071
v -0.703524 0.758766 1.591071
v -0.708040 0.760637 1.591071
v -0.709424 0.762710 1.591071
v -0.709911 0.765154 1.591071
v -0.709424 0.767599 1.591071
v -0.708040 0.769671 1.591071
v -0.705968 0.771056 1.591071
v -0.703524 0.771542 1.591071
v -0.701079 0.771056 1.591071
v -0.699005 0.769671 1.591071
v -0.697621 0.767599 1.591071
v -0.697135 0.765154 1.591071
v -0.697621 0.762710 1.591071
v -0.699005 0.760637 1.591071
v -0.701079 0.759252 1.591071
vn 1.0000 -0.0000 -0.0000
vn -0.0000 -0.0000 1.0000
vn -1.0000 -0.0000 -0.0000
vn -0.0000 -0.0000 -1.0000
vn -0.0000 1.0000 -0.0000
vn -0.0000 -1.0000 -0.0000
vn -0.1952 -0.9808 -0.0000
vn -0.5556 -0.8314 -0.0000
vn -0.8314 -0.5556 -0.0000
vn -0.9808 -0.1950 -0.0000
vn -0.9808 0.1950 -0.0000
vn -0.8314 0.5556 -0.0000
vn -0.5556 0.8314 -0.0000
vn -0.1952 0.9808 -0.0000
vn 0.1951 0.9808 -0.0000
vn 0.5556 0.8314 -0.0000
vn 0.8314 0.5556 -0.0000
vn 0.9808 0.1950 -0.0000
vn 0.9808 -0.1950 -0.0000
vn 0.8314 -0.5556 -0.0000
vn 0.5556 -0.8314 -0.0000
vn 0.1951 -0.9808 -0.0000
vn -0.0888 -0.4461 -0.8906
vn -0.2527 -0.3782 -0.8905
vn -0.3782 -0.2527 -0.8906
vn -0.4461 -0.0888 -0.8906
vn -0.4457 0.0886 -0.8908
vn -0.3782 0.2527 -0.8906
vn -0.2527 0.3783 -0.8905
vn -0.0888 0.4461 -0.8906
vn 0.0887 0.4461 -0.8906
vn 0.2527 0.3782 -0.8905
vn 0.3782 0.2527 -0.8906
vn 0.4461 0.0887 -0.8906
vn 0.4457 -0.0887 -0.8908
vn 0.3782 -0.2527 -0.8906
vn 0.2527 -0.3783 -0.8905
vn 0.0888 -0.4457 -0.8908
vn -0.0530 -0.2678 -0.9620
vn -0.1518 -0.2271 -0.9620
vn -0.2272 -0.1518 -0.9620
vn -0.2679 -0.0534 -0.9620
vn -0.2679 0.0533 -0.9620
vn -0.2272 0.1517 -0.9620
vn -0.1518 0.2272 -0.9620
vn -0.0533 0.2680 -0.9620
vn 0.0533 0.2680 -0.9620
vn 0.1518 0.2271 -0.9620
vn 0.2272 0.1518 -0.9619
vn 0.2680 0.0533 -0.9620
vn 0.2680 -0.0533 -0.9620
vn 0.2272 -0.1517 -0.9620
vn 0.1518 -0.2272 -0.9620
vn 0.0533 -0.2680 -0.9620
vn -0.0145 -0.0730 -0.9972
vn -0.0414 -0.0619 -0.9972
vn -0.0619 -0.0413 -0.9972
vn -0.0730 -0.0145 -0.9972
vn -0.0730 0.0145 -0.9972
vn -0.0619 0.0413 -0.9972
vn -0.0414 0.0619 -0.9972
vn -0.0148 0.0732 -0.9972
vn 0.0145 0.0730 -0.9972
vn 0.0410 0.0620 -0.9972
vn 0.0619 0.0413 -0.9972
vn 0.0730 0.0145 -0.9972
vn 0.0730 -0.0145 -0.9972
vn 0.0619 -0.0413 -0.9972
vn 0.0414 -0.0619 -0.9972
vn 0.0145 -0.0730 -0.9972
vn -0.5555 -0.8315 -0.0000
vn -0.8315 -0.5555 -0.0000
vn -0.1950 0.9808 -0.0000
vn 0.1950 0.9808 -0.0000
vn 0.8315 -0.5555 -0.0000
vn 0.5555 -0.8315 -0.0000
vn 0.1952 -0.9808 -0.0000
vn -0.0888 -0.4457 -0.8908
vn -0.2527 -0.3782 -0.8906
vn -0.3782 -0.2526 -0.8906
vn -0.4459 -0.0886 -0.8907
vn -0.2527 0.3782 -0.8906
vn -0.0887 0.4459 -0.8907
vn 0.0887 0.4462 -0.8905
vn 0.2527 0.3782 -0.8906
vn 0.3781 0.2522 -0.8907
vn 0.2527 -0.3782 -0.8906
vn -0.2679 0.0534 -0.9620
vn -0.0533 0.2679 -0.9620
vn 0.0533 0.2679 -0.9620
vn 0.2269 0.1518 -0.9620
vn 0.2676 -0.0533 -0.9620
vn -0.0148 -0.0732 -0.9972
vn -0.0410 0.0620 -0.9972
vn -0.0149 0.0732 -0.9972
vn 0.0413 0.0619 -0.9972
vn -0.8315 0.5555 -0.0000
vn -0.5555 0.8315 -0.0000
vn 0.1952 0.9808 -0.0000
vn 0.5555 0.8315 -0.0000
vn 0.8315 0.5555 -0.0000
vn -0.0888 -0.4458 -0.8907
vn -0.4461 0.0888 -0.8906
vn 0.0887 -0.4461 -0.8906
vn -0.0533 -0.2679 -0.9620
vn -0.2269 -0.1518 -0.9620
vn 0.2272 0.1518 -0.9620
vn 0.2675 -0.0533 -0.9621
vn -0.0145 0.0730 -0.9972
vn 0.0411 0.0620 -0.9972
vt 0.977220 0.134290
vt 0.701700 0.002290
vt 0.991110 0.870210
vt 0.962330 0.958550
vt 0.960830 0.785490
vt 0.992940 0.870370
vt 0.986810 0.134460
vt 0.591300 0.785150
vt 0.988140 0.870090
vt 0.971930 0.958720
vt 0.332170 0.001950
vt 0.995920 0.870500
vt 0.973560 0.960750
vt 0.371480 0.111550
vt 0.988140 0.940800
vt 0.988440 0.136490
vt 0.630610 0.894750
vt 0.989970 0.940960
vt 0.261080 0.894410
vt 0.983150 0.960920
vt 0.985160 0.940680
vt 0.001950 0.111210
vt 0.998040 0.136670
vt 0.992940 0.941090
vt 0.701450 0.959370
vt 0.346590 0.923440
vt 0.682480 0.965150
vt 0.950590 0.814020
vt 0.932680 0.819600
vt 0.916020 0.828370
vt 0.899560 0.838290
vt 0.883190 0.848420
vt 0.866800 0.858600
vt 0.850410 0.868800
vt 0.834020 0.879000
vt 0.817640 0.889200
vt 0.801260 0.899390
vt 0.784880 0.909600
vt 0.768480 0.919790
vt 0.752090 0.929980
vt 0.735640 0.940140
vt 0.719000 0.950190
vt 0.680470 0.957650
vt 0.948590 0.806520
vt 0.327000 0.876130
vt 0.698390 0.952070
vt 0.310390 0.887230
vt 0.929610 0.812300
vt 0.346590 0.872240
vt 0.912060 0.821480
vt 0.366190 0.876140
vt 0.895430 0.831520
vt 0.382800 0.887240
vt 0.879010 0.841680
vt 0.393900 0.903850
vt 0.862630 0.851870
vt 0.397790 0.923450
vt 0.846230 0.862070
vt 0.393890 0.943040
vt 0.829840 0.872280
vt 0.382790 0.959650
vt 0.813460 0.882470
vt 0.366180 0.970750
vt 0.797080 0.892670
vt 0.346580 0.974650
vt 0.780700 0.902870
vt 0.326990 0.970750
vt 0.764310 0.913060
vt 0.310380 0.959640
vt 0.747930 0.923240
vt 0.299280 0.943030
vt 0.731500 0.933390
vt 0.295380 0.923440
vt 0.715040 0.943300
vt 0.299280 0.903840
vt 0.332510 0.889340
vt 0.320530 0.897330
vt 0.346630 0.886550
vt 0.360740 0.889370
vt 0.372700 0.897380
vt 0.380690 0.909360
vt 0.383480 0.923480
vt 0.380660 0.937590
vt 0.372650 0.949550
vt 0.360670 0.957540
vt 0.346550 0.960330
vt 0.332440 0.957510
vt 0.320480 0.949500
vt 0.312490 0.937520
vt 0.309700 0.923400
vt 0.312520 0.909290
vt 0.338180 0.903040
vt 0.331010 0.907810
vt 0.346630 0.901370
vt 0.355070 0.903070
vt 0.362220 0.907870
vt 0.366990 0.915030
vt 0.368660 0.923480
vt 0.366960 0.931920
vt 0.362170 0.939070
vt 0.355000 0.943840
vt 0.346550 0.945510
vt 0.338110 0.943810
vt 0.330960 0.939020
vt 0.326190 0.931850
vt 0.324520 0.923400
vt 0.326220 0.914960
vt 0.706520 0.971450
vt 0.552840 0.855470
vt 0.687550 0.977230
vt 0.955670 0.826100
vt 0.937750 0.831680
vt 0.921090 0.840450
vt 0.904630 0.850370
vt 0.888260 0.860500
vt 0.871880 0.870680
vt 0.855480 0.880880
vt 0.839090 0.891080
vt 0.822720 0.901280
vt 0.806330 0.911470
vt 0.789950 0.921680
vt 0.773550 0.931870
vt 0.757160 0.942060
vt 0.740710 0.952220
vt 0.724080 0.962270
vt 0.685540 0.969730
vt 0.953660 0.818600
vt 0.572440 0.808160
vt 0.703460 0.964150
vt 0.552840 0.804260
vt 0.934690 0.824380
vt 0.589050 0.819260
vt 0.917130 0.833550
vt 0.600150 0.835870
vt 0.900500 0.843600
vt 0.604040 0.855470
vt 0.884090 0.853760
vt 0.600140 0.875070
vt 0.867700 0.863950
vt 0.589040 0.891680
vt 0.851310 0.874150
vt 0.572430 0.902780
vt 0.834920 0.884360
vt 0.552830 0.906670
vt 0.818530 0.894550
vt 0.533240 0.902770
vt 0.802150 0.904740
vt 0.516620 0.891670
vt 0.785780 0.914950
vt 0.505530 0.875060
vt 0.769380 0.925140
vt 0.501630 0.855460
vt 0.753000 0.935320
vt 0.505530 0.835860
vt 0.736570 0.945470
vt 0.516630 0.819250
vt 0.720120 0.955380
vt 0.533250 0.808160
vt 0.566990 0.821400
vt 0.552870 0.818570
vt 0.578950 0.829410
vt 0.586930 0.841380
vt 0.589730 0.855500
vt 0.586900 0.869620
vt 0.578890 0.881580
vt 0.566920 0.889560
vt 0.552800 0.892360
vt 0.538680 0.889530
vt 0.526720 0.881520
vt 0.518740 0.869550
vt 0.515940 0.855430
vt 0.518770 0.841310
vt 0.526780 0.829350
vt 0.538750 0.821370
vt 0.561320 0.835090
vt 0.552870 0.833400
vt 0.568470 0.839890
vt 0.573240 0.847060
vt 0.574900 0.855500
vt 0.573210 0.863950
vt 0.568410 0.871100
vt 0.561240 0.875870
vt 0.552800 0.877530
vt 0.544360 0.875840
vt 0.537210 0.871040
vt 0.532430 0.863870
vt 0.530770 0.855430
vt 0.532460 0.846990
vt 0.537260 0.839830
vt 0.544430 0.835060
vt 0.691500 0.950330
vt 0.449720 0.889560
vt 0.672520 0.956110
vt 0.940630 0.804980
vt 0.922720 0.810560
vt 0.906060 0.819330
vt 0.889600 0.829250
vt 0.873220 0.839380
vt 0.856840 0.849560
vt 0.840450 0.859760
vt 0.824060 0.869960
vt 0.807690 0.880160
vt 0.791300 0.890350
vt 0.774930 0.900560
vt 0.758530 0.910750
vt 0.742140 0.920940
vt 0.725680 0.931100
vt 0.709050 0.941150
vt 0.670520 0.948610
vt 0.938630 0.797480
vt 0.497020 0.909160
vt 0.688430 0.943030
vt 0.500920 0.889560
vt 0.919650 0.803260
vt 0.485920 0.925770
vt 0.902100 0.812440
vt 0.469310 0.936870
vt 0.885470 0.822480
vt 0.449710 0.940760
vt 0.869050 0.832640
vt 0.430120 0.936860
vt 0.852670 0.842830
vt 0.413510 0.925760
vt 0.836270 0.853030
vt 0.402410 0.909150
vt 0.819880 0.863240
vt 0.398510 0.889550
vt 0.803500 0.873430
vt 0.402410 0.869960
vt 0.787120 0.883630
vt 0.413510 0.853340
vt 0.770750 0.893830
vt 0.430130 0.842250
vt 0.754350 0.904020
vt 0.449720 0.838350
vt 0.737970 0.914200
vt 0.469320 0.842250
vt 0.721550 0.924350
vt 0.485930 0.853350
vt 0.705090 0.934260
vt 0.497030 0.869970
vt 0.483790 0.903710
vt 0.486610 0.889590
vt 0.475780 0.915670
vt 0.463800 0.923650
vt 0.449680 0.926450
vt 0.435570 0.923620
vt 0.423610 0.915620
vt 0.415620 0.903640
vt 0.412830 0.889520
vt 0.415650 0.875400
vt 0.423660 0.863440
vt 0.435630 0.855460
vt 0.449760 0.852670
vt 0.463870 0.855490
vt 0.475830 0.863500
vt 0.483820 0.875470
vt 0.470090 0.898040
vt 0.471780 0.889590
vt 0.465290 0.905190
vt 0.458130 0.909960
vt 0.449680 0.911620
vt 0.441240 0.909930
vt 0.434090 0.905130
vt 0.429320 0.897970
vt 0.427650 0.889520
vt 0.429350 0.881080
vt 0.434140 0.873930
vt 0.441310 0.869150
vt 0.449760 0.867490
vt 0.458200 0.869180
vt 0.465350 0.873980
vt 0.470120 0.881150
s 0
usemtl defaultMat.009
f 1/1/1 3/7/1 4/10/1 2/4/1
f 3/8/2 7/19/2 8/22/2 4/11/2
f 7/20/3 5/13/3 6/16/3 8/23/3
f 5/14/4 1/2/4 2/5/4 6/17/4
f 3/9/5 1/3/5 5/15/5 7/21/5
f 8/24/6 6/18/6 2/6/6 4/12/6
f 9/25/7 11/27/7 26/43/7 27/46/7
f 11/28/8 12/29/8 28/48/8 26/44/8
f 12/29/9 13/30/9 29/50/9 28/48/9
f 13/30/10 14/31/10 30/52/10 29/50/10
f 14/31/11 15/32/11 31/54/11 30/52/11
f 15/32/12 16/33/12 32/56/12 31/54/12
f 16/33/13 17/34/13 33/58/13 32/56/13
f 17/34/14 18/35/14 34/60/14 33/58/14
f 18/35/15 19/36/15 35/62/15 34/60/15
f 19/36/16 20/37/16 36/64/16 35/62/16
f 20/37/17 21/38/17 37/66/17 36/64/17
f 21/38/18 22/39/18 38/68/18 37/66/18
f 22/39/19 23/40/19 39/70/19 38/68/19
f 23/40/20 24/41/20 40/72/20 39/70/20
f 24/41/21 25/42/21 41/74/21 40/72/21
f 25/42/22 9/25/22 27/46/22 41/74/22
f 43/77/23 27/47/23 26/45/23 42/76/23
f 42/76/24 26/45/24 28/49/24 44/78/24
f 44/78/25 28/49/25 29/51/25 45/79/25
f 45/79/26 29/51/26 30/53/26 46/80/26
f 46/80/27 30/53/27 31/55/27 47/81/27
f 47/81/28 31/55/28 32/57/28 48/82/28
f 48/82/29 32/57/29 33/59/29 49/83/29
f 49/83/30 33/59/30 34/61/30 50/84/30
f 50/84/31 34/61/31 35/63/31 51/85/31
f 51/85/32 35/63/32 36/65/32 52/86/32
f 52/86/33 36/65/33 37/67/33 53/87/33
f 53/87/34 37/67/34 38/69/34 54/88/34
f 54/88/35 38/69/35 39/71/35 55/89/35
f 55/89/36 39/71/36 40/73/36 56/90/36
f 56/90/37 40/73/37 41/75/37 57/91/37
f 57/91/38 41/75/38 27/47/38 43/77/38
f 59/93/39 43/77/39 42/76/39 58/92/39
f 58/92/40 42/76/40 44/78/40 60/94/40
f 60/94/41 44/78/41 45/79/41 61/95/41
f 61/95/42 45/79/42 46/80/42 62/96/42
f 62/96/43 46/80/43 47/81/43 63/97/43
f 63/97/44 47/81/44 48/82/44 64/98/44
f 64/98/45 48/82/45 49/83/45 65/99/45
f 65/99/46 49/83/46 50/84/46 66/100/46
f 66/100/47 50/84/47 51/85/47 67/101/47
f 67/101/48 51/85/48 52/86/48 68/102/48
f 68/102/49 52/86/49 53/87/49 69/103/49
f 69/103/50 53/87/50 54/88/50 70/104/50
f 70/104/51 54/88/51 55/89/51 71/105/51
f 71/105/52 55/89/52 56/90/52 72/106/52
f 72/106/53 56/90/53 57/91/53 73/107/53
f 73/107/54 57/91/54 43/77/54 59/93/54
f 10/26/55 59/93/55 58/92/55
f 10/26/56 58/92/56 60/94/56
f 10/26/57 60/94/57 61/95/57
f 10/26/58 61/95/58 62/96/58
f 10/26/59 62/96/59 63/97/59
f 10/26/60 63/97/60 64/98/60
f 10/26/61 64/98/61 65/99/61
f 10/26/62 65/99/62 66/100/62
f 10/26/63 66/100/63 67/101/63
f 10/26/64 67/101/64 68/102/64
f 10/26/65 68/102/65 69/103/65
f 10/26/66 69/103/66 70/104/66
f 10/26/67 70/104/67 71/105/67
f 10/26/68 71/105/68 72/106/68
f 10/26/69 72/106/69 73/107/69
f 10/26/70 73/107/70 59/93/70
f 74/108/7 76/110/7 91/126/7 92/129/7
f 76/111/71 77/112/71 93/131/71 91/127/71
f 77/112/72 78/113/72 94/133/72 93/131/72
f 78/113/10 79/114/10 95/135/10 94/133/10
f 79/114/11 80/115/11 96/137/11 95/135/11
f 80/115/12 81/116/12 97/139/12 96/137/12
f 81/116/13 82/117/13 98/141/13 97/139/13
f 82/117/73 83/118/73 99/143/73 98/141/73
f 83/118/74 84/119/74 100/145/74 99/143/74
f 84/119/16 85/120/16 101/147/16 100/145/16
f 85/120/17 86/121/17 102/149/17 101/147/17
f 86/121/18 87/122/18 103/151/18 102/149/18
f 87/122/19 88/123/19 104/153/19 103/151/19
f 88/123/75 89/124/75 105/155/75 104/153/75
f 89/124/76 90/125/76 106/157/76 105/155/76
f 90/125/77 74/108/77 92/129/77 106/157/77
f 108/160/78 92/130/78 91/128/78 107/159/78
f 107/159/79 91/128/79 93/132/79 109/161/79
f 109/161/80 93/132/80 94/134/80 110/162/80
f 110/162/81 94/134/81 95/136/81 111/163/81
f 111/163/27 95/136/27 96/138/27 112/164/27
f 112/164/28 96/138/28 97/140/28 113/165/28
f 113/165/82 97/140/82 98/142/82 114/166/82
f 114/166/83 98/142/83 99/144/83 115/167/83
f 115/167/84 99/144/84 100/146/84 116/168/84
f 116/168/85 100/146/85 101/148/85 117/169/85
f 117/169/86 101/148/86 102/150/86 118/170/86
f 118/170/34 102/150/34 103/152/34 119/171/34
f 119/171/35 103/152/35 104/154/35 120/172/35
f 120/172/36 104/154/36 105/156/36 121/173/36
f 121/173/87 105/156/87 106/158/87 122/174/87
f 122/174/38 106/158/38 92/130/38 108/160/38
f 124/176/39 108/160/39 107/159/39 123/175/39
f 123/175/40 107/159/40 109/161/40 125/177/40
f 125/177/41 109/161/41 110/162/41 126/178/41
f 126/178/42 110/162/42 111/163/42 127/179/42
f 127/179/88 111/163/88 112/164/88 128/180/88
f 128/180/44 112/164/44 113/165/44 129/181/44
f 129/181/45 113/165/45 114/166/45 130/182/45
f 130/182/89 114/166/89 115/167/89 131/183/89
f 131/183/90 115/167/90 116/168/90 132/184/90
f 132/184/48 116/168/48 117/169/48 133/185/48
f 133/185/91 117/169/91 118/170/91 134/186/91
f 134/186/50 118/170/50 119/171/50 135/187/50
f 135/187/92 119/171/92 120/172/92 136/188/92
f 136/188/52 120/172/52 121/173/52 137/189/52
f 137/189/53 121/173/53 122/174/53 138/190/53
f 138/190/54 122/174/54 108/160/54 124/176/54
f 75/109/93 124/176/93 123/175/93
f 75/109/56 123/175/56 125/177/56
f 75/109/57 125/177/57 126/178/57
f 75/109/58 126/178/58 127/179/58
f 75/109/59 127/179/59 128/180/59
f 75/109/60 128/180/60 129/181/60
f 75/109/94 129/181/94 130/182/94
f 75/109/95 130/182/95 131/183/95
f 75/109/63 131/183/63 132/184/63
f 75/109/96 132/184/96 133/185/96
f 75/109/65 133/185/65 134/186/65
f 75/109/66 134/186/66 135/187/66
f 75/109/67 135/187/67 136/188/67
f 75/109/68 136/188/68 137/189/68
f 75/109/69 137/189/69 138/190/69
f 75/109/70 138/190/70 124/176/70
f 139/191/7 141/193/7 156/209/7 157/212/7
f 141/194/8 142/195/8 158/214/8 156/210/8
f 142/195/9 143/196/9 159/216/9 158/214/9
f 143/196/10 144/197/10 160/218/10 159/216/10
f 144/197/11 145/198/11 161/220/11 160/218/11
f 145/198/97 146/199/97 162/222/97 161/220/97
f 146/199/98 147/200/98 163/224/98 162/222/98
f 147/200/14 148/201/14 164/226/14 163/224/14
f 148/201/99 149/202/99 165/228/99 164/226/99
f 149/202/100 150/203/100 166/230/100 165/228/100
f 150/203/101 151/204/101 167/232/101 166/230/101
f 151/204/18 152/205/18 168/234/18 167/232/18
f 152/205/19 153/206/19 169/236/19 168/234/19
f 153/206/20 154/207/20 170/238/20 169/236/20
f 154/207/21 155/208/21 171/240/21 170/238/21
f 155/208/77 139/191/77 157/212/77 171/240/77
f 173/243/102 157/213/102 156/211/102 172/242/102
f 172/242/79 156/211/79 158/215/79 174/244/79
f 174/244/25 158/215/25 159/217/25 175/245/25
f 175/245/26 159/217/26 160/219/26 176/246/26
f 176/246/103 160/219/103 161/221/103 177/247/103
f 177/247/28 161/221/28 162/223/28 178/248/28
f 178/248/82 162/223/82 163/225/82 179/249/82
f 179/249/30 163/225/30 164/227/30 180/250/30
f 180/250/31 164/227/31 165/229/31 181/251/31
f 181/251/85 165/229/85 166/231/85 182/252/85
f 182/252/33 166/231/33 167/233/33 183/253/33
f 183/253/34 167/233/34 168/235/34 184/254/34
f 184/254/35 168/235/35 169/237/35 185/255/35
f 185/255/36 169/237/36 170/239/36 186/256/36
f 186/256/87 170/239/87 171/241/87 187/257/87
f 187/257/104 171/241/104 157/213/104 173/243/104
f 189/259/105 173/243/105 172/242/105 188/258/105
f 188/258/40 172/242/40 174/244/40 190/260/40
f 190/260/106 174/244/106 175/245/106 191/261/106
f 191/261/42 175/245/42 176/246/42 192/262/42
f 192/262/43 176/246/43 177/247/43 193/263/43
f 193/263/44 177/247/44 178/248/44 194/264/44
f 194/264/45 178/248/45 179/249/45 195/265/45
f 195/265/46 179/249/46 180/250/46 196/266/46
f 196/266/47 180/250/47 181/251/47 197/267/47
f 197/267/48 181/251/48 182/252/48 198/268/48
f 198/268/107 182/252/107 183/253/107 199/269/107
f 199/269/50 183/253/50 184/254/50 200/270/50
f 200/270/108 184/254/108 185/255/108 201/271/108
f 201/271/52 185/255/52 186/256/52 202/272/52
f 202/272/53 186/256/53 187/257/53 203/273/53
f 203/273/54 187/257/54 173/243/54 189/259/54
f 140/192/55 189/259/55 188/258/55
f 140/192/56 188/258/56 190/260/56
f 140/192/57 190/260/57 191/261/57
f 140/192/58 191/261/58 192/262/58
f 140/192/59 192/262/59 193/263/59
f 140/192/60 193/263/60 194/264/60
f 140/192/61 194/264/61 195/265/61
f 140/192/109 195/265/109 196/266/109
f 140/192/63 196/266/63 197/267/63
f 140/192/110 197/267/110 198/268/110
f 140/192/65 198/268/65 199/269/65
f 140/192/66 199/269/66 200/270/66
f 140/192/67 200/270/67 201/271/67
f 140/192/68 201/271/68 202/272/68
f 140/192/69 202/272/69 203/273/69
f 140/192/70 203/273/70 189/259/70
