# Blender 3.3.1
# www.blender.org
mtllib Leg.mtl
o Leg
v 1.643856 -1.506338 -1.087460
v 1.643856 -1.408955 -1.087460
v 0.952727 -1.506338 -1.132366
v 0.952727 -1.469354 -1.132366
v 1.675011 -1.506338 -1.566921
v 1.675011 -1.408955 -1.566921
v 0.983879 -1.506338 -1.611828
v 0.983879 -1.469354 -1.611828
v 1.544338 -1.506338 -1.093926
v 1.544338 -1.408955 -1.093926
v 1.575491 -1.506338 -1.573387
v 1.575491 -1.408955 -1.573387
v 1.303003 -1.413352 -1.109608
v 1.334156 -1.506338 -1.589070
v 1.303003 -1.506338 -1.109608
v 1.334156 -1.413352 -1.589070
v 1.022106 -1.462715 -1.338496
v 1.022106 0.325966 -1.338494
v 1.030010 -1.462715 -1.365351
v 1.030010 0.325966 -1.365350
v 1.048977 -1.462715 -1.387324
v 1.048977 0.325966 -1.387322
v 1.076120 -1.462715 -1.401064
v 1.076120 0.325966 -1.401063
v 1.107306 -1.462715 -1.404482
v 1.107306 0.325966 -1.404481
v 1.137787 -1.462715 -1.397059
v 1.137787 0.325966 -1.397058
v 1.162922 -1.462715 -1.379919
v 1.162922 0.325966 -1.379918
v 1.178887 -1.462715 -1.355677
v 1.178887 0.325966 -1.355676
v 1.183249 -1.462715 -1.328024
v 1.183249 0.325966 -1.328023
v 1.175345 -1.462715 -1.301165
v 1.175345 0.325966 -1.301164
v 1.156378 -1.462715 -1.279192
v 1.156378 0.325966 -1.279191
v 1.129234 -1.462715 -1.265451
v 1.129234 0.325966 -1.265450
v 1.098049 -1.462715 -1.262034
v 1.098049 0.325966 -1.262033
v 1.067568 -1.462715 -1.269461
v 1.067568 0.325966 -1.269460
v 1.042433 -1.462715 -1.286597
v 1.042433 0.325966 -1.286595
v 1.026468 -1.462715 -1.310839
v 1.026468 0.325966 -1.310838
v -1.701635 -1.506338 -1.087460
v -1.701635 -1.408955 -1.087460
v -1.010504 -1.506338 -1.132366
v -1.010504 -1.469354 -1.132366
v -1.732788 -1.506338 -1.566921
v -1.732788 -1.408955 -1.566921
v -1.041658 -1.506338 -1.611828
v -1.041658 -1.469354 -1.611828
v -1.602116 -1.506338 -1.093926
v -1.602116 -1.408955 -1.093926
v -1.633269 -1.506338 -1.573387
v -1.633269 -1.408955 -1.573387
v -1.360781 -1.413352 -1.109608
v -1.391935 -1.506338 -1.589070
v -1.360781 -1.506338 -1.109608
v -1.391935 -1.413352 -1.589070
v -1.079883 -1.462715 -1.352790
v -1.079883 0.325966 -1.352789
v -1.087788 -1.462715 -1.379646
v -1.087788 0.325966 -1.379644
v -1.106755 -1.462715 -1.401618
v -1.106755 0.325966 -1.401617
v -1.133898 -1.462715 -1.415359
v -1.133898 0.325966 -1.415358
v -1.165084 -1.462715 -1.418777
v -1.165084 0.325966 -1.418776
v -1.195565 -1.462715 -1.411353
v -1.195565 0.325966 -1.411352
v -1.220701 -1.462715 -1.394214
v -1.220701 0.325966 -1.394213
v -1.236666 -1.462715 -1.369972
v -1.236666 0.325966 -1.369970
v -1.241028 -1.462715 -1.342319
v -1.241028 0.325966 -1.342318
v -1.233124 -1.462715 -1.315460
v -1.233124 0.325966 -1.315458
v -1.214156 -1.462715 -1.293486
v -1.214156 0.325966 -1.293485
v -1.187014 -1.462715 -1.279746
v -1.187014 0.325966 -1.279745
v -1.155827 -1.462715 -1.276328
v -1.155827 0.325966 -1.276327
v -1.125347 -1.462715 -1.283756
v -1.125347 0.325966 -1.283754
v -1.100210 -1.462715 -1.300891
v -1.100210 0.325966 -1.300890
v -1.084247 -1.462715 -1.325134
v -1.084247 0.325966 -1.325132
v -0.210983 -1.600267 4.456447
v -0.210983 -1.502884 4.456447
v -0.210983 -1.600267 3.844567
v -0.210983 -1.563282 3.844567
v 0.269205 -1.600267 4.456447
v 0.269205 -1.502884 4.456447
v 0.269205 -1.600267 3.844567
v 0.269205 -1.563282 3.844567
v -0.210983 -1.600267 4.368339
v -0.210983 -1.502884 4.368339
v 0.269205 -1.600267 4.368339
v 0.269205 -1.502884 4.368339
v -0.210983 -1.507280 4.154679
v 0.269205 -1.600267 4.154679
v -0.210983 -1.600267 4.154679
v 0.269205 -1.507280 4.154679
v 0.010150 -1.556643 3.889759
v 0.010150 0.232037 3.889760
v 0.037448 -1.556643 3.895191
v 0.037448 0.232037 3.895192
v 0.060590 -1.556643 3.910652
v 0.060590 0.232037 3.910653
v 0.076053 -1.556643 3.933796
v 0.076053 0.232037 3.933797
v 0.081483 -1.556643 3.961094
v 0.081483 0.232037 3.961095
v 0.076053 -1.556643 3.988389
v 0.076053 0.232037 3.988389
v 0.060590 -1.556643 4.011532
v 0.060590 0.232037 4.011533
v 0.037448 -1.556643 4.026993
v 0.037448 0.232037 4.026993
v 0.010150 -1.556643 4.032425
v 0.010150 0.232037 4.032426
v -0.017147 -1.556643 4.026997
v -0.017147 0.232037 4.026997
v -0.040289 -1.556643 4.011532
v -0.040289 0.232037 4.011533
v -0.055752 -1.556643 3.988389
v -0.055752 0.232037 3.988389
v -0.061182 -1.556643 3.961094
v -0.061182 0.232037 3.961095
v -0.055752 -1.556643 3.933796
v -0.055752 0.232037 3.933797
v -0.040289 -1.556643 3.910652
v -0.040289 0.232037 3.910653
v -0.017147 -1.556643 3.895191
v -0.017147 0.232037 3.895192
vn -0.0648 -0.0000 0.9979
vn -0.9979 -0.0000 -0.0648
vn 0.0648 -0.0000 -0.9979
vn 0.9979 -0.0000 0.0648
vn -0.0000 -1.0000 -0.0000
vn -0.0000 1.0000 -0.0000
vn -0.0181 0.9998 -0.0012
vn -0.1572 0.9875 -0.0102
vn -0.9593 -0.0000 -0.2823
vn -0.7570 -0.0000 -0.6534
vn -0.4517 -0.0000 -0.8922
vn -0.1089 -0.0000 -0.9940
vn 0.2366 -0.0000 -0.9716
vn 0.5634 -0.0000 -0.8262
vn 0.8352 -0.0000 -0.5500
vn 0.9878 -0.0000 -0.1558
vn 0.9593 -0.0000 0.2823
vn 0.7570 -0.0000 0.6534
vn 0.4517 -0.0000 0.8922
vn 0.1089 -0.0000 0.9941
vn -0.2367 -0.0000 0.9716
vn -0.5633 -0.0000 0.8263
vn -0.8352 -0.0000 0.5500
vn -0.9878 -0.0000 0.1558
vn 0.0648 -0.0000 0.9979
vn 0.9979 -0.0000 -0.0648
vn -0.0648 -0.0000 -0.9979
vn -0.9979 -0.0000 0.0648
vn 0.0181 0.9998 -0.0012
vn 0.1572 0.9875 -0.0102
vn 0.9593 -0.0000 -0.2824
vn 0.7570 -0.0000 -0.6534
vn 0.4517 -0.0000 -0.8922
vn 0.1089 -0.0000 -0.9940
vn -0.2366 -0.0000 -0.9716
vn -0.5634 -0.0000 -0.8262
vn -0.8352 -0.0000 -0.5500
vn -0.9878 -0.0000 -0.1558
vn -0.9593 -0.0000 0.2823
vn -0.7570 -0.0000 0.6534
vn -0.4516 -0.0000 0.8922
vn -0.1089 -0.0000 0.9940
vn 0.2367 -0.0000 0.9716
vn 0.5633 -0.0000 0.8263
vn 0.8352 -0.0000 0.5500
vn 0.9878 -0.0000 0.1559
vn -1.0000 -0.0000 -0.0000
vn -0.0000 -0.0000 -1.0000
vn 1.0000 -0.0000 -0.0000
vn -0.0000 -0.0000 1.0000
vn -0.0000 0.9998 -0.0206
vn -0.0000 0.9841 -0.1777
vn 0.1952 -0.0000 -0.9808
vn 0.5555 -0.0000 -0.8315
vn 0.8315 -0.0000 -0.5555
vn 0.9808 -0.0000 -0.1951
vn 0.9808 -0.0000 0.1951
vn 0.8315 -0.0000 0.5556
vn 0.5555 -0.0000 0.8315
vn 0.1952 -0.0000 0.9808
vn -0.1951 -0.0000 0.9808
vn -0.5556 -0.0000 0.8314
vn -0.8315 -0.0000 0.5556
vn -0.9808 -0.0000 0.1951
vn -0.9808 -0.0000 -0.1951
vn -0.8315 -0.0000 -0.5555
vn -0.5555 -0.0000 -0.8315
vn -0.1952 -0.0000 -0.9808
vt 0.822850 0.507420
vt 0.151860 0.712770
vt 0.667110 0.880900
vt 0.856660 0.516590
vt 0.406360 0.794990
vt 0.665740 0.882380
vt 0.659360 0.874500
vt 0.874810 0.269570
vt 0.399040 0.738020
vt 0.658830 0.875070
vt 0.874580 0.271600
vt 0.656400 0.819990
vt 0.093530 0.732690
vt 0.868060 0.340640
vt 0.134420 0.883140
vt 0.060910 0.743020
vt 0.901870 0.349800
vt 0.423180 0.624560
vt 0.856770 0.267540
vt 0.145450 0.978050
vt 0.382750 0.908880
vt 0.856540 0.269570
vt 0.132470 0.980690
vt 0.672050 0.649070
vt 0.187810 0.715560
vt 0.667800 0.878940
vt 0.441780 0.799170
vt 0.663840 0.883220
vt 0.169830 0.887450
vt 0.105050 0.767920
vt 0.459150 0.627220
vt 0.070970 0.776160
vt 0.528080 0.808910
vt 0.659180 0.881850
vt 0.122330 0.854130
vt 0.256070 0.897490
vt 0.274460 0.724760
vt 0.666080 0.874400
vt 0.089320 0.860190
vt 0.545840 0.636110
vt 0.003600 0.398470
vt 0.059010 0.560220
vt 0.611440 0.190360
vt 0.666850 0.352110
vt 0.006750 0.408030
vt 0.614810 0.199850
vt 0.010040 0.417940
vt 0.618290 0.209700
vt 0.013500 0.428310
vt 0.621910 0.220020
vt 0.017090 0.439010
vt 0.625640 0.230670
vt 0.020700 0.449700
vt 0.629340 0.241330
vt 0.024210 0.460060
vt 0.632920 0.251670
vt 0.027570 0.469950
vt 0.636350 0.261550
vt 0.030810 0.479490
vt 0.639640 0.271080
vt 0.034100 0.489020
vt 0.642880 0.280630
vt 0.037520 0.498900
vt 0.646240 0.290510
vt 0.041100 0.509250
vt 0.649750 0.300880
vt 0.044810 0.519900
vt 0.653360 0.311570
vt 0.048530 0.530560
vt 0.656940 0.322260
vt 0.052160 0.540880
vt 0.660410 0.332640
vt 0.055640 0.550730
vt 0.663700 0.342550
vt 0.712290 0.942250
vt 0.830100 0.821090
vt 0.626750 0.834190
vt 0.703130 0.908450
vt 0.855090 0.266640
vt 0.622880 0.868280
vt 0.874500 0.847320
vt 0.664000 0.538980
vt 0.866820 0.575350
vt 0.873440 0.860550
vt 0.664230 0.541010
vt 0.819130 0.515340
vt 0.967400 0.043720
vt 0.879080 0.897040
vt 0.660710 0.795820
vt 0.966240 0.045380
vt 0.869920 0.863230
vt 0.685620 0.241920
vt 0.682040 0.536940
vt 0.958850 0.038430
vt 0.697250 0.548840
vt 0.682270 0.538980
vt 0.958400 0.039060
vt 0.649470 0.489370
vt 0.836300 0.785570
vt 0.661400 0.837600
vt 0.850610 0.302030
vt 0.659490 0.872710
vt 0.665310 0.760440
vt 0.967820 0.041690
vt 0.679540 0.277470
vt 0.964470 0.046470
vt 0.839280 0.388120
vt 0.746790 0.873690
vt 0.965500 0.037430
vt 0.676930 0.674400
vt 0.848840 0.699340
vt 0.748070 0.840230
vt 0.959670 0.045740
vt 0.667290 0.363750
vt 0.663760 0.157030
vt 0.047950 0.341330
vt 0.666540 0.166710
vt 0.617540 0.002950
vt 0.050940 0.350940
vt 0.001950 0.187140
vt 0.620650 0.012920
vt 0.004830 0.197170
vt 0.623880 0.023370
vt 0.007870 0.207690
vt 0.627200 0.034150
vt 0.011020 0.218520
vt 0.630500 0.044940
vt 0.014180 0.229350
vt 0.633680 0.055410
vt 0.017270 0.239850
vt 0.636710 0.065400
vt 0.020230 0.249860
vt 0.639610 0.075040
vt 0.023090 0.259540
vt 0.642510 0.084680
vt 0.025950 0.269200
vt 0.645490 0.094690
vt 0.028980 0.279210
vt 0.648610 0.105180
vt 0.032140 0.289680
vt 0.651810 0.116000
vt 0.035410 0.300480
vt 0.654990 0.126830
vt 0.038700 0.311270
vt 0.658060 0.137330
vt 0.041900 0.321730
vt 0.660970 0.147360
vt 0.044970 0.331710
vt 0.862950 0.506000
vt 0.407210 0.797490
vt 0.915910 0.008200
vt 0.896760 0.515170
vt 0.660190 0.230490
vt 0.949680 0.001950
vt 0.945490 0.225540
vt 0.870070 0.266620
vt 0.624660 0.827950
vt 0.958580 0.223370
vt 0.870300 0.264580
vt 0.880490 0.260640
vt 0.061590 0.926250
vt 0.908160 0.339320
vt 0.383390 0.967150
vt 0.094580 0.917090
vt 0.941970 0.348490
vt 0.683230 0.060730
vt 0.888090 0.268650
vt 0.021220 0.708320
vt 0.601740 0.998040
vt 0.888320 0.266620
vt 0.034270 0.706020
vt 0.902610 0.090440
vt 0.438820 0.801170
vt 0.921130 0.038590
vt 0.691360 0.235340
vt 0.955970 0.033850
vt 0.414540 0.972140
vt 0.052370 0.894880
vt 0.714870 0.064270
vt 0.086620 0.887490
vt 0.767240 0.246640
vt 0.963070 0.110630
vt 0.038840 0.818290
vt 0.490360 0.983770
vt 0.515040 0.811990
vt 0.929830 0.114720
vt 0.071990 0.813020
vt 0.791150 0.074750
vt 0.001950 0.587320
vt 0.051340 0.739730
vt 0.613150 0.389380
vt 0.662540 0.541790
vt 0.004930 0.596880
vt 0.616340 0.398880
vt 0.007930 0.606430
vt 0.619510 0.408370
vt 0.010950 0.615970
vt 0.622670 0.417870
vt 0.013970 0.625510
vt 0.625810 0.427380
vt 0.017010 0.635050
vt 0.628940 0.436890
vt 0.020070 0.644580
vt 0.632050 0.446400
vt 0.023130 0.654110
vt 0.635180 0.455930
vt 0.026200 0.663650
vt 0.638300 0.465460
vt 0.029310 0.673180
vt 0.641360 0.475000
vt 0.032440 0.682710
vt 0.644430 0.484530
vt 0.035550 0.692220
vt 0.647480 0.494060
vt 0.038680 0.701730
vt 0.650520 0.503600
vt 0.041820 0.711240
vt 0.653550 0.513140
vt 0.044980 0.720740
vt 0.656560 0.522690
vt 0.048150 0.730240
vt 0.659560 0.532230
s 0
usemtl defaultMat.002
f 15/38/1 13/34/1 4/10/1 3/7/1
f 3/8/2 4/11/2 8/22/2 7/19/2
f 11/30/3 12/32/3 6/16/3 5/13/3
f 5/14/4 6/17/4 2/4/4 1/1/4
f 9/25/5 11/29/5 5/15/5 1/2/5
f 12/31/6 10/27/6 2/5/6 6/18/6
f 16/40/7 13/33/7 10/27/7 12/31/7
f 15/37/5 14/36/5 11/29/5 9/25/5
f 14/35/3 16/39/3 12/32/3 11/30/3
f 1/3/1 2/6/1 10/28/1 9/26/1
f 7/20/3 8/23/3 16/39/3 14/35/3
f 3/9/5 7/21/5 14/36/5 15/37/5
f 8/24/8 4/12/8 13/33/8 16/40/8
f 9/26/1 10/28/1 13/34/1 15/38/1
f 17/41/9 18/43/9 20/46/9 19/45/9
f 19/45/10 20/46/10 22/48/10 21/47/10
f 21/47/11 22/48/11 24/50/11 23/49/11
f 23/49/12 24/50/12 26/52/12 25/51/12
f 25/51/13 26/52/13 28/54/13 27/53/13
f 27/53/14 28/54/14 30/56/14 29/55/14
f 29/55/15 30/56/15 32/58/15 31/57/15
f 31/57/16 32/58/16 34/60/16 33/59/16
f 33/59/17 34/60/17 36/62/17 35/61/17
f 35/61/18 36/62/18 38/64/18 37/63/18
f 37/63/19 38/64/19 40/66/19 39/65/19
f 39/65/20 40/66/20 42/68/20 41/67/20
f 41/67/21 42/68/21 44/70/21 43/69/21
f 43/69/22 44/70/22 46/72/22 45/71/22
f 45/71/23 46/72/23 48/74/23 47/73/23
f 47/73/24 48/74/24 18/44/24 17/42/24
f 63/112/25 51/81/25 52/84/25 61/108/25
f 51/82/26 55/93/26 56/96/26 52/85/26
f 59/104/27 53/87/27 54/90/27 60/106/27
f 53/88/28 49/75/28 50/78/28 54/91/28
f 57/99/5 49/76/5 53/89/5 59/103/5
f 60/105/6 54/92/6 50/79/6 58/101/6
f 64/114/29 60/105/29 58/101/29 61/107/29
f 63/111/5 57/99/5 59/103/5 62/110/5
f 62/109/27 59/104/27 60/106/27 64/113/27
f 49/77/25 57/100/25 58/102/25 50/80/25
f 55/94/27 62/109/27 64/113/27 56/97/27
f 51/83/5 63/111/5 62/110/5 55/95/5
f 56/98/30 64/114/30 61/107/30 52/86/30
f 57/100/25 63/112/25 61/108/25 58/102/25
f 65/115/31 67/117/31 68/119/31 66/116/31
f 67/118/32 69/121/32 70/122/32 68/120/32
f 69/121/33 71/123/33 72/124/33 70/122/33
f 71/123/34 73/125/34 74/126/34 72/124/34
f 73/125/35 75/127/35 76/128/35 74/126/35
f 75/127/36 77/129/36 78/130/36 76/128/36
f 77/129/37 79/131/37 80/132/37 78/130/37
f 79/131/38 81/133/38 82/134/38 80/132/38
f 81/133/39 83/135/39 84/136/39 82/134/39
f 83/135/40 85/137/40 86/138/40 84/136/40
f 85/137/41 87/139/41 88/140/41 86/138/41
f 87/139/42 89/141/42 90/142/42 88/140/42
f 89/141/43 91/143/43 92/144/43 90/142/43
f 91/143/44 93/145/44 94/146/44 92/144/44
f 93/145/45 95/147/45 96/148/45 94/146/45
f 95/147/46 65/115/46 66/116/46 96/148/46
f 111/186/47 109/182/47 100/158/47 99/155/47
f 99/156/48 100/159/48 104/170/48 103/167/48
f 107/178/49 108/180/49 102/164/49 101/161/49
f 101/162/50 102/165/50 98/152/50 97/149/50
f 105/173/5 107/177/5 101/163/5 97/150/5
f 108/179/6 106/175/6 98/153/6 102/166/6
f 112/188/51 109/181/51 106/175/51 108/179/51
f 111/185/5 110/184/5 107/177/5 105/173/5
f 110/183/49 112/187/49 108/180/49 107/178/49
f 97/151/47 98/154/47 106/176/47 105/174/47
f 103/168/49 104/171/49 112/187/49 110/183/49
f 99/157/5 103/169/5 110/184/5 111/185/5
f 104/172/52 100/160/52 109/181/52 112/188/52
f 105/174/47 106/176/47 109/182/47 111/186/47
f 113/189/53 114/191/53 116/194/53 115/193/53
f 115/193/54 116/194/54 118/196/54 117/195/54
f 117/195/55 118/196/55 120/198/55 119/197/55
f 119/197/56 120/198/56 122/200/56 121/199/56
f 121/199/57 122/200/57 124/202/57 123/201/57
f 123/201/58 124/202/58 126/204/58 125/203/58
f 125/203/59 126/204/59 128/206/59 127/205/59
f 127/205/60 128/206/60 130/208/60 129/207/60
f 129/207/61 130/208/61 132/210/61 131/209/61
f 131/209/62 132/210/62 134/212/62 133/211/62
f 133/211/63 134/212/63 136/214/63 135/213/63
f 135/213/64 136/214/64 138/216/64 137/215/64
f 137/215/65 138/216/65 140/218/65 139/217/65
f 139/217/66 140/218/66 142/220/66 141/219/66
f 141/219/67 142/220/67 144/222/67 143/221/67
f 143/221/68 144/222/68 114/192/68 113/190/68
