# Blender 3.3.1
# www.blender.org
mtllib lights.mtl
o lights
v 1.814976 1.441779 1.373441
v 1.818465 1.501509 1.373441
v 1.814976 1.441779 0.920415
v 1.818465 1.501510 0.920415
v 1.856739 1.428344 1.456554
v 1.861509 1.509990 1.456554
v 1.856739 1.428344 0.837302
v 1.861509 1.509990 0.837302
v 1.823457 1.433437 0.861098
v 1.823457 1.433436 1.432757
v 1.827860 1.508807 1.432757
v 1.827860 1.508808 0.861098
v 1.817901 1.435987 0.877924
v 1.817901 1.435986 1.415933
v 1.822045 1.506921 1.415933
v 1.822045 1.506922 0.877924
v 1.814976 1.441780 -1.612506
v 1.818465 1.501510 -1.612506
v 1.814976 1.441780 -2.065531
v 1.818465 1.501511 -2.065531
v 1.856739 1.428345 -1.529393
v 1.861509 1.509991 -1.529393
v 1.856739 1.428345 -2.148645
v 1.861509 1.509992 -2.148645
v 1.823457 1.433438 -2.124848
v 1.823457 1.433437 -1.553189
v 1.827860 1.508809 -1.553189
v 1.827860 1.508809 -2.124848
v 1.817901 1.435988 -2.108022
v 1.817901 1.435988 -1.570014
v 1.822045 1.506923 -1.570014
v 1.822045 1.506923 -2.108022
v 1.814976 1.441780 -0.866018
v 1.818465 1.501510 -0.866018
v 1.814976 1.441780 -1.319044
v 1.818465 1.501510 -1.319044
v 1.856739 1.428345 -0.782904
v 1.861509 1.509991 -0.782904
v 1.856739 1.428345 -1.402157
v 1.861509 1.509991 -1.402157
v 1.823457 1.433437 -1.378361
v 1.823457 1.433437 -0.806701
v 1.827860 1.508809 -0.806701
v 1.827860 1.508809 -1.378361
v 1.817901 1.435988 -1.361535
v 1.817901 1.435988 -0.823526
v 1.822045 1.506923 -0.823526
v 1.822045 1.506923 -1.361535
v 1.814976 1.441780 -0.119529
v 1.818465 1.501510 -0.119529
v 1.814976 1.441780 -0.572556
v 1.818465 1.501510 -0.572556
v 1.856739 1.428345 -0.036417
v 1.861509 1.509991 -0.036417
v 1.856739 1.428345 -0.655669
v 1.861509 1.509991 -0.655669
v 1.823457 1.433437 -0.631873
v 1.823457 1.433437 -0.060213
v 1.827860 1.508809 -0.060213
v 1.827860 1.508809 -0.631873
v 1.817901 1.435988 -0.615047
v 1.817901 1.435988 -0.077038
v 1.822045 1.506923 -0.077038
v 1.822045 1.506923 -0.615047
v 1.814976 1.441779 0.626954
v 1.818465 1.501510 0.626954
v 1.814976 1.441780 0.173928
v 1.818465 1.501510 0.173928
v 1.856739 1.428344 0.710066
v 1.861509 1.509990 0.710066
v 1.856739 1.428345 0.090815
v 1.861509 1.509991 0.090815
v 1.823457 1.433437 0.114611
v 1.823457 1.433437 0.686270
v 1.827860 1.508808 0.686270
v 1.827860 1.508809 0.114611
v 1.817901 1.435987 0.131436
v 1.817901 1.435987 0.669445
v 1.822045 1.506922 0.669445
v 1.822045 1.506923 0.131436
v -1.712627 1.441779 1.373441
v -1.716117 1.501509 1.373441
v -1.712627 1.441779 0.920415
v -1.716117 1.501510 0.920415
v -1.754391 1.428344 1.456553
v -1.759160 1.509990 1.456553
v -1.754391 1.428344 0.837302
v -1.759160 1.509990 0.837302
v -1.721108 1.433437 0.861098
v -1.721108 1.433436 1.432757
v -1.725511 1.508807 1.432757
v -1.725511 1.508808 0.861098
v -1.715553 1.435987 0.877923
v -1.715553 1.435986 1.415933
v -1.719697 1.506921 1.415933
v -1.719697 1.506922 0.877923
v -1.712627 1.441780 -1.612506
v -1.716117 1.501510 -1.612506
v -1.712627 1.441780 -2.065531
v -1.716117 1.501511 -2.065531
v -1.754391 1.428345 -1.529393
v -1.759160 1.509991 -1.529393
v -1.754391 1.428345 -2.148645
v -1.759160 1.509992 -2.148645
v -1.721108 1.433438 -2.124848
v -1.721108 1.433437 -1.553189
v -1.725511 1.508809 -1.553189
v -1.725511 1.508809 -2.124848
v -1.715553 1.435988 -2.108022
v -1.715553 1.435988 -1.570014
v -1.719697 1.506923 -1.570014
v -1.719697 1.506923 -2.108022
v -1.712627 1.441780 -0.866019
v -1.716117 1.501510 -0.866019
v -1.712627 1.441780 -1.319044
v -1.716117 1.501510 -1.319044
v -1.754391 1.428345 -0.782904
v -1.759160 1.509991 -0.782904
v -1.754391 1.428345 -1.402157
v -1.759160 1.509991 -1.402157
v -1.721108 1.433437 -1.378361
v -1.721108 1.433437 -0.806701
v -1.725511 1.508809 -0.806701
v -1.725511 1.508809 -1.378361
v -1.715553 1.435988 -1.361535
v -1.715553 1.435988 -0.823527
v -1.719697 1.506923 -0.823527
v -1.719697 1.506923 -1.361535
v -1.712627 1.441780 -0.119529
v -1.716117 1.501510 -0.119529
v -1.712627 1.441780 -0.572556
v -1.716117 1.501510 -0.572556
v -1.754391 1.428345 -0.036417
v -1.759160 1.509991 -0.036417
v -1.754391 1.428345 -0.655669
v -1.759160 1.509991 -0.655669
v -1.721108 1.433437 -0.631873
v -1.721108 1.433437 -0.060213
v -1.725511 1.508809 -0.060213
v -1.725511 1.508809 -0.631873
v -1.715553 1.435988 -0.615047
v -1.715553 1.435988 -0.077039
v -1.719697 1.506923 -0.077039
v -1.719697 1.506923 -0.615047
v -1.712627 1.441779 0.626954
v -1.716117 1.501510 0.626954
v -1.712627 1.441780 0.173928
v -1.716117 1.501510 0.173928
v -1.754391 1.428344 0.710066
v -1.759160 1.509990 0.710066
v -1.754391 1.428345 0.090815
v -1.759160 1.509991 0.090815
v -1.721108 1.433437 0.114611
v -1.721108 1.433437 0.686270
v -1.725511 1.508808 0.686270
v -1.725511 1.508809 0.114611
v -1.715553 1.435987 0.131436
v -1.715553 1.435987 0.669445
v -1.719697 1.506922 0.669445
v -1.719697 1.506923 0.131436
vn -0.9983 0.0583 -0.0000
vn -0.5778 0.0338 -0.8154
vn 0.9983 -0.0583 -0.0000
vn -0.5779 0.0338 0.8154
vn -0.1512 -0.9885 -0.0000
vn -0.0351 0.9994 -0.0000
vn -0.4171 -0.9088 -0.0000
vn -0.9456 0.0552 0.3207
vn -0.3086 0.9512 -0.0000
vn -0.9456 0.0552 -0.3206
vn -0.8927 -0.4507 -0.0000
vn -0.9954 0.0581 0.0765
vn -0.8340 0.5517 -0.0000
vn -0.9954 0.0581 -0.0765
vn -0.5779 0.0338 -0.8154
vn -0.4172 -0.9088 -0.0000
vn -0.9456 0.0552 0.3206
vn -0.3085 0.9512 -0.0000
vn -0.8926 -0.4508 -0.0000
vn -0.8341 0.5517 -0.0000
vn -0.9954 0.0581 -0.0764
vn -0.4173 -0.9088 -0.0000
vn -0.8341 0.5516 -0.0000
vn -0.5778 0.0338 0.8154
vn -0.4171 -0.9089 -0.0000
vn 0.9983 0.0583 -0.0000
vn 0.5778 0.0338 -0.8154
vn -0.9983 -0.0583 -0.0000
vn 0.5779 0.0338 0.8154
vn 0.1512 -0.9885 -0.0000
vn 0.0351 0.9994 -0.0000
vn 0.4172 -0.9088 -0.0000
vn 0.9456 0.0552 0.3206
vn 0.3086 0.9512 -0.0000
vn 0.9456 0.0552 -0.3206
vn 0.8926 -0.4508 -0.0000
vn 0.9954 0.0582 0.0765
vn 0.8340 0.5517 -0.0000
vn 0.9954 0.0582 -0.0765
vn 0.5779 0.0338 -0.8154
vn 0.4173 -0.9088 -0.0000
vn 0.3085 0.9512 -0.0000
vn 0.8927 -0.4506 -0.0000
vn 0.8341 0.5517 -0.0000
vn 0.9456 0.0552 0.3205
vn 0.8926 -0.4509 -0.0000
vn 0.8341 0.5516 -0.0000
vn 0.5778 0.0338 0.8154
vt 0.070260 0.511590
vt 0.077210 0.472000
vt 0.392710 0.573490
vt 0.399660 0.533910
vt 0.390950 0.004600
vt 0.002500 0.529590
vt 0.380250 0.062300
vt 0.021790 0.430720
vt 0.827860 0.085580
vt 0.448130 0.614780
vt 0.817160 0.143280
vt 0.467420 0.515900
vt 0.433520 0.589890
vt 0.026470 0.511750
vt 0.036400 0.455600
vt 0.443450 0.533750
vt 0.422200 0.583580
vt 0.039250 0.510060
vt 0.047720 0.461910
vt 0.430670 0.535430
vt 0.751450 0.318750
vt 0.791030 0.325700
vt 0.689550 0.641170
vt 0.729130 0.648120
vt 0.733860 0.845410
vt 0.733450 0.251000
vt 0.791560 0.856110
vt 0.832320 0.270280
vt 0.814830 0.408500
vt 0.648260 0.696580
vt 0.872540 0.419190
vt 0.747130 0.715870
vt 0.673150 0.681970
vt 0.751290 0.274970
vt 0.807430 0.284890
vt 0.729290 0.691900
vt 0.679450 0.670660
vt 0.752970 0.287740
vt 0.801130 0.296210
vt 0.727610 0.679130
vt 0.640280 0.561340
vt 0.600690 0.554400
vt 0.702180 0.238890
vt 0.662590 0.231940
vt 0.118110 0.856430
vt 0.658280 0.629100
vt 0.122060 0.835140
vt 0.559410 0.609810
vt 0.003250 0.835140
vt 0.743460 0.183480
vt 0.007190 0.813860
vt 0.644590 0.164190
vt 0.718580 0.198090
vt 0.640440 0.605130
vt 0.584290 0.595200
vt 0.662430 0.188160
vt 0.712270 0.209400
vt 0.638760 0.592350
vt 0.590600 0.583890
vt 0.664120 0.200930
vt 0.070660 0.727100
vt 0.077600 0.687520
vt 0.393110 0.789010
vt 0.400050 0.749420
vt 0.013080 0.752420
vt 0.002900 0.745110
vt 0.002380 0.810120
vt 0.022190 0.646230
vt 0.449990 0.833390
vt 0.448520 0.830290
vt 0.439300 0.891100
vt 0.467810 0.731420
vt 0.433910 0.805400
vt 0.026870 0.727260
vt 0.036800 0.671120
vt 0.443840 0.749260
vt 0.422600 0.799100
vt 0.039650 0.725580
vt 0.048110 0.677430
vt 0.431060 0.750940
vt 0.401060 0.213580
vt 0.394110 0.253170
vt 0.078600 0.151680
vt 0.071660 0.191260
vt 0.789280 0.887370
vt 0.468820 0.195580
vt 0.846980 0.898070
vt 0.449530 0.294450
vt 0.870250 0.450460
vt 0.023190 0.110390
vt 0.927960 0.461150
vt 0.003900 0.209260
vt 0.037800 0.135280
vt 0.444850 0.213420
vt 0.434920 0.269560
vt 0.027870 0.191420
vt 0.049110 0.141590
vt 0.432070 0.215100
vt 0.423600 0.263260
vt 0.040640 0.189740
vt 0.593070 0.234600
vt 0.553630 0.226900
vt 0.535310 0.557820
vt 0.495870 0.550120
vt 0.952380 0.260060
vt 0.634160 0.177790
vt 0.931090 0.264010
vt 0.534940 0.160370
vt 0.931090 0.145200
vt 0.554000 0.624350
vt 0.909800 0.149140
vt 0.454780 0.606930
vt 0.536000 0.601790
vt 0.608910 0.193780
vt 0.552940 0.182930
vt 0.480020 0.590940
vt 0.534170 0.588970
vt 0.602770 0.205100
vt 0.554770 0.195750
vt 0.486170 0.579620
vt 0.077090 0.366390
vt 0.069390 0.405840
vt 0.400310 0.424150
vt 0.392610 0.463600
vt 0.821970 0.012640
vt 0.020280 0.325300
vt 0.879680 0.001950
vt 0.002860 0.424520
vt 0.902950 0.449560
vt 0.466840 0.405470
vt 0.960650 0.438860
vt 0.449420 0.504680
vt 0.444280 0.423470
vt 0.036270 0.350550
vt 0.025420 0.406520
vt 0.433430 0.479440
vt 0.431460 0.425300
vt 0.047590 0.356700
vt 0.038240 0.404690
vt 0.422110 0.473290
vt 0.076180 0.046360
vt 0.068480 0.085800
vt 0.399410 0.104120
vt 0.391710 0.143560
vt 0.926990 0.123080
vt 0.019370 0.005270
vt 0.905700 0.127030
vt 0.001950 0.104480
vt 0.905700 0.008220
vt 0.465940 0.085430
vt 0.884410 0.012160
vt 0.448510 0.184650
vt 0.443380 0.103430
vt 0.035360 0.030510
vt 0.024510 0.086490
vt 0.432530 0.159410
vt 0.430560 0.105260
vt 0.046680 0.036660
vt 0.037330 0.084660
vt 0.421200 0.153260
vt 0.392390 0.679000
vt 0.400090 0.639560
vt 0.069170 0.621240
vt 0.076870 0.581790
vt 0.472290 0.746360
vt 0.449200 0.720090
vt 0.505530 0.697990
vt 0.466620 0.620870
vt 0.838490 0.998040
vt 0.002640 0.639920
vt 0.871730 0.949680
vt 0.020060 0.540710
vt 0.025200 0.621920
vt 0.433210 0.694840
vt 0.444060 0.638870
vt 0.036050 0.565950
vt 0.038020 0.620090
vt 0.421890 0.688690
vt 0.431240 0.640700
vt 0.047370 0.572100
vt 0.077520 0.261320
vt 0.069820 0.300760
vt 0.400740 0.319080
vt 0.393040 0.358530
vt 0.977760 0.397050
vt 0.020710 0.220230
vt 0.956480 0.400990
vt 0.003290 0.319450
vt 0.956480 0.282180
vt 0.467270 0.300400
vt 0.935190 0.286130
vt 0.449850 0.399610
vt 0.444720 0.318400
vt 0.036700 0.245480
vt 0.025850 0.301450
vt 0.433870 0.374370
vt 0.431890 0.320230
vt 0.048020 0.251630
vt 0.038670 0.299620
vt 0.422540 0.368220
s 0
usemtl defaultMat.004
f 1/1/1 2/2/1 4/4/1 3/3/1
f 9/13/2 12/16/2 8/12/2 7/10/2
f 7/9/3 8/11/3 6/7/3 5/5/3
f 5/6/4 6/8/4 11/15/4 10/14/4
f 9/13/5 7/10/5 5/6/5 10/14/5
f 8/12/6 12/16/6 11/15/6 6/8/6
f 14/18/7 13/17/7 9/13/7 10/14/7
f 15/19/8 14/18/8 10/14/8 11/15/8
f 16/20/9 15/19/9 11/15/9 12/16/9
f 13/17/10 16/20/10 12/16/10 9/13/10
f 1/1/11 3/3/11 13/17/11 14/18/11
f 2/2/12 1/1/12 14/18/12 15/19/12
f 4/4/13 2/2/13 15/19/13 16/20/13
f 3/3/14 4/4/14 16/20/14 13/17/14
f 17/21/1 18/22/1 20/24/1 19/23/1
f 25/33/15 28/36/15 24/32/15 23/30/15
f 23/29/3 24/31/3 22/27/3 21/25/3
f 21/26/4 22/28/4 27/35/4 26/34/4
f 25/33/5 23/30/5 21/26/5 26/34/5
f 24/32/6 28/36/6 27/35/6 22/28/6
f 30/38/16 29/37/16 25/33/16 26/34/16
f 31/39/17 30/38/17 26/34/17 27/35/17
f 32/40/18 31/39/18 27/35/18 28/36/18
f 29/37/10 32/40/10 28/36/10 25/33/10
f 17/21/19 19/23/19 29/37/19 30/38/19
f 18/22/12 17/21/12 30/38/12 31/39/12
f 20/24/20 18/22/20 31/39/20 32/40/20
f 19/23/14 20/24/14 32/40/14 29/37/14
f 33/41/1 34/42/1 36/44/1 35/43/1
f 41/53/15 44/56/15 40/52/15 39/50/15
f 39/49/3 40/51/3 38/47/3 37/45/3
f 37/46/4 38/48/4 43/55/4 42/54/4
f 41/53/5 39/50/5 37/46/5 42/54/5
f 40/52/6 44/56/6 43/55/6 38/48/6
f 46/58/16 45/57/16 41/53/16 42/54/16
f 47/59/17 46/58/17 42/54/17 43/55/17
f 48/60/18 47/59/18 43/55/18 44/56/18
f 45/57/10 48/60/10 44/56/10 41/53/10
f 33/41/19 35/43/19 45/57/19 46/58/19
f 34/42/12 33/41/12 46/58/12 47/59/12
f 36/44/20 34/42/20 47/59/20 48/60/20
f 35/43/21 36/44/21 48/60/21 45/57/21
f 49/61/1 50/62/1 52/64/1 51/63/1
f 57/73/15 60/76/15 56/72/15 55/70/15
f 55/69/3 56/71/3 54/67/3 53/65/3
f 53/66/4 54/68/4 59/75/4 58/74/4
f 57/73/5 55/70/5 53/66/5 58/74/5
f 56/72/6 60/76/6 59/75/6 54/68/6
f 62/78/22 61/77/22 57/73/22 58/74/22
f 63/79/17 62/78/17 58/74/17 59/75/17
f 64/80/18 63/79/18 59/75/18 60/76/18
f 61/77/10 64/80/10 60/76/10 57/73/10
f 49/61/19 51/63/19 61/77/19 62/78/19
f 50/62/12 49/61/12 62/78/12 63/79/12
f 52/64/23 50/62/23 63/79/23 64/80/23
f 51/63/21 52/64/21 64/80/21 61/77/21
f 65/81/1 66/82/1 68/84/1 67/83/1
f 73/93/15 76/96/15 72/92/15 71/90/15
f 71/89/3 72/91/3 70/87/3 69/85/3
f 69/86/24 70/88/24 75/95/24 74/94/24
f 73/93/5 71/90/5 69/86/5 74/94/5
f 72/92/6 76/96/6 75/95/6 70/88/6
f 78/98/25 77/97/25 73/93/25 74/94/25
f 79/99/17 78/98/17 74/94/17 75/95/17
f 80/100/18 79/99/18 75/95/18 76/96/18
f 77/97/10 80/100/10 76/96/10 73/93/10
f 65/81/11 67/83/11 77/97/11 78/98/11
f 66/82/12 65/81/12 78/98/12 79/99/12
f 68/84/20 66/82/20 79/99/20 80/100/20
f 67/83/21 68/84/21 80/100/21 77/97/21
f 81/101/26 83/103/26 84/104/26 82/102/26
f 89/113/27 87/110/27 88/112/27 92/116/27
f 87/109/28 85/105/28 86/107/28 88/111/28
f 85/106/29 90/114/29 91/115/29 86/108/29
f 89/113/30 90/114/30 85/106/30 87/110/30
f 88/112/31 86/108/31 91/115/31 92/116/31
f 94/118/32 90/114/32 89/113/32 93/117/32
f 95/119/33 91/115/33 90/114/33 94/118/33
f 96/120/34 92/116/34 91/115/34 95/119/34
f 93/117/35 89/113/35 92/116/35 96/120/35
f 81/101/36 94/118/36 93/117/36 83/103/36
f 82/102/37 95/119/37 94/118/37 81/101/37
f 84/104/38 96/120/38 95/119/38 82/102/38
f 83/103/39 93/117/39 96/120/39 84/104/39
f 97/121/26 99/123/26 100/124/26 98/122/26
f 105/133/40 103/130/40 104/132/40 108/136/40
f 103/129/28 101/125/28 102/127/28 104/131/28
f 101/126/29 106/134/29 107/135/29 102/128/29
f 105/133/30 106/134/30 101/126/30 103/130/30
f 104/132/31 102/128/31 107/135/31 108/136/31
f 110/138/41 106/134/41 105/133/41 109/137/41
f 111/139/33 107/135/33 106/134/33 110/138/33
f 112/140/42 108/136/42 107/135/42 111/139/42
f 109/137/35 105/133/35 108/136/35 112/140/35
f 97/121/43 110/138/43 109/137/43 99/123/43
f 98/122/37 111/139/37 110/138/37 97/121/37
f 100/124/44 112/140/44 111/139/44 98/122/44
f 99/123/39 109/137/39 112/140/39 100/124/39
f 113/141/26 115/143/26 116/144/26 114/142/26
f 121/153/40 119/150/40 120/152/40 124/156/40
f 119/149/28 117/145/28 118/147/28 120/151/28
f 117/146/29 122/154/29 123/155/29 118/148/29
f 121/153/30 122/154/30 117/146/30 119/150/30
f 120/152/31 118/148/31 123/155/31 124/156/31
f 126/158/41 122/154/41 121/153/41 125/157/41
f 127/159/33 123/155/33 122/154/33 126/158/33
f 128/160/34 124/156/34 123/155/34 127/159/34
f 125/157/35 121/153/35 124/156/35 128/160/35
f 113/141/43 126/158/43 125/157/43 115/143/43
f 114/142/37 127/159/37 126/158/37 113/141/37
f 116/144/44 128/160/44 127/159/44 114/142/44
f 115/143/39 125/157/39 128/160/39 116/144/39
f 129/161/26 131/163/26 132/164/26 130/162/26
f 137/173/40 135/170/40 136/172/40 140/176/40
f 135/169/28 133/165/28 134/167/28 136/171/28
f 133/166/29 138/174/29 139/175/29 134/168/29
f 137/173/30 138/174/30 133/166/30 135/170/30
f 136/172/31 134/168/31 139/175/31 140/176/31
f 142/178/41 138/174/41 137/173/41 141/177/41
f 143/179/45 139/175/45 138/174/45 142/178/45
f 144/180/34 140/176/34 139/175/34 143/179/34
f 141/177/35 137/173/35 140/176/35 144/180/35
f 129/161/46 142/178/46 141/177/46 131/163/46
f 130/162/37 143/179/37 142/178/37 129/161/37
f 132/164/47 144/180/47 143/179/47 130/162/47
f 131/163/39 141/177/39 144/180/39 132/164/39
f 145/181/26 147/183/26 148/184/26 146/182/26
f 153/193/40 151/190/40 152/192/40 156/196/40
f 151/189/28 149/185/28 150/187/28 152/191/28
f 149/186/48 154/194/48 155/195/48 150/188/48
f 153/193/30 154/194/30 149/186/30 151/190/30
f 152/192/31 150/188/31 155/195/31 156/196/31
f 158/198/32 154/194/32 153/193/32 157/197/32
f 159/199/33 155/195/33 154/194/33 158/198/33
f 160/200/34 156/196/34 155/195/34 159/199/34
f 157/197/35 153/193/35 156/196/35 160/200/35
f 145/181/36 158/198/36 157/197/36 147/183/36
f 146/182/37 159/199/37 158/198/37 145/181/37
f 148/184/44 160/200/44 159/199/44 146/182/44
f 147/183/39 157/197/39 160/200/39 148/184/39
