# Blender 3.4.1
# www.blender.org
mtllib capacity_circle.mtl
o capacity_circle
v 0.000000 -1.478871 -0.000000
v 0.000000 1.455461 -0.639227
v 0.452001 1.455461 -0.452001
v 0.639227 1.455461 0.000000
v 0.452001 1.455461 0.452001
v 0.000000 1.455461 0.639227
v -0.452001 1.455461 0.452001
v -0.639227 1.455461 0.000000
v -0.452001 1.455461 -0.452001
v 0.000000 -1.240649 -0.935220
v 0.661301 -1.240649 -0.661301
v 0.935220 -1.240649 -0.000000
v 0.661301 -1.240649 0.661301
v 0.000000 -1.240649 0.935220
v -0.661301 -1.240649 0.661301
v -0.935220 -1.240649 -0.000000
v -0.661301 -1.240649 -0.661301
v 0.000000 -1.377012 -0.745907
v 0.527436 -1.377012 -0.527436
v 0.745907 -1.377012 -0.000000
v 0.527436 -1.377012 0.527436
v 0.000000 -1.377012 0.745907
v -0.527436 -1.377012 0.527436
v -0.745907 -1.377012 -0.000000
v -0.527436 -1.377012 -0.527436
v 0.000000 -1.478871 -0.378357
v 0.267539 -1.478871 -0.267539
v 0.378357 -1.478871 -0.000000
v 0.267539 -1.478871 0.267539
v 0.000000 -1.478871 0.378357
v -0.267539 -1.478871 0.267539
v -0.378357 -1.478871 -0.000000
v -0.267539 -1.478871 -0.267539
v 0.661301 1.240649 -0.661301
v 0.000000 1.240649 -0.935220
v 0.935220 1.240649 0.000000
v 0.661301 1.240649 0.661301
v 0.000000 1.240649 0.935220
v -0.661301 1.240649 0.661301
v -0.935220 1.240649 0.000000
v -0.661301 1.240649 -0.661301
v 0.559658 1.400312 -0.559658
v 0.000000 1.400312 -0.791475
v 0.791475 1.400312 0.000000
v 0.559658 1.400312 0.559658
v 0.000000 1.400312 0.791475
v -0.559658 1.400312 0.559658
v -0.791475 1.400312 0.000000
v -0.559658 1.400312 -0.559658
v 0.452001 -0.676334 -0.452001
v 0.000000 -0.676334 -0.639227
v 0.639227 -0.676334 -0.000000
v 0.452001 -0.676334 0.452001
v 0.000000 -0.676334 0.639227
v -0.452002 -0.676334 0.452001
v -0.639227 -0.676334 -0.000000
v -0.452002 -0.676334 -0.452001
v 1.133267 1.978485 -0.884888
v 1.133267 3.978485 -0.835976
v 0.626433 1.978485 -0.884888
v 0.626433 3.978485 -0.835976
v 1.133267 1.978485 -1.207548
v 1.133267 3.978485 -1.624257
v 0.626433 1.978485 -1.207548
v 0.626433 3.978485 -1.624257
v 1.133267 2.719226 -0.835977
v 0.626433 2.719226 -0.835977
v 0.626433 2.719226 -1.765701
v 1.133267 2.719226 -1.765701
v -1.133267 1.978485 -0.884888
v -1.133267 3.978486 -0.835976
v -0.626433 1.978485 -0.884888
v -0.626433 3.978486 -0.835976
v -1.133267 1.978485 -1.207548
v -1.133267 3.978486 -1.624257
v -0.626433 1.978485 -1.207548
v -0.626433 3.978486 -1.624257
v -1.133267 2.719226 -0.835977
v -0.626433 2.719226 -0.835977
v -0.626433 2.719226 -1.765701
v -1.133267 2.719226 -1.765701
v 0.731632 0.281824 0.522721
v 0.731632 -0.081847 0.372083
v 0.731632 -0.232485 0.008411
v 0.731632 -0.081847 -0.355260
v 0.964230 0.413395 -0.451400
v 0.769010 0.413395 -0.451399
v 0.964230 0.513925 -0.409758
v 0.769010 0.513925 -0.409758
v 0.731632 0.796133 0.008411
v 0.731632 0.645496 0.372083
v 0.731632 0.281824 -0.505898
v 1.001608 0.281824 0.008411
v 0.731632 0.645496 -0.355260
v 0.769010 0.488765 -0.633359
v 0.964230 0.488765 -0.633359
v 0.964230 0.589295 -0.591718
v 0.769010 0.589295 -0.591718
v 0.769010 0.690446 -0.852299
v 0.964230 0.690446 -0.852299
v 0.964230 0.748266 -0.760119
v 0.769010 0.748266 -0.760119
v 0.769009 0.928544 -0.997140
v 0.964230 0.928544 -0.997140
v 0.964230 0.948390 -0.890152
v 0.769009 0.948390 -0.890152
v 0.769009 1.295753 -1.063771
v 0.964230 1.295753 -1.063771
v 0.964230 1.290427 -0.955087
v 0.769009 1.290427 -0.955087
v 0.769009 2.113221 -1.023710
v 0.964230 2.113221 -1.023710
v 0.964230 2.107895 -0.915027
v 0.769009 2.107895 -0.915027
v -0.731631 0.281824 0.522721
v -0.731631 -0.081847 0.372083
v -0.731631 -0.232485 0.008411
v -0.731631 -0.081847 -0.355260
v -0.964229 0.413395 -0.451399
v -0.769009 0.413395 -0.451399
v -0.964229 0.513925 -0.409758
v -0.769009 0.513925 -0.409758
v -0.731631 0.796133 0.008411
v -0.731631 0.645496 0.372083
v -0.731631 0.281824 -0.505898
v -1.001607 0.281824 0.008411
v -0.731631 0.645496 -0.355260
v -0.769009 0.488765 -0.633359
v -0.964229 0.488765 -0.633359
v -0.964229 0.589295 -0.591718
v -0.769009 0.589295 -0.591718
v -0.769009 0.690446 -0.852299
v -0.964229 0.690446 -0.852299
v -0.964229 0.748266 -0.760119
v -0.769009 0.748266 -0.760119
v -0.769009 0.928544 -0.997140
v -0.964229 0.928544 -0.997140
v -0.964229 0.948390 -0.890152
v -0.769009 0.948390 -0.890151
v -0.769009 1.295753 -1.063770
v -0.964229 1.295753 -1.063771
v -0.964229 1.290427 -0.955087
v -0.769009 1.290427 -0.955087
v -0.769008 2.113221 -1.023710
v -0.964229 2.113221 -1.023710
v -0.964229 2.107895 -0.915027
v -0.769009 2.107895 -0.915027
v 1.001608 0.281824 0.522721
v 1.001608 -0.081847 0.372083
v 1.001608 -0.232485 0.008411
v 1.001608 -0.081847 -0.355260
v 1.001608 0.281824 -0.505898
v 1.001608 0.645496 -0.355260
v 1.001608 0.796133 0.008411
v 1.001608 0.645496 0.372083
v -1.001607 0.281824 0.522721
v -1.001607 -0.081847 0.372083
v -1.001607 -0.232485 0.008411
v -1.001607 -0.081847 -0.355260
v -1.001607 0.281824 -0.505898
v -1.001607 0.645496 -0.355260
v -1.001607 0.796133 0.008411
v -1.001607 0.645496 0.372083
v 0.000000 0.834633 0.000000
v -0.648872 0.834632 -0.648872
v 0.000000 0.834632 -0.917642
v -0.917642 0.834632 0.000000
v -0.648872 0.834632 0.648872
v 0.000000 0.834632 0.917642
v 0.648872 0.834632 0.648872
v 0.917642 0.834632 0.000000
v 0.648872 0.834632 -0.648872
vn -0.9239 -0.0000 0.3827
vn 0.3827 -0.0000 -0.9239
vn 0.9239 -0.0000 0.3827
vn -0.3827 -0.0000 -0.9239
vn 0.9239 -0.0000 -0.3827
vn -0.3827 -0.0000 0.9239
vn 0.3827 -0.0000 0.9239
vn -0.9239 -0.0000 -0.3827
vn 0.2353 -0.7886 -0.5681
vn 0.5681 -0.7886 -0.2353
vn 0.5681 -0.7886 0.2353
vn 0.2353 -0.7886 0.5681
vn -0.2353 -0.7886 0.5681
vn -0.5681 -0.7886 0.2353
vn -0.5681 -0.7886 -0.2353
vn -0.2353 -0.7886 -0.5681
vn 0.1100 -0.9578 -0.2654
vn 0.2654 -0.9578 -0.1100
vn 0.2654 -0.9578 0.1100
vn 0.1100 -0.9578 0.2654
vn -0.1100 -0.9578 0.2654
vn -0.2654 -0.9578 0.1100
vn -0.2654 -0.9578 -0.1100
vn -0.1100 -0.9578 -0.2654
vn -0.0000 -1.0000 -0.0000
vn 0.2942 0.6395 -0.7103
vn 0.7103 0.6395 -0.2942
vn 0.7103 0.6395 0.2942
vn 0.2942 0.6395 0.7103
vn -0.2942 0.6395 0.7103
vn -0.7103 0.6395 0.2942
vn -0.7103 0.6395 -0.2942
vn -0.2942 0.6395 -0.7103
vn 0.1397 0.9310 -0.3372
vn 0.3372 0.9310 -0.1397
vn 0.3372 0.9310 0.1397
vn 0.1397 0.9310 0.3372
vn -0.1397 0.9310 0.3372
vn -0.3372 0.9310 0.1397
vn -0.3372 0.9310 -0.1397
vn -0.1397 0.9310 -0.3372
vn -0.0000 -0.0000 1.0000
vn -1.0000 -0.0000 -0.0000
vn -0.0000 0.1116 -0.9938
vn 1.0000 -0.0000 -0.0000
vn -0.0000 1.0000 -0.0000
vn -0.0000 -0.6018 -0.7987
vn -0.0000 -0.0659 0.9978
vn -0.0000 -0.3827 0.9239
vn -0.0000 -0.9239 0.3827
vn -0.0000 -0.9239 -0.3827
vn -0.0000 -0.3827 -0.9239
vn -0.0000 0.9239 -0.3827
vn -0.0000 0.9239 0.3827
vn -0.0000 0.3827 0.9239
vn -0.0000 0.3827 -0.9239
vn -0.0000 0.5448 0.8385
vn -0.0000 -0.7355 -0.6775
vn -0.0000 0.7272 0.6865
vn -0.0000 -0.5197 -0.8543
vn -0.0000 -0.1785 -0.9839
vn -0.0000 0.1865 0.9825
vn -0.0000 0.9988 0.0489
vn -0.0000 0.0489 -0.9988
vn -0.0000 -0.0489 0.9988
vt 0.441316 0.403338
vt 0.359522 0.628119
vt 0.605716 0.564122
vt 0.556478 0.564374
vt 0.398156 0.666785
vt 0.676962 0.544644
vt 0.452792 0.666808
vt 0.727464 0.544644
vt 0.491425 0.628175
vt 0.110745 0.310614
vt 0.777967 0.544644
vt 0.491425 0.573516
vt 0.060242 0.308128
vt 0.452792 0.534850
vt 0.556478 0.544644
vt 0.009739 0.310614
vt 0.398156 0.534827
vt 0.606981 0.544644
vt 0.359523 0.573460
vt 0.657322 0.564314
vt 0.657483 0.544644
vt 0.083627 0.288650
vt 0.344011 0.363055
vt 0.157515 0.285014
vt 0.324769 0.009739
vt 0.400536 0.306487
vt 0.250881 0.009739
vt 0.480475 0.306456
vt 0.176994 0.009739
vt 0.176994 0.583767
vt 0.537000 0.362981
vt 0.537000 0.442950
vt 0.252495 0.584047
vt 0.344248 0.286978
vt 0.480475 0.499519
vt 0.324533 0.583679
vt 0.418136 0.286978
vt 0.400536 0.499550
vt 0.009739 0.285014
vt 0.492024 0.286978
vt 0.344011 0.443025
vt 0.364008 0.371334
vt 0.409091 0.326216
vt 0.472848 0.326192
vt 0.517931 0.371275
vt 0.517931 0.435056
vt 0.472848 0.480174
vt 0.409091 0.480198
vt 0.364008 0.435115
vt 0.402278 0.387177
vt 0.425146 0.364291
vt 0.457486 0.364279
vt 0.480354 0.387147
vt 0.480354 0.419500
vt 0.457486 0.442386
vt 0.425146 0.442398
vt 0.402278 0.419530
vt 0.157515 0.009739
vt 0.324769 0.286978
vt 0.303988 0.926346
vt 0.103686 0.957310
vt 0.083627 0.013376
vt 0.300351 0.852458
vt 0.250881 0.286978
vt 0.103686 0.883422
vt 0.176994 0.286978
vt 0.176994 0.306545
vt 0.103686 0.809534
vt 0.753232 0.807063
vt 0.752908 0.882565
vt 0.252495 0.306824
vt 0.344248 0.009739
vt 0.753233 0.954602
vt 0.943656 0.954881
vt 0.324533 0.306456
vt 0.418136 0.009739
vt 0.943656 0.880993
vt 0.009739 0.009739
vt 0.492024 0.009739
vt 0.943656 0.807105
vt 0.303988 0.778570
vt 0.323050 0.914990
vt 0.085847 0.945953
vt 0.391846 0.682416
vt 0.319972 0.852458
vt 0.344011 0.634540
vt 0.085847 0.883422
vt 0.459495 0.682444
vt 0.085847 0.820891
vt 0.771191 0.817770
vt 0.507330 0.634610
vt 0.770916 0.881667
vt 0.507330 0.566932
vt 0.771191 0.942632
vt 0.925816 0.943524
vt 0.459495 0.519057
vt 0.925816 0.880993
vt 0.391846 0.519028
vt 0.925816 0.818462
vt 0.323050 0.789927
vt 0.344011 0.566863
vt 0.556478 0.802549
vt 0.676962 0.306456
vt 0.605716 0.802297
vt 0.727464 0.306456
vt 0.110745 0.547115
vt 0.777967 0.306456
vt 0.060242 0.544629
vt 0.556478 0.306456
vt 0.009739 0.547115
vt 0.606981 0.306456
vt 0.657322 0.802488
vt 0.657483 0.306456
vt 0.567012 0.275313
vt 0.275408 0.826988
vt 0.856891 0.564122
vt 0.856891 0.787515
vt 0.280873 0.603526
vt 0.009739 0.897557
vt 0.567012 0.218684
vt 0.818748 0.009739
vt 0.800352 0.564235
vt 0.800352 0.787627
vt 0.824213 0.233202
vt 0.066368 0.897557
vt 0.603044 0.275313
vt 0.239357 0.826988
vt 0.400640 0.918270
vt 0.400640 0.701923
vt 0.192797 0.603526
vt 0.009739 0.809534
vt 0.603044 0.218684
vt 0.344011 0.918270
vt 0.782697 0.009739
vt 0.736137 0.233202
vt 0.344011 0.701923
vt 0.066368 0.809534
vt 0.280873 0.744224
vt 0.856696 0.646824
vt 0.824213 0.092503
vt 0.800158 0.646936
vt 0.344011 0.843502
vt 0.720334 0.092503
vt 0.176993 0.744224
vt 0.400640 0.843502
vt 0.511502 0.218684
vt 0.775214 0.564123
vt 0.797640 0.306568
vt 0.797640 0.529961
vt 0.780679 0.787585
vt 0.733429 0.895086
vt 0.511502 0.275313
vt 0.108154 0.790056
vt 0.854179 0.306456
vt 0.854179 0.529848
vt 0.113618 0.566593
vt 0.676800 0.895086
vt 0.547534 0.218684
vt 0.739163 0.564122
vt 0.843691 0.226087
vt 0.843691 0.009739
vt 0.692604 0.787585
vt 0.733429 0.807063
vt 0.547534 0.275313
vt 0.900320 0.226087
vt 0.072102 0.790056
vt 0.025543 0.566593
vt 0.900320 0.009739
vt 0.676800 0.807063
vt 0.780679 0.646886
vt 0.797445 0.389270
vt 0.113618 0.707292
vt 0.853984 0.389158
vt 0.900320 0.151319
vt 0.009739 0.707292
vt 0.676800 0.646886
vt 0.843691 0.151319
vt 0.556478 0.862498
vt 0.557431 0.822045
vt 0.420119 0.908804
vt 0.420119 0.868748
vt 0.420119 0.827582
vt 0.974575 0.564122
vt 0.982431 0.506824
vt 0.948587 0.617788
vt 0.622522 0.218684
vt 0.970399 0.617788
vt 0.917103 0.564122
vt 0.644334 0.218684
vt 0.990261 0.497522
vt 0.948587 0.629494
vt 0.843691 0.285592
vt 0.970399 0.629494
vt 0.924932 0.573424
vt 0.865503 0.285592
vt 0.207158 0.886494
vt 0.207158 0.927685
vt 0.557431 0.903308
vt 0.974575 0.602468
vt 0.473209 0.755013
vt 0.207158 0.846466
vt 0.974575 0.644814
vt 0.900267 0.578293
vt 0.644334 0.239281
vt 0.622522 0.239281
vt 0.965596 0.492653
vt 0.843691 0.264983
vt 0.973425 0.483352
vt 0.908096 0.587595
vt 0.865503 0.264983
vt 0.644334 0.264473
vt 0.883757 0.607166
vt 0.133097 0.893856
vt 0.622522 0.264473
vt 0.949086 0.463780
vt 0.154909 0.893856
vt 0.131064 0.460219
vt 0.843691 0.245565
vt 0.960856 0.460734
vt 0.152841 0.460346
vt 0.865503 0.245565
vt 0.895527 0.610212
vt 0.876369 0.637415
vt 0.133097 0.869364
vt 0.154909 0.869364
vt 0.941698 0.433531
vt 0.130387 0.437702
vt 0.953763 0.435029
vt 0.888434 0.635917
vt 0.152164 0.437829
vt 0.881670 0.678776
vt 0.133097 0.829511
vt 0.154909 0.829511
vt 0.946999 0.392171
vt 0.130223 0.399409
vt 0.958395 0.396407
vt 0.893066 0.674539
vt 0.152000 0.399536
vt 0.913536 0.764490
vt 0.751969 0.252680
vt 0.133097 0.738289
vt 0.751969 0.274492
vt 0.154909 0.738289
vt 0.978865 0.306456
vt 0.764125 0.274492
vt 0.131064 0.308129
vt 0.990261 0.310693
vt 0.924932 0.760254
vt 0.764125 0.252680
vt 0.152841 0.308256
vt 0.637142 0.862480
vt 0.638095 0.822027
vt 0.499926 0.908804
vt 0.499926 0.868748
vt 0.499927 0.827582
vt 0.974575 0.744983
vt 0.960532 0.009739
vt 0.948587 0.691318
vt 0.130223 0.525614
vt 0.970399 0.691318
vt 0.914390 0.506824
vt 0.152035 0.525614
vt 0.968361 0.019041
vt 0.948587 0.679612
vt 0.685625 0.258711
vt 0.970399 0.679612
vt 0.922220 0.497522
vt 0.663813 0.258711
vt 0.226637 0.886494
vt 0.226637 0.927685
vt 0.638095 0.903290
vt 0.974575 0.706638
vt 0.853248 0.860195
vt 0.226637 0.846466
vt 0.974575 0.664292
vt 0.897555 0.492653
vt 0.152035 0.505017
vt 0.130223 0.505017
vt 0.943697 0.023910
vt 0.685625 0.238101
vt 0.951526 0.033211
vt 0.905384 0.483352
vt 0.663813 0.238101
vt 0.152035 0.479825
vt 0.881045 0.463780
vt 0.322163 0.759092
vt 0.130223 0.479825
vt 0.927187 0.052783
vt 0.300351 0.759092
vt 0.155715 0.718811
vt 0.685625 0.218684
vt 0.938957 0.055829
vt 0.133938 0.718684
vt 0.663813 0.218684
vt 0.892815 0.460734
vt 0.873657 0.433531
vt 0.322163 0.734600
vt 0.300351 0.734600
vt 0.919799 0.083032
vt 0.155038 0.696294
vt 0.931864 0.081534
vt 0.885722 0.435030
vt 0.133261 0.696167
vt 0.878958 0.392171
vt 0.322163 0.694747
vt 0.300351 0.694747
vt 0.925100 0.124392
vt 0.154874 0.658001
vt 0.936496 0.120156
vt 0.890354 0.396407
vt 0.133097 0.657874
vt 0.910824 0.306456
vt 0.732490 0.252680
vt 0.322163 0.603525
vt 0.732490 0.274492
vt 0.300351 0.603525
vt 0.956966 0.210107
vt 0.720334 0.274492
vt 0.155715 0.566720
vt 0.968361 0.205870
vt 0.922220 0.310693
vt 0.720334 0.252680
vt 0.133938 0.566593
vt 0.586595 0.862480
vt 0.495199 0.701923
vt 0.587547 0.822027
vt 0.450283 0.908804
vt 0.526299 0.733022
vt 0.450283 0.868748
vt 0.526299 0.777004
vt 0.450283 0.827582
vt 0.944410 0.564122
vt 0.495199 0.808103
vt 0.944410 0.602468
vt 0.451218 0.808103
vt 0.176993 0.846466
vt 0.944410 0.644814
vt 0.420119 0.777004
vt 0.176993 0.886494
vt 0.420119 0.733022
vt 0.176993 0.927685
vt 0.587547 0.903289
vt 0.451218 0.701923
vt 0.607026 0.862498
vt 0.875238 0.913286
vt 0.607978 0.822045
vt 0.469762 0.908804
vt 0.906338 0.882186
vt 0.469762 0.868748
vt 0.906338 0.838205
vt 0.469762 0.827582
vt 0.944410 0.744983
vt 0.875238 0.807105
vt 0.944410 0.706638
vt 0.831257 0.807105
vt 0.256801 0.846466
vt 0.944410 0.664292
vt 0.800158 0.838205
vt 0.256801 0.886494
vt 0.800158 0.882186
vt 0.256801 0.927685
vt 0.607978 0.903308
vt 0.831257 0.913286
vt 0.606179 0.104472
vt 0.645395 0.199172
vt 0.700855 0.143665
vt 0.566962 0.199205
vt 0.511502 0.143745
vt 0.511502 0.065280
vt 0.566962 0.009772
vt 0.645395 0.009739
vt 0.700855 0.065199
s 0
usemtl defaultMat.004
f 15/34/1 39/72/1 40/76/1 16/37/1
f 10/22/2 35/62/2 34/58/2 11/24/2
f 12/27/3 36/64/3 37/66/3 13/29/3
f 17/39/4 41/78/4 35/62/4 10/22/4
f 11/25/5 34/59/5 36/64/5 12/27/5
f 3/4/6 2/3/6 51/104/6 50/102/6
f 13/30/7 37/67/7 38/71/7 14/33/7
f 16/37/8 40/76/8 41/79/8 17/40/8
f 19/43/9 18/42/9 10/23/9 11/26/9
f 20/44/10 19/43/10 11/26/10 12/28/10
f 21/45/11 20/44/11 12/28/11 13/31/11
f 22/46/12 21/45/12 13/31/12 14/32/12
f 23/47/13 22/46/13 14/32/13 15/35/13
f 24/48/14 23/47/14 15/35/14 16/38/14
f 25/49/15 24/48/15 16/38/15 17/41/15
f 18/42/16 25/49/16 17/41/16 10/23/16
f 27/51/17 26/50/17 18/42/17 19/43/17
f 28/52/18 27/51/18 19/43/18 20/44/18
f 29/53/19 28/52/19 20/44/19 21/45/19
f 30/54/20 29/53/20 21/45/20 22/46/20
f 31/55/21 30/54/21 22/46/21 23/47/21
f 32/56/22 31/55/22 23/47/22 24/48/22
f 33/57/23 32/56/23 24/48/23 25/49/23
f 26/50/24 33/57/24 25/49/24 18/42/24
f 1/1/25 26/50/25 27/51/25
f 1/1/25 27/51/25 28/52/25
f 1/1/25 28/52/25 29/53/25
f 1/1/25 29/53/25 30/54/25
f 1/1/25 30/54/25 31/55/25
f 1/1/25 31/55/25 32/56/25
f 1/1/25 32/56/25 33/57/25
f 1/1/25 33/57/25 26/50/25
f 43/85/26 42/82/26 34/60/26 35/63/26
f 42/83/27 44/87/27 36/65/27 34/61/27
f 44/87/28 45/89/28 37/68/28 36/65/28
f 45/90/29 46/92/29 38/70/29 37/69/29
f 46/92/30 47/94/30 39/73/30 38/70/30
f 47/95/31 48/97/31 40/77/31 39/74/31
f 48/97/32 49/99/32 41/80/32 40/77/32
f 49/100/33 43/85/33 35/63/33 41/81/33
f 2/2/34 3/5/34 42/84/34 43/86/34
f 3/5/35 4/7/35 44/88/35 42/84/35
f 4/7/36 5/9/36 45/91/36 44/88/36
f 5/9/37 6/12/37 46/93/37 45/91/37
f 6/12/38 7/14/38 47/96/38 46/93/38
f 7/14/39 8/17/39 48/98/39 47/96/39
f 8/17/40 9/19/40 49/101/40 48/98/40
f 9/19/41 2/2/41 43/86/41 49/101/41
f 2/3/7 9/20/7 57/112/7 51/104/7
f 8/18/5 7/15/5 55/109/5 56/111/5
f 6/13/4 5/10/4 53/106/4 54/108/4
f 4/8/1 3/6/1 50/103/1 52/105/1
f 9/21/3 8/18/3 56/111/3 57/113/3
f 7/16/2 6/13/2 54/108/2 55/110/2
f 5/11/8 4/8/8 52/105/8 53/107/8
f 66/139/42 59/117/42 61/123/42 67/141/42
f 67/140/43 61/124/43 65/135/43 68/143/43
f 68/142/44 65/136/44 63/129/44 69/145/44
f 69/144/45 63/130/45 59/118/45 66/138/45
f 60/120/25 64/132/25 62/126/25 58/114/25
f 65/137/46 61/125/46 59/119/46 63/131/46
f 62/127/45 69/144/45 66/138/45 58/115/45
f 64/133/47 68/142/47 69/145/47 62/128/47
f 60/121/43 67/140/43 68/143/43 64/134/43
f 58/116/48 66/139/48 67/141/48 60/122/48
f 78/171/42 79/173/42 73/155/42 71/149/42
f 79/172/45 80/175/45 77/167/45 73/156/45
f 80/174/44 81/177/44 75/161/44 77/168/44
f 81/176/43 78/170/43 71/150/43 75/162/43
f 72/152/25 70/146/25 74/158/25 76/164/25
f 77/169/46 75/163/46 71/151/46 73/157/46
f 74/159/43 70/147/43 78/170/43 81/176/43
f 76/165/47 74/160/47 81/177/47 80/174/47
f 72/153/45 76/166/45 80/175/45 79/172/45
f 70/148/48 72/154/48 79/173/48 78/171/48
f 148/324/49 82/178/49 83/179/49 149/326/49
f 149/327/50 83/180/50 84/181/50 150/329/50
f 150/329/51 84/181/51 85/182/51 151/331/51
f 151/332/52 85/183/52 92/199/52 152/334/52
f 88/190/45 86/184/45 96/206/45 97/208/45
f 153/336/53 94/201/53 90/196/53 154/339/53
f 154/339/54 90/196/54 91/197/54 155/341/54
f 155/342/55 91/198/55 82/178/55 148/324/55
f 87/187/56 86/185/56 152/334/56 92/199/56
f 86/185/56 88/191/56 153/337/56 152/334/56
f 89/193/56 87/187/56 92/199/56 94/202/56
f 88/191/56 89/193/56 94/202/56 153/337/56
f 95/203/43 98/209/43 102/222/43 99/212/43
f 87/188/43 89/194/43 98/209/43 95/203/43
f 86/186/51 87/189/51 95/204/51 96/205/51
f 89/195/54 88/192/54 97/207/54 98/210/54
f 102/220/57 101/217/57 105/227/57 106/230/57
f 96/205/58 95/204/58 99/211/58 100/214/58
f 98/210/59 97/207/59 101/218/59 102/221/59
f 97/208/45 96/206/45 100/215/45 101/219/45
f 103/223/43 106/229/43 110/237/43 107/231/43
f 101/219/45 100/215/45 104/226/45 105/228/45
f 99/212/43 102/222/43 106/229/43 103/223/43
f 100/216/60 99/213/60 103/224/60 104/225/60
f 107/231/43 110/237/43 114/248/43 111/239/43
f 104/225/61 103/224/61 107/232/61 108/233/61
f 106/230/62 105/227/62 109/235/62 110/238/62
f 105/228/45 104/226/45 108/234/45 109/236/45
f 112/242/63 111/240/63 114/249/63 113/245/63
f 108/233/64 107/232/64 111/241/64 112/243/64
f 110/238/65 109/235/65 113/246/65 114/250/65
f 109/236/45 108/234/45 112/244/45 113/247/45
f 156/344/49 157/346/49 116/252/49 115/251/49
f 157/347/50 158/349/50 117/254/50 116/253/50
f 158/349/51 159/351/51 118/255/51 117/254/51
f 159/352/52 160/354/52 125/272/52 118/256/52
f 121/263/43 130/281/43 129/279/43 119/257/43
f 161/356/53 162/359/53 123/269/53 127/274/53
f 162/359/54 163/361/54 124/270/54 123/269/54
f 163/362/55 156/344/55 115/251/55 124/271/55
f 120/260/56 125/272/56 160/354/56 119/258/56
f 119/258/56 160/354/56 161/357/56 121/264/56
f 122/266/56 127/275/56 125/272/56 120/260/56
f 121/264/56 161/357/56 127/275/56 122/266/56
f 128/276/45 132/285/45 135/295/45 131/282/45
f 120/261/45 128/276/45 131/282/45 122/267/45
f 119/259/51 129/278/51 128/277/51 120/262/51
f 122/268/54 131/283/54 130/280/54 121/265/54
f 135/293/57 139/303/57 138/300/57 134/290/57
f 129/278/58 133/287/58 132/284/58 128/277/58
f 131/283/59 135/294/59 134/291/59 130/280/59
f 130/281/43 134/292/43 133/288/43 129/279/43
f 136/296/45 140/304/45 143/310/45 139/302/45
f 134/292/43 138/301/43 137/299/43 133/288/43
f 132/285/45 136/296/45 139/302/45 135/295/45
f 133/289/60 137/298/60 136/297/60 132/286/60
f 140/304/45 144/312/45 147/321/45 143/310/45
f 137/298/61 141/306/61 140/305/61 136/297/61
f 139/303/62 143/311/62 142/308/62 138/300/62
f 138/301/43 142/309/43 141/307/43 137/299/43
f 145/315/63 146/318/63 147/322/63 144/313/63
f 141/306/64 145/316/64 144/314/64 140/305/64
f 143/311/65 147/323/65 146/319/65 142/308/65
f 142/309/43 146/320/43 145/317/43 141/307/43
f 93/200/45 148/325/45 149/328/45
f 93/200/45 149/328/45 150/330/45
f 93/200/45 150/330/45 151/333/45
f 93/200/45 151/333/45 152/335/45
f 93/200/45 152/335/45 153/338/45
f 93/200/45 153/338/45 154/340/45
f 93/200/45 154/340/45 155/343/45
f 93/200/45 155/343/45 148/325/45
f 126/273/43 157/348/43 156/345/43
f 126/273/43 158/350/43 157/348/43
f 126/273/43 159/353/43 158/350/43
f 126/273/43 160/355/43 159/353/43
f 126/273/43 161/358/43 160/355/43
f 126/273/43 162/360/43 161/358/43
f 126/273/43 163/363/43 162/360/43
f 126/273/43 156/345/43 163/363/43
f 164/364/46 166/366/46 165/365/46
f 164/364/46 165/365/46 167/367/46
f 164/364/46 167/367/46 168/368/46
f 164/364/46 168/368/46 169/369/46
f 164/364/46 169/369/46 170/370/46
f 164/364/46 170/370/46 171/371/46
f 164/364/46 171/371/46 172/372/46
f 164/364/46 172/372/46 166/366/46
f 14/33/6 38/71/6 39/75/6 15/36/6
