# Blender 3.4.1
# www.blender.org
mtllib Arena.mtl
o Arena.002
v -0.975842 0.097756 -2.578129
v -0.983248 0.097756 -3.377109
v -0.423520 0.097756 -3.947309
v -0.750904 0.097756 -2.673754
v -0.756576 0.097756 -3.285670
v -0.327895 0.097756 -3.722371
v -0.829018 0.097756 -2.640546
v -0.835292 0.097756 -3.317424
v -0.361103 0.097756 -3.800485
v -0.728186 0.072494 -2.945465
v -0.728825 0.072494 -3.014427
v -0.500070 0.072494 -3.510951
v -0.750904 0.115590 -2.673754
v -0.756576 0.115590 -3.285670
v -0.327895 0.115590 -3.722371
v -0.794564 0.072494 -3.013817
v -0.548383 0.072494 -3.461735
v -0.546986 0.072494 -3.557004
v -0.731245 0.115590 -3.275452
v -0.731245 0.007395 -3.275452
v -0.317210 0.115590 -3.697234
v -0.317210 0.007395 -3.697234
v -0.585536 0.072494 -2.454663
v -0.793925 0.072494 -2.944856
v -0.595298 0.072494 -3.507789
v -0.725767 0.115590 -2.684440
v -0.725767 0.007395 -2.684440
v -0.728186 0.007395 -2.945465
v -0.728825 0.007395 -3.014427
v -0.548383 0.007395 -3.461735
v -0.500070 0.007395 -3.510951
v -0.793925 0.007395 -2.944856
v -0.794564 0.007395 -3.013817
v -0.595298 0.007395 -3.507789
v -0.546986 0.007395 -3.557004
v -0.617121 0.007395 -3.229415
v -0.269065 0.007395 -3.583983
v -0.612516 0.007395 -2.732584
v -0.959319 -0.002001 -2.577312
v -0.966608 -0.002001 -3.363825
v -0.415614 -0.002000 -3.925129
v -0.269065 -0.000756 -3.583983
v -0.612520 -0.000275 -2.733078
v -0.617107 -0.000474 -3.227892
v -0.727379 0.086860 -2.858457
v -0.726573 0.101225 -2.771448
v -0.730438 0.007395 -3.188443
v -0.729632 0.007395 -3.101435
v -0.729632 0.086860 -3.101435
v -0.730438 0.101225 -3.188443
v -0.726573 0.007395 -2.771448
v -0.727379 0.007395 -2.858457
v -0.670291 0.007395 -3.337546
v -0.609337 0.007395 -3.399641
v -0.609337 0.086860 -3.399641
v -0.670291 0.101225 -3.337546
v -0.378163 0.007395 -3.635139
v -0.439117 0.007395 -3.573045
v -0.439117 0.086860 -3.573045
v -0.378163 0.101225 -3.635139
v -0.702852 0.007395 -3.263998
v -0.442599 0.007395 -3.529120
v -0.701034 0.007395 -3.067914
v -0.697591 0.007395 -2.696418
v -0.305232 0.007395 -3.669058
v -0.699408 0.007395 -2.892502
v -0.565484 0.007395 -3.403936
v -0.698197 0.007395 -2.761779
v -0.698802 0.007395 -2.827141
v -0.701640 0.007395 -3.133275
v -0.702246 0.007395 -3.198637
v -0.657063 0.007395 -3.310644
v -0.611273 0.007395 -3.357290
v -0.351021 0.007395 -3.622412
v -0.396810 0.007395 -3.575766
vn -0.0000 1.0000 -0.0000
vn -0.7136 -0.0000 -0.7005
vn -1.0000 -0.0000 0.0093
vn -0.0000 -1.0000 -0.0000
vn 1.0000 -0.0000 -0.0093
vn 0.7136 -0.0000 0.7005
vn -0.7005 -0.0000 0.7136
vn 0.7005 -0.0000 -0.7136
vn 0.0093 -0.0000 1.0000
vn -0.0093 -0.0000 -1.0000
vn 0.7128 0.0670 0.6982
vn -0.9865 -0.1633 0.0091
vn -0.6981 -0.2077 -0.6852
vt 0.784567 0.916671
vt 0.212444 0.009134
vt 0.766544 0.385660
vt 0.009134 0.499986
vt 0.784567 0.009134
vt 0.212444 0.990866
vt 0.327361 0.124068
vt 0.971865 0.416055
vt 0.171652 0.499997
vt 0.971905 0.722059
vt 0.971865 0.009134
vt 0.327361 0.875949
vt 0.971905 0.434324
vt 0.287454 0.084155
vt 0.115215 0.499993
vt 0.287454 0.915856
vt 0.407615 0.753598
vt 0.579724 0.779284
vt 0.913120 0.228574
vt 0.407615 0.799457
vt 0.684570 0.779284
vt 0.913120 0.182714
vt 0.389346 0.753598
vt 0.913120 0.543163
vt 0.960046 0.416055
vt 0.735432 0.009134
vt 0.960046 0.722059
vt 0.960046 0.009134
vt 0.579724 0.385064
vt 0.960046 0.434324
vt 0.735433 0.761015
vt 0.512888 0.753598
vt 0.451331 0.799457
vt 0.684570 0.823000
vt 0.389346 0.799458
vt 0.733751 0.779284
vt 0.913120 0.575591
vt 0.345630 0.753599
vt 0.913120 0.574075
vt 0.597885 0.385065
vt 0.941777 0.698333
vt 0.941777 0.009134
vt 0.869831 0.698333
vt 0.869831 0.009134
vt 0.345630 0.372221
vt 0.748275 0.748173
vt 0.941777 0.420423
vt 0.869831 0.420423
vt 0.496019 0.735329
vt 0.512888 0.799457
vt 0.451331 0.753598
vt 0.579724 0.823000
vt 0.345630 0.799458
vt 0.702839 0.779284
vt 0.913120 0.606503
vt 0.748275 0.021978
vt 0.941777 0.402154
vt 0.869831 0.402154
vt 0.496019 0.009134
vt 0.623012 0.779284
vt 0.869831 0.228574
vt 0.429599 0.169495
vt 0.641281 0.779284
vt 0.412051 0.211861
vt 0.869831 0.182714
vt 0.733751 0.822573
vt 0.869831 0.575591
vt 0.412051 0.532591
vt 0.869831 0.543163
vt 0.429599 0.574960
vt 0.469600 0.799457
vt 0.389214 0.152763
vt 0.623012 0.823000
vt 0.469600 0.753598
vt 0.371666 0.195129
vt 0.641281 0.823000
vt 0.702839 0.822573
vt 0.869831 0.606503
vt 0.371666 0.549317
vt 0.869831 0.574075
vt 0.389214 0.591686
vt 0.427453 0.372227
vt 0.553877 0.677471
vt 0.553877 0.067000
vt 0.851562 0.915042
vt 0.833820 0.392317
vt 0.851562 0.021666
vt 0.561455 0.668623
vt 0.561455 0.067677
vt 0.437004 0.368141
vt 0.922672 0.286434
vt 0.932225 0.344294
vt 0.869831 0.066994
vt 0.367770 0.318768
vt 0.869831 0.124854
vt 0.389910 0.265315
vt 0.922672 0.124854
vt 0.932225 0.066994
vt 0.869831 0.344294
vt 0.473879 0.062588
vt 0.869831 0.286434
vt 0.451739 0.116041
vt 0.869831 0.657419
vt 0.367770 0.425678
vt 0.869831 0.616505
vt 0.389910 0.479134
vt 0.922672 0.616505
vt 0.932225 0.657419
vt 0.869831 0.461336
vt 0.473879 0.681873
vt 0.869831 0.502250
vt 0.451739 0.628416
vt 0.922672 0.502250
vt 0.932225 0.461336
vt 0.365987 0.372223
vt 0.460518 0.600464
vt 0.415883 0.251759
vt 0.510414 0.023531
vt 0.510414 0.720935
vt 0.460518 0.143995
vt 0.415883 0.492694
vt 0.493782 0.063686
vt 0.477150 0.103840
vt 0.399251 0.291913
vt 0.382619 0.332068
vt 0.382619 0.412380
vt 0.399251 0.452537
vt 0.493782 0.680778
vt 0.477150 0.640621
s 0
usemtl defaultMat
f 5/9/1 8/15/1 7/14/1 4/7/1
f 6/12/1 9/16/1 8/15/1 5/9/1
f 5/10/2 14/27/2 15/30/2 6/13/2
f 4/8/3 13/25/3 14/28/3 5/11/3
f 19/40/1 14/29/1 13/26/1 26/56/1
f 21/46/1 15/31/1 14/29/1 19/40/1
f 17/35/4 25/53/4 18/38/4 12/23/4
f 46/92/5 26/57/5 27/58/5 51/99/5
f 56/108/6 19/41/6 20/43/6 53/103/6
f 50/98/5 19/42/5 26/57/5 46/92/5
f 60/114/6 21/47/6 19/41/6 56/108/6
f 12/24/7 18/39/7 35/80/7 31/69/7
f 16/32/5 24/50/5 32/71/5 33/74/5
f 30/66/8 34/77/8 25/54/8 17/36/8
f 10/17/4 24/51/4 16/33/4 11/20/4
f 18/39/6 25/55/6 34/78/6 35/80/6
f 50/98/5 47/93/5 20/44/5 19/42/5
f 60/114/6 57/109/6 22/48/6 21/47/6
f 29/64/1 33/75/1 32/72/1 28/62/1
f 31/70/1 35/81/1 34/79/1 30/68/1
f 11/21/9 16/34/9 33/76/9 29/63/9
f 28/60/10 32/73/10 24/52/10 10/18/10
f 37/83/11 36/82/11 44/90/11 42/88/11
f 36/82/5 38/84/5 43/89/5 44/90/5
f 68/122/1 51/100/1 27/59/1 64/118/1
f 72/126/1 53/104/1 20/45/1 61/115/1
f 63/117/1 29/64/1 28/62/1 66/120/1
f 70/124/1 48/96/1 29/64/1 63/117/1
f 62/116/1 31/70/1 30/68/1 67/121/1
f 75/129/1 62/116/1 37/83/1
f 1/1/12 2/3/12 40/86/12 39/85/12
f 2/3/13 3/5/13 41/87/13 40/86/13
f 9/16/1 3/6/1 2/4/1 8/15/1
f 8/15/1 2/4/1 1/2/1 7/14/1
f 11/22/5 29/65/5 48/95/5 49/97/5
f 49/97/5 48/95/5 47/93/5 50/98/5
f 11/22/5 49/97/5 45/91/5 10/19/5
f 49/97/5 50/98/5 46/92/5 45/91/5
f 10/19/5 45/91/5 52/101/5 28/61/5
f 45/91/5 46/92/5 51/99/5 52/101/5
f 12/24/6 31/69/6 58/111/6 59/113/6
f 59/113/6 58/111/6 57/109/6 60/114/6
f 12/24/6 59/113/6 55/107/6 17/37/6
f 59/113/6 60/114/6 56/108/6 55/107/6
f 17/37/6 55/107/6 54/105/6 30/67/6
f 55/107/6 56/108/6 53/103/6 54/105/6
f 69/123/1 68/122/1 38/84/1
f 66/120/1 69/123/1 38/84/1
f 71/125/1 70/124/1 36/82/1
f 61/115/1 71/125/1 36/82/1
f 73/127/1 72/126/1 36/82/1
f 67/121/1 73/127/1 36/82/1
f 65/119/1 74/128/1 37/83/1
f 74/128/1 75/129/1 37/83/1
f 57/110/1 58/112/1 75/129/1 74/128/1
f 22/49/1 57/110/1 74/128/1 65/119/1
f 30/68/1 54/106/1 73/127/1 67/121/1
f 54/106/1 53/104/1 72/126/1 73/127/1
f 20/45/1 47/94/1 71/125/1 61/115/1
f 47/94/1 48/96/1 70/124/1 71/125/1
f 28/62/1 52/102/1 69/123/1 66/120/1
f 52/102/1 51/100/1 68/122/1 69/123/1
f 58/112/1 31/70/1 62/116/1 75/129/1
f 37/83/1 62/116/1 67/121/1 36/82/1
f 36/82/1 70/124/1 63/117/1
f 36/82/1 63/117/1 66/120/1 38/84/1
f 36/82/1 72/126/1 61/115/1
f 38/84/1 68/122/1 64/118/1
