# Blender 3.4.1
# www.blender.org
mtllib basic.mtl
o basic
v 0.916724 0.070112 -0.489516
v 0.925333 0.070111 0.439352
v 0.274612 0.070111 1.102248
v -0.654256 0.070111 1.110857
v -1.317152 0.070111 0.460135
v -1.325761 0.070112 -0.468732
v -0.675040 0.070112 -1.131629
v 0.253828 0.070112 -1.140237
v 0.998305 0.064114 -0.524198
v 1.007543 0.064113 0.472515
v 0.309293 0.064113 1.183828
v -0.687419 0.064113 1.193067
v -1.398733 0.064113 0.494817
v -1.407972 0.064114 -0.501895
v -0.709721 0.064114 -1.213210
v 0.286991 0.064114 -1.222447
v 0.916724 -0.128102 -0.489516
v 0.925333 -0.128103 0.439352
v 0.274612 -0.128103 1.102248
v -0.654256 -0.128103 1.110857
v -1.317152 -0.128103 0.460135
v -1.325761 -0.128102 -0.468732
v -0.675040 -0.128102 -1.131629
v 0.253828 -0.128102 -1.140237
v 1.002924 0.064113 -0.025841
v 0.921029 0.070111 -0.025083
v 0.921029 -0.128103 -0.025083
v 1.004484 0.064113 0.142447
v 0.922482 0.070111 0.131751
v 0.922482 -0.128103 0.131751
v 1.002924 -0.125947 -0.025841
v 0.998305 -0.125946 -0.524198
v 0.309293 -0.125947 1.183828
v 1.007543 -0.125947 0.472515
v -0.687419 -0.125947 1.193067
v -1.398733 -0.125947 0.494817
v -1.407972 -0.125946 -0.501895
v -0.709721 -0.125946 -1.213210
v 0.286991 -0.125946 -1.222447
v 1.004484 -0.125947 0.142447
v 0.937616 0.165064 0.132377
v 0.940461 0.165064 0.439240
v 0.291300 0.165064 1.100546
v -0.635340 0.165064 1.109135
v -1.296646 0.165064 0.459975
v -1.305233 0.165064 -0.466665
v -0.656073 0.165065 -1.127972
v 0.270566 0.165065 -1.136560
v 0.931872 0.165064 -0.487400
v 0.861379 0.170641 0.122433
v 0.864029 0.170641 0.408409
v 0.259058 0.170641 1.024701
v -0.604508 0.170641 1.032704
v -1.220800 0.170641 0.427732
v -1.228804 0.170641 -0.435833
v -0.623831 0.170642 -1.052125
v 0.239734 0.170642 -1.060130
v 0.856026 0.170641 -0.455156
v 0.936166 0.165064 -0.024079
v 0.860028 0.170641 -0.023375
v 0.874012 0.203079 0.122932
v 0.876654 0.203079 0.408011
v 0.273577 0.203079 1.022370
v -0.587280 0.203079 1.030349
v -1.201639 0.203079 0.427273
v -1.209618 0.203079 -0.433584
v -0.606542 0.203080 -1.047945
v 0.254315 0.203080 -1.055923
v 0.868675 0.203079 -0.452846
v 0.803187 0.208260 0.113693
v 0.805649 0.208260 0.379367
v 0.243623 0.208260 0.951909
v -0.558637 0.208260 0.959344
v -1.131177 0.208260 0.397318
v -1.138613 0.208260 -0.404942
v -0.576588 0.208261 -0.977483
v 0.225672 0.208261 -0.984919
v 0.798214 0.208260 -0.422893
v 0.872665 0.203079 -0.022418
v 0.801932 0.208260 -0.021762
v 0.985686 -0.135358 -0.018477
v 0.981139 -0.135357 -0.509058
v 0.302877 -0.135358 1.172318
v 0.990232 -0.135358 0.472104
v -0.678284 -0.135358 1.181413
v -1.378500 -0.135358 0.494058
v -1.387594 -0.135357 -0.487104
v -0.700239 -0.135357 -1.187320
v 0.280923 -0.135357 -1.196414
v 0.906499 -0.137480 0.136656
v 0.909305 -0.137480 0.439457
v 0.268736 -0.137480 1.092010
v -0.645638 -0.137480 1.100486
v -1.298191 -0.137480 0.459917
v -1.306667 -0.137479 -0.454458
v -0.666098 -0.137479 -1.107011
v 0.248276 -0.137479 -1.115487
v 0.900830 -0.137479 -0.474917
v 0.751956 -0.136302 0.116497
v 0.754370 -0.136302 0.376956
v 0.203375 -0.136302 0.938261
v -0.583138 -0.136302 0.945550
v -1.144442 -0.136302 0.394556
v -1.151731 -0.136301 -0.391957
v -0.600737 -0.136301 -0.953261
v 0.185776 -0.136301 -0.960551
v 0.747080 -0.136301 -0.409556
v 0.987220 -0.135358 0.147184
v 0.905067 -0.137480 -0.017730
v 0.750725 -0.136302 -0.016299
v 0.098724 -0.136302 0.692088
v -0.483067 -0.136302 0.697480
v -0.898269 -0.136302 0.289904
v -0.903660 -0.136301 -0.291886
v -0.496086 -0.136301 -0.707088
v 0.085705 -0.136301 -0.712481
v 0.500907 -0.136301 -0.304904
v 0.506299 -0.136302 0.276885
v 0.393955 -0.136302 0.231566
v 0.389422 -0.136302 -0.257512
v 0.040387 -0.136301 -0.600136
v -0.448692 -0.136301 -0.595603
v 0.051330 -0.136302 0.580603
v -0.437748 -0.136302 0.585135
v -0.786784 -0.136302 0.242511
v -0.791316 -0.136302 -0.246567
vn 1.0000 -0.0000 -0.0093
vn 0.7136 -0.0000 0.7005
vn 0.0093 -0.0000 1.0000
vn -0.7005 -0.0000 0.7136
vn -1.0000 -0.0000 0.0093
vn -0.7136 -0.0000 -0.7005
vn -0.0093 -0.0000 -1.0000
vn 0.7005 -0.0000 -0.7136
vn -0.8548 -0.5188 0.0079
vn -0.5828 -0.5548 0.5937
vn -0.5120 0.6965 -0.5026
vn 0.0073 -0.6226 0.7825
vn 0.8340 0.5517 -0.0077
vn 0.5682 0.5849 -0.5788
vn 0.0071 0.6371 0.7707
vn 0.5258 -0.6761 0.5162
vn 0.7209 -0.6931 -0.0067
vn -0.5434 -0.8394 0.0050
vn 0.2860 -0.9162 0.2807
vn -0.2740 0.9233 -0.2690
vn 0.5135 0.8580 -0.0048
vn 0.3860 -0.9225 -0.0036
vn -0.3705 0.9288 0.0034
vn 0.2849 -0.9135 -0.2903
vn -0.2729 0.9210 0.2780
vn -0.0042 -0.8887 -0.4584
vn -0.5067 0.6905 0.5162
vn -0.5981 -0.5455 -0.5871
vn -0.0073 -0.6115 -0.7912
vn 0.5832 0.5763 0.5725
vn -0.0071 0.6473 -0.7622
vn 0.5203 -0.6696 -0.5301
vn -0.7020 0.7122 0.0065
vn 0.0730 0.9973 -0.0007
vn 0.0521 0.9973 0.0512
vn 0.0007 0.9973 0.0730
vn -0.0512 0.9973 0.0521
vn -0.0730 0.9973 0.0007
vn -0.0521 0.9973 -0.0512
vn -0.0007 0.9973 -0.0730
vn 0.0512 0.9973 -0.0521
vn -0.0040 0.9042 -0.4271
vn 0.0042 -0.8940 0.4480
vn 0.3383 0.8757 -0.3446
vn 0.5135 0.8581 -0.0048
vn -0.3570 -0.8604 0.3636
vn 0.3505 0.8710 0.3441
vn -0.3702 -0.8550 -0.3634
vn 0.0040 0.8997 0.4366
vn -0.3774 -0.8425 0.3845
vn -0.2523 -0.9354 -0.2476
vn 0.4777 -0.8785 -0.0044
vn 0.2670 -0.9245 -0.2720
vn 0.0058 -0.7757 0.6310
vn -0.4216 -0.9068 0.0039
vn -0.0032 -0.9402 -0.3406
vn 0.4261 -0.8021 0.4183
vn -0.0076 -1.0000 0.0001
vn -0.0054 -1.0000 -0.0053
vn -0.0001 -1.0000 -0.0076
vn 0.0053 -1.0000 -0.0054
vn 0.0076 -1.0000 -0.0001
vn 0.0054 -1.0000 0.0053
vn 0.0001 -1.0000 0.0076
vn -0.0053 -1.0000 0.0054
vn -0.0000 -1.0000 -0.0000
vn -0.0184 -0.9997 0.0188
vn 0.0002 -0.9997 0.0263
vn 0.0188 -0.9997 0.0184
vn 0.0263 -0.9997 -0.0002
vn 0.0184 -0.9997 -0.0188
vn -0.0002 -0.9997 -0.0263
vn -0.0188 -0.9997 -0.0184
vn -0.0263 -0.9997 0.0002
vt 0.878825 0.696794
vt 0.597540 0.574223
vt 0.597540 0.763830
vt 0.125043 0.506990
vt 0.597540 0.897903
vt 0.314137 0.507728
vt 0.968691 0.963963
vt 0.545974 0.964939
vt 0.447846 0.642134
vt 0.968691 0.774356
vt 0.545974 0.830867
vt 0.447846 0.831476
vt 0.314137 0.964839
vt 0.545974 0.641260
vt 0.545974 0.507187
vt 0.125043 0.964101
vt 0.878825 0.507187
vt 0.897100 0.977812
vt 0.005263 0.149117
vt 0.736641 0.865034
vt 0.687320 0.936967
vt 0.005263 0.352573
vt 0.827173 0.507187
vt 0.148701 0.496449
vt 0.827173 0.710643
vt 0.827173 0.854508
vt 0.351552 0.496464
vt 0.669131 0.854508
vt 0.669131 0.651052
vt 0.494989 0.352610
vt 0.669131 0.507187
vt 0.739058 0.854508
vt 0.494989 0.149155
vt 0.739058 0.651052
vt 0.351551 0.005279
vt 0.739058 0.507187
vt 0.897100 0.774356
vt 0.148700 0.005263
vt 0.919284 0.696794
vt 0.638000 0.574223
vt 0.637999 0.763830
vt 0.637999 0.897903
vt 0.928232 0.963963
vt 0.505515 0.964939
vt 0.928232 0.774356
vt 0.505515 0.830867
vt 0.505515 0.641260
vt 0.505515 0.507187
vt 0.919284 0.507187
vt 0.736641 0.936967
vt 0.687320 0.865034
vt 0.005263 0.250845
vt 0.878825 0.763830
vt 0.597540 0.507187
vt 0.919284 0.763830
vt 0.638000 0.507187
vt 0.687320 0.889325
vt 0.005263 0.285197
vt 0.597540 0.529824
vt 0.638000 0.529824
vt 0.697846 0.936967
vt 0.648525 0.865034
vt 0.577160 0.077546
vt 0.858305 0.977812
vt 0.697846 0.865034
vt 0.505515 0.149564
vt 0.788378 0.710643
vt 0.851447 0.005263
vt 0.648525 0.936967
vt 0.788379 0.507187
vt 0.648805 0.005527
vt 0.788378 0.854508
vt 0.707926 0.854508
vt 0.994737 0.148926
vt 0.707926 0.651052
vt 0.994737 0.352360
vt 0.707926 0.507187
vt 0.777853 0.854508
vt 0.851448 0.496397
vt 0.777853 0.651052
vt 0.648805 0.496661
vt 0.777853 0.507187
vt 0.858305 0.774356
vt 0.505515 0.352998
vt 0.648525 0.889325
vt 0.601354 0.053226
vt 0.020439 0.282995
vt 0.847779 0.511932
vt 0.020439 0.345634
vt 0.847779 0.701085
vt 0.153793 0.479395
vt 0.648525 0.850093
vt 0.342383 0.479410
vt 0.648525 0.660941
vt 0.475736 0.345670
vt 0.718452 0.844950
vt 0.475736 0.156517
vt 0.718452 0.655797
vt 0.342382 0.022756
vt 0.917706 0.784245
vt 0.153792 0.022742
vt 0.917706 0.973397
vt 0.020439 0.156482
vt 0.577020 0.537204
vt 0.005263 0.704036
vt 0.577020 0.578482
vt 0.005263 0.645742
vt 0.577020 0.754759
vt 0.129572 0.521755
vt 0.305372 0.522441
vt 0.989211 0.960035
vt 0.429681 0.647398
vt 0.989211 0.783758
vt 0.566494 0.821795
vt 0.429681 0.823428
vt 0.566494 0.645518
vt 0.305372 0.947415
vt 0.858305 0.516589
vt 0.129572 0.946729
vt 0.858305 0.692866
vt 0.005263 0.821772
vt 0.020439 0.251058
vt 0.858305 0.755189
vt 0.005263 0.733757
vt 0.577020 0.516158
vt 0.033963 0.280940
vt 0.033963 0.339133
vt 0.157850 0.463398
vt 0.333052 0.463411
vt 0.456938 0.339165
vt 0.456938 0.163441
vt 0.333051 0.039176
vt 0.157849 0.039162
vt 0.033963 0.163408
vt 0.048440 0.278921
vt 0.017657 0.705568
vt 0.048440 0.333152
vt 0.017657 0.651413
vt 0.163894 0.448959
vt 0.133141 0.536227
vt 0.296461 0.536864
vt 0.327171 0.448971
vt 0.411945 0.652951
vt 0.442624 0.333182
vt 0.411945 0.816484
vt 0.442624 0.169419
vt 0.327170 0.053612
vt 0.296461 0.931670
vt 0.163894 0.053600
vt 0.133141 0.931033
vt 0.048440 0.169389
vt 0.017657 0.814946
vt 0.033963 0.251270
vt 0.017657 0.733180
vt 0.048440 0.251271
vt 0.580512 0.078971
vt 0.509985 0.149866
vt 0.850520 0.007816
vt 0.651039 0.008076
vt 0.991574 0.149238
vt 0.991574 0.349498
vt 0.850520 0.491288
vt 0.651039 0.491548
vt 0.509985 0.350126
vt 0.614258 0.068274
vt 0.657789 0.024516
vt 0.843692 0.024274
vt 0.975145 0.156069
vt 0.975144 0.342698
vt 0.843692 0.474836
vt 0.657790 0.475078
vt 0.526337 0.343283
vt 0.526337 0.156654
vt 0.633365 0.093644
vt 0.670809 0.056004
vt 0.830715 0.055796
vt 0.943787 0.169162
vt 0.943787 0.329693
vt 0.830716 0.443354
vt 0.670809 0.443562
vt 0.557738 0.330197
vt 0.557738 0.169665
vt 0.604328 0.055031
vt 0.592063 0.090585
vt 0.614273 0.112835
vt 0.809904 0.106262
vt 0.893544 0.190120
vt 0.893544 0.308867
vt 0.809904 0.392942
vt 0.691620 0.393096
vt 0.607980 0.309239
vt 0.607980 0.190492
vt 0.691620 0.106416
vt 0.701045 0.129246
vt 0.630734 0.199924
vt 0.630734 0.299747
vt 0.701045 0.370242
vt 0.800480 0.129117
vt 0.870791 0.199611
vt 0.870791 0.299434
vt 0.800480 0.370112
s 0
usemtl defaultMat.001
f 28/57/1 10/21/1 34/69/1 40/85/1
f 10/23/2 11/25/2 33/67/2 34/70/2
f 11/25/3 12/26/3 35/72/3 33/67/3
f 12/28/4 13/29/4 36/75/4 35/73/4
f 13/29/5 14/31/5 37/77/5 36/75/5
f 14/32/6 15/34/6 38/80/6 37/78/6
f 15/34/7 16/36/7 39/82/7 38/80/7
f 16/37/8 9/18/8 32/64/8 39/83/8
f 7/14/3 23/47/3 24/48/3 8/15/3
f 26/53/9 60/123/9 58/120/9 1/1/9
f 1/1/10 58/120/10 57/118/10 8/17/10
f 14/32/11 46/96/11 47/98/11 15/34/11
f 8/16/12 57/119/12 56/117/12 7/13/12
f 28/58/13 41/87/13 42/89/13 10/22/13
f 16/37/14 48/100/14 49/102/14 9/18/14
f 9/19/13 49/103/13 59/122/13 25/52/13
f 11/24/15 43/91/15 44/93/15 12/27/15
f 5/8/1 21/44/1 22/46/1 6/11/1
f 3/3/7 19/41/7 20/42/7 4/5/7
f 29/59/5 30/60/5 18/40/5 2/2/5
f 8/17/4 24/49/4 17/39/4 1/1/4
f 6/11/2 22/46/2 23/47/2 7/14/2
f 4/7/8 20/43/8 21/45/8 5/10/8
f 2/2/6 18/40/6 19/41/6 3/3/6
f 1/1/5 17/39/5 27/55/5 26/53/5
f 7/14/16 56/116/16 55/114/16 6/11/16
f 9/20/1 25/50/1 31/61/1 32/65/1
f 6/12/17 55/115/17 54/112/17 5/9/17
f 26/54/5 27/56/5 30/60/5 29/59/5
f 25/51/1 28/57/1 40/85/1 31/62/1
f 50/105/18 70/136/18 80/154/18 60/124/18
f 56/117/19 76/148/19 75/145/19 55/115/19
f 46/97/20 66/131/20 67/132/20 47/99/20
f 59/122/21 79/153/21 61/126/21 41/87/21
f 55/115/22 75/145/22 74/143/22 54/112/22
f 45/95/23 65/130/23 66/131/23 46/97/23
f 54/112/24 74/143/24 73/141/24 53/110/24
f 44/93/25 64/129/25 65/130/25 45/95/25
f 60/124/18 80/154/18 78/152/18 58/121/18
f 53/110/26 73/141/26 72/140/26 52/109/26
f 2/2/9 51/106/9 50/104/9 29/59/9
f 12/28/27 44/92/27 45/94/27 13/29/27
f 3/3/28 52/108/28 51/106/28 2/2/28
f 4/6/29 53/110/29 52/109/29 3/4/29
f 10/23/30 42/88/30 43/90/30 11/25/30
f 15/35/31 47/99/31 48/101/31 16/38/31
f 25/52/13 59/122/13 41/87/13 28/58/13
f 5/10/32 54/113/32 53/111/32 4/7/32
f 29/59/9 50/104/9 60/125/9 26/54/9
f 13/30/33 45/95/33 46/97/33 14/33/33
f 80/155/34 79/153/34 69/134/34 78/151/34
f 72/139/35 63/128/35 62/127/35 71/137/35
f 73/142/36 64/129/36 63/128/36 72/139/36
f 74/144/37 65/130/37 64/129/37 73/142/37
f 75/146/38 66/131/38 65/130/38 74/144/38
f 76/147/39 67/132/39 66/131/39 75/146/39
f 77/149/40 68/133/40 67/132/40 76/147/40
f 78/151/41 69/134/41 68/133/41 77/149/41
f 70/135/34 61/126/34 79/153/34 80/155/34
f 71/137/34 62/127/34 61/126/34 70/135/34
f 47/99/42 67/132/42 68/133/42 48/101/42
f 57/119/43 77/150/43 76/148/43 56/117/43
f 48/101/44 68/133/44 69/134/44 49/103/44
f 41/87/45 61/126/45 62/127/45 42/89/45
f 58/121/46 78/152/46 77/150/46 57/119/46
f 51/107/18 71/138/18 70/136/18 50/105/18
f 42/89/47 62/127/47 63/128/47 43/91/47
f 52/109/48 72/140/48 71/138/48 51/107/48
f 49/103/21 69/134/21 79/153/21 59/122/21
f 43/91/49 63/128/49 64/129/49 44/93/49
f 35/74/50 36/76/50 86/161/50 85/160/50
f 38/81/51 88/163/51 87/162/51 37/79/51
f 31/63/52 81/156/52 82/157/52 32/66/52
f 32/66/53 82/157/53 89/164/53 39/84/53
f 33/68/54 35/74/54 85/160/54 83/158/54
f 37/79/55 87/162/55 86/161/55 36/76/55
f 40/86/52 108/183/52 81/156/52 31/63/52
f 39/84/56 89/164/56 88/163/56 38/81/56
f 34/71/57 33/68/57 83/158/57 84/159/57
f 40/86/52 34/71/52 84/159/52 108/183/52
f 110/185/58 107/182/58 98/173/58 109/184/58
f 101/176/59 100/175/59 91/166/59 92/167/59
f 102/177/60 101/176/60 92/167/60 93/168/60
f 103/178/61 102/177/61 93/168/61 94/169/61
f 104/179/62 103/178/62 94/169/62 95/170/62
f 105/180/63 104/179/63 95/170/63 96/171/63
f 106/181/64 105/180/64 96/171/64 97/172/64
f 107/182/65 106/181/65 97/172/65 98/173/65
f 99/174/58 110/185/58 109/184/58 90/165/58
f 100/175/58 99/174/58 90/165/58 91/166/58
f 117/192/66 110/185/66 99/174/66 118/193/66
f 117/192/66 107/182/66 110/185/66
f 99/174/66 100/175/66 118/193/66
f 107/182/66 117/192/66 116/191/66 106/181/66
f 106/181/66 116/191/66 115/190/66 105/180/66
f 101/176/66 111/186/66 118/193/66 100/175/66
f 102/177/66 112/187/66 111/186/66 101/176/66
f 103/178/66 113/188/66 112/187/66 102/177/66
f 104/179/66 114/189/66 113/188/66 103/178/66
f 105/180/66 115/190/66 114/189/66 104/179/66
f 85/160/67 86/161/67 94/169/67 93/168/67
f 83/158/68 85/160/68 93/168/68 92/167/68
f 84/159/69 83/158/69 92/167/69 91/166/69
f 108/183/70 84/159/70 91/166/70 90/165/70
f 108/183/70 90/165/70 109/184/70 81/156/70
f 81/156/70 109/184/70 98/173/70 82/157/70
f 82/157/71 98/173/71 97/172/71 89/164/71
f 89/164/72 97/172/72 96/171/72 88/163/72
f 88/163/73 96/171/73 95/170/73 87/162/73
f 87/162/74 95/170/74 94/169/74 86/161/74
f 116/191/66 121/196/66 122/197/66 115/190/66
f 118/193/66 119/194/66 120/195/66 117/192/66
f 115/190/66 122/197/66 126/201/66 114/189/66
f 113/188/66 125/200/66 124/199/66 112/187/66
f 111/186/66 123/198/66 119/194/66 118/193/66
f 117/192/66 120/195/66 121/196/66 116/191/66
f 114/189/66 126/201/66 125/200/66 113/188/66
f 112/187/66 124/199/66 123/198/66 111/186/66
