# Blender 3.4.1
# www.blender.org
mtllib steps.mtl
o steps
v -0.845738 0.097756 -3.288578
v -0.845738 0.107726 -3.288578
v -0.828085 0.097756 -3.288578
v -0.828085 0.107726 -3.288578
v -0.866111 0.107726 -3.288578
v -0.866111 0.117695 -3.288579
v -0.886485 0.117695 -3.288595
v -0.886485 0.127664 -3.288578
v -0.906859 0.127664 -3.288578
v -0.906859 0.137634 -3.288578
v -0.866111 0.127664 -3.288578
v -0.927232 0.137634 -3.288578
v -0.927232 0.147603 -3.288578
v -0.955700 0.147603 -3.288578
v -0.955699 0.157572 -3.288578
v -0.955700 0.097756 -3.288577
v -0.955700 0.107726 -3.288577
v -0.845738 0.097756 -3.288577
v -0.866111 0.097756 -3.288577
v -0.886485 0.097756 -3.288577
v -0.886485 0.107726 -3.288577
v -0.906859 0.097756 -3.288577
v -0.906859 0.107726 -3.288577
v -0.927232 0.097756 -3.288577
v -0.927232 0.107726 -3.288577
v -0.861383 0.099107 -3.288577
v -0.861383 0.106375 -3.288577
v -0.850466 0.106375 -3.288577
v -0.850466 0.099107 -3.288577
v -0.881757 0.099107 -3.288577
v -0.881757 0.106375 -3.288577
v -0.870839 0.106375 -3.288577
v -0.870839 0.099107 -3.288577
v -0.902131 0.099107 -3.288577
v -0.902131 0.106375 -3.288577
v -0.891213 0.106375 -3.288577
v -0.891213 0.099107 -3.288577
v -0.922504 0.099107 -3.288577
v -0.922504 0.106375 -3.288577
v -0.911587 0.106375 -3.288577
v -0.911587 0.099107 -3.288577
v -0.950972 0.099107 -3.288577
v -0.950972 0.106375 -3.288577
v -0.931960 0.106375 -3.288577
v -0.931960 0.099107 -3.288577
v -0.911587 0.110510 -3.288577
v -0.922504 0.110510 -3.288577
v -0.922504 0.134850 -3.288577
v -0.911587 0.134850 -3.288577
v -0.870839 0.109076 -3.288577
v -0.881757 0.109076 -3.288577
v -0.881757 0.116345 -3.288615
v -0.870839 0.116345 -3.288577
v -0.891213 0.109793 -3.288577
v -0.902131 0.109793 -3.288577
v -0.902131 0.125597 -3.288586
v -0.891213 0.125597 -3.288585
v -0.931960 0.111227 -3.288577
v -0.950972 0.111227 -3.288577
v -0.950972 0.144102 -3.288577
v -0.931960 0.144102 -3.288577
v -0.927232 0.157572 -3.288578
v -0.906859 0.147603 -3.288578
v -0.886485 0.137634 -3.288578
v -0.845738 0.117695 -3.288578
v -0.845738 0.097756 -2.679004
v -0.845738 0.107726 -2.679004
v -0.828085 0.097756 -2.679004
v -0.828085 0.107726 -2.679004
v -0.866111 0.107726 -2.679004
v -0.866111 0.117695 -2.679002
v -0.886485 0.117695 -2.678986
v -0.886485 0.127664 -2.679004
v -0.906859 0.127664 -2.679004
v -0.906859 0.137634 -2.679004
v -0.866111 0.127664 -2.679004
v -0.927232 0.137634 -2.679004
v -0.927232 0.147603 -2.679004
v -0.955700 0.147603 -2.679004
v -0.955699 0.157572 -2.679004
v -0.955700 0.097756 -2.679005
v -0.955700 0.107726 -2.679005
v -0.845738 0.097756 -2.679005
v -0.866111 0.097756 -2.679005
v -0.886485 0.097756 -2.679005
v -0.886485 0.107726 -2.679005
v -0.906859 0.097756 -2.679005
v -0.906859 0.107726 -2.679005
v -0.927232 0.097756 -2.679005
v -0.927232 0.107726 -2.679005
v -0.861383 0.099107 -2.679005
v -0.861383 0.106375 -2.679005
v -0.850466 0.106375 -2.679005
v -0.850466 0.099107 -2.679005
v -0.881757 0.099107 -2.679005
v -0.881757 0.106375 -2.679005
v -0.870839 0.106375 -2.679005
v -0.870839 0.099107 -2.679005
v -0.902131 0.099107 -2.679005
v -0.902131 0.106375 -2.679005
v -0.891213 0.106375 -2.679005
v -0.891213 0.099107 -2.679005
v -0.922504 0.099107 -2.679005
v -0.922504 0.106375 -2.679005
v -0.911587 0.106375 -2.679005
v -0.911587 0.099107 -2.679005
v -0.950972 0.099107 -2.679005
v -0.950972 0.106375 -2.679005
v -0.931960 0.106375 -2.679005
v -0.931960 0.099107 -2.679005
v -0.911587 0.110510 -2.679005
v -0.922504 0.110510 -2.679005
v -0.922504 0.134850 -2.679005
v -0.911587 0.134850 -2.679005
v -0.870839 0.109076 -2.679005
v -0.881757 0.109076 -2.679005
v -0.881757 0.116345 -2.678966
v -0.870839 0.116345 -2.679005
v -0.891213 0.109793 -2.679005
v -0.902131 0.109793 -2.679005
v -0.902131 0.125597 -2.678996
v -0.891213 0.125597 -2.678997
v -0.931960 0.111227 -2.679005
v -0.950972 0.111227 -2.679005
v -0.950972 0.144102 -2.679005
v -0.931960 0.144102 -2.679005
v -0.927232 0.157572 -2.679004
v -0.906859 0.147603 -2.679004
v -0.886485 0.137634 -2.679004
v -0.845738 0.117695 -2.679004
vn -0.0000 -0.0000 -1.0000
vn -0.0000 1.0000 -0.0000
vn -0.0000 -1.0000 -0.0000
vn 0.0004 0.0010 -1.0000
vn 0.0018 -0.0026 -1.0000
vn 0.0001 -0.0005 -1.0000
vn -0.0000 -0.0003 -1.0000
vn -0.0000 -0.0001 -1.0000
vn -0.0000 0.0001 -1.0000
vn -0.0021 -0.0033 -1.0000
vn 0.0017 0.0065 -1.0000
vn -0.0003 -0.0001 -1.0000
vn -0.0009 -0.0003 -1.0000
vn -0.0000 0.0039 -1.0000
vn 0.0008 -0.0002 -1.0000
vn 1.0000 -0.0000 -0.0000
vn -1.0000 -0.0000 -0.0000
vn -0.0000 -0.0000 1.0000
vn 0.0004 0.0010 1.0000
vn 0.0018 -0.0026 1.0000
vn 0.0001 -0.0005 1.0000
vn -0.0000 -0.0003 1.0000
vn -0.0000 -0.0001 1.0000
vn -0.0000 0.0001 1.0000
vn -0.0021 -0.0033 1.0000
vn 0.0017 0.0065 1.0000
vn -0.0003 -0.0001 1.0000
vn -0.0009 -0.0003 1.0000
vn -0.0000 0.0039 1.0000
vn 0.0008 -0.0002 1.0000
vt 0.007312 0.756830
vt 0.937206 0.007313
vt 0.278830 0.712734
vt 0.007312 0.727358
vt 0.972259 0.712734
vt 0.884381 0.007313
vt 0.146543 0.756834
vt 0.234734 0.007313
vt 0.308301 0.712734
vt 0.027741 0.756830
vt 0.957635 0.007313
vt 0.528780 0.712734
vt 0.027741 0.727358
vt 0.992688 0.712734
vt 0.499308 0.712734
vt 0.860804 0.007313
vt 0.170120 0.756834
vt 0.146543 0.712736
vt 0.631595 0.712757
vt 0.170120 0.786305
vt 0.190638 0.007313
vt 0.693374 0.007313
vt 0.176014 0.712738
vt 0.655172 0.712776
vt 0.193697 0.786305
vt 0.102447 0.712776
vt 0.731575 0.007313
vt 0.193697 0.815777
vt 0.455213 0.007313
vt 0.899005 0.712734
vt 0.131919 0.712755
vt 0.707998 0.007313
vt 0.217274 0.815777
vt 0.543404 0.712734
vt 0.807979 0.007313
vt 0.217274 0.845248
vt 0.411117 0.007313
vt 0.746200 0.712734
vt 0.572875 0.712734
vt 0.170120 0.815777
vt 0.220110 0.007315
vt 0.922583 0.712734
vt 0.784401 0.007313
vt 0.240852 0.845248
vt 0.587500 0.712734
vt 0.240852 0.874720
vt 0.322926 0.007313
vt 0.822602 0.712734
vt 0.616971 0.712734
vt 0.087823 0.007313
vt 0.273795 0.874720
vt 0.367021 0.712734
vt 0.054879 0.007313
vt 0.273795 0.904191
vt 0.040256 0.007313
vt 0.396492 0.712734
vt 0.273795 0.727362
vt 0.273795 0.756834
vt 0.146543 0.727362
vt 0.170120 0.727362
vt 0.193697 0.727362
vt 0.193697 0.756834
vt 0.217274 0.727362
vt 0.217274 0.756834
vt 0.240852 0.727362
vt 0.240852 0.756834
vt 0.164649 0.731354
vt 0.164649 0.752842
vt 0.152014 0.752842
vt 0.152014 0.731354
vt 0.188226 0.731354
vt 0.188226 0.752842
vt 0.175591 0.752842
vt 0.175591 0.731354
vt 0.211803 0.731354
vt 0.211803 0.752842
vt 0.199169 0.752842
vt 0.199169 0.731354
vt 0.235380 0.731354
vt 0.235380 0.752842
vt 0.222746 0.752842
vt 0.222746 0.731354
vt 0.268324 0.731354
vt 0.268324 0.752842
vt 0.246323 0.752842
vt 0.246323 0.731354
vt 0.222746 0.765064
vt 0.235380 0.765064
vt 0.235380 0.837018
vt 0.222746 0.837018
vt 0.175591 0.760825
vt 0.188226 0.760825
vt 0.188226 0.782314
vt 0.175591 0.782314
vt 0.199169 0.762944
vt 0.211803 0.762944
vt 0.211803 0.809666
vt 0.199169 0.809666
vt 0.246323 0.767183
vt 0.268324 0.767183
vt 0.268324 0.864370
vt 0.246323 0.864370
vt 0.240852 0.904191
vt 0.352397 0.007313
vt 0.007312 0.007313
vt 0.217274 0.874720
vt 0.440588 0.007313
vt 0.846179 0.712734
vt 0.193697 0.845248
vt 0.484684 0.007313
vt 0.769777 0.712734
vt 0.146543 0.786305
vt 0.264206 0.007313
vt 0.669797 0.007313
vt 0.937206 0.712734
vt 0.278830 0.007313
vt 0.062794 0.756830
vt 0.972259 0.007313
vt 0.884381 0.712734
vt 0.234734 0.712734
vt 0.308301 0.007313
vt 0.062794 0.727358
vt 0.450178 0.756830
vt 0.957635 0.712734
vt 0.528780 0.007313
vt 0.042365 0.756830
vt 0.992688 0.007313
vt 0.499308 0.007313
vt 0.042365 0.727358
vt 0.860804 0.712734
vt 0.146543 0.007315
vt 0.426600 0.756830
vt 0.631595 0.007330
vt 0.190638 0.712738
vt 0.693374 0.712738
vt 0.176014 0.007313
vt 0.426600 0.786301
vt 0.655172 0.007313
vt 0.102447 0.007313
vt 0.403024 0.786301
vt 0.731575 0.712734
vt 0.455213 0.712734
vt 0.899005 0.007313
vt 0.131919 0.007332
vt 0.403024 0.815773
vt 0.707998 0.712734
vt 0.543404 0.007313
vt 0.379446 0.815773
vt 0.807979 0.712734
vt 0.411117 0.712734
vt 0.746200 0.007313
vt 0.572875 0.007313
vt 0.379446 0.845245
vt 0.220110 0.712736
vt 0.922583 0.007313
vt 0.426600 0.815773
vt 0.784401 0.712734
vt 0.587500 0.007313
vt 0.355869 0.845245
vt 0.322926 0.712734
vt 0.822602 0.007313
vt 0.616971 0.007313
vt 0.355869 0.874716
vt 0.087823 0.712734
vt 0.367021 0.007313
vt 0.322926 0.874716
vt 0.054879 0.712734
vt 0.040256 0.712734
vt 0.396492 0.007313
vt 0.322926 0.904188
vt 0.322926 0.727358
vt 0.322926 0.756830
vt 0.450178 0.727358
vt 0.426600 0.727358
vt 0.403024 0.727358
vt 0.403024 0.756830
vt 0.379446 0.727358
vt 0.379446 0.756830
vt 0.355869 0.727358
vt 0.355869 0.756830
vt 0.432072 0.731350
vt 0.432072 0.752838
vt 0.444707 0.752838
vt 0.444707 0.731350
vt 0.408495 0.731350
vt 0.408495 0.752838
vt 0.421129 0.752838
vt 0.421129 0.731350
vt 0.384917 0.731350
vt 0.384917 0.752838
vt 0.397552 0.752838
vt 0.397552 0.731350
vt 0.361341 0.731350
vt 0.361341 0.752838
vt 0.373975 0.752838
vt 0.373975 0.731350
vt 0.328397 0.731350
vt 0.328397 0.752838
vt 0.350398 0.752838
vt 0.350398 0.731350
vt 0.373975 0.765060
vt 0.361341 0.765060
vt 0.361341 0.837014
vt 0.373975 0.837014
vt 0.421129 0.760822
vt 0.408495 0.760822
vt 0.408495 0.782310
vt 0.421129 0.782310
vt 0.397552 0.762941
vt 0.384917 0.762941
vt 0.384917 0.809662
vt 0.397552 0.809662
vt 0.350398 0.767180
vt 0.328397 0.767180
vt 0.328397 0.864366
vt 0.350398 0.864366
vt 0.352397 0.712734
vt 0.007312 0.712734
vt 0.355869 0.904188
vt 0.440588 0.712734
vt 0.846179 0.007313
vt 0.379446 0.874716
vt 0.484684 0.712734
vt 0.769777 0.007313
vt 0.403024 0.845245
vt 0.264206 0.712734
vt 0.669797 0.712736
vt 0.450178 0.786301
s 0
f 1/1/1 2/4/1 4/13/1 3/10/1
f 69/127/2 4/14/2 2/5/2 67/118/2
f 70/130/3 5/16/3 2/6/3 67/119/3
f 72/138/3 7/24/3 6/19/3 71/133/3
f 74/146/3 9/32/3 8/27/3 73/141/3
f 7/25/4 8/28/4 11/40/4 6/20/4
f 77/157/3 12/43/3 10/35/3 75/149/3
f 26/67/1 27/68/1 28/69/1 29/70/1
f 30/71/1 31/72/1 32/73/1 33/74/1
f 34/75/1 35/76/1 36/77/1 37/78/1
f 38/79/1 39/80/1 40/81/1 41/82/1
f 42/83/1 43/84/1 44/85/1 45/86/1
f 46/87/1 47/88/1 48/89/1 49/90/1
f 50/91/5 51/92/5 52/93/5 53/94/5
f 54/95/6 55/96/6 56/97/6 57/98/6
f 58/99/1 59/100/1 60/101/1 61/102/1
f 19/60/1 5/17/1 27/68/1 26/67/1
f 5/17/7 2/7/7 28/69/7 27/68/7
f 2/7/1 18/59/1 29/70/1 28/69/1
f 18/59/1 19/60/1 26/67/1 29/70/1
f 20/61/1 21/62/1 31/72/1 30/71/1
f 21/62/8 5/17/8 32/73/8 31/72/8
f 5/17/1 19/60/1 33/74/1 32/73/1
f 19/60/1 20/61/1 30/71/1 33/74/1
f 22/63/1 23/64/1 35/76/1 34/75/1
f 23/64/1 21/62/1 36/77/1 35/76/1
f 21/62/1 20/61/1 37/78/1 36/77/1
f 20/61/1 22/63/1 34/75/1 37/78/1
f 24/65/1 25/66/1 39/80/1 38/79/1
f 25/66/1 23/64/1 40/81/1 39/80/1
f 23/64/1 22/63/1 41/82/1 40/81/1
f 22/63/1 24/65/1 38/79/1 41/82/1
f 16/57/1 17/58/1 43/84/1 42/83/1
f 17/58/1 25/66/1 44/85/1 43/84/1
f 25/66/1 24/65/1 45/86/1 44/85/1
f 24/65/1 16/57/1 42/83/1 45/86/1
f 23/64/1 25/66/1 47/88/1 46/87/1
f 25/66/1 12/44/1 48/89/1 47/88/1
f 12/44/8 10/36/8 49/90/8 48/89/8
f 10/36/1 23/64/1 46/87/1 49/90/1
f 5/17/9 21/62/9 51/92/9 50/91/9
f 21/62/10 7/25/10 52/93/10 51/92/10
f 7/25/11 6/20/11 53/94/11 52/93/11
f 6/20/12 5/17/12 50/91/12 53/94/12
f 21/62/1 23/64/1 55/96/1 54/95/1
f 23/64/13 9/33/13 56/97/13 55/96/13
f 9/33/14 8/28/14 57/98/14 56/97/14
f 8/28/15 21/62/15 54/95/15 57/98/15
f 25/66/1 17/58/1 59/100/1 58/99/1
f 17/58/1 14/51/1 60/101/1 59/100/1
f 14/51/8 13/46/8 61/102/8 60/101/8
f 13/46/1 25/66/1 58/99/1 61/102/1
f 14/51/1 15/54/1 62/103/1 13/46/1
f 12/44/1 13/46/1 63/106/1 10/36/1
f 9/33/1 10/36/1 64/109/1 8/28/1
f 5/17/8 6/20/8 65/112/8 2/7/8
f 127/217/16 78/160/16 13/47/16 62/104/16
f 127/218/2 62/105/2 15/55/2 80/168/2
f 14/52/17 79/165/17 80/169/17 15/56/17
f 128/220/16 75/150/16 10/37/16 63/107/16
f 128/221/2 63/108/2 13/48/2 78/161/2
f 12/45/17 77/158/17 78/162/17 13/49/17
f 129/223/16 73/142/16 8/29/16 64/110/16
f 129/224/2 64/111/2 10/38/2 75/151/2
f 9/34/17 74/147/17 75/152/17 10/39/17
f 76/154/16 71/134/16 6/21/16 11/41/16
f 76/155/2 11/42/2 8/30/2 73/143/2
f 7/26/17 72/139/17 73/144/17 8/31/17
f 130/226/16 67/120/16 2/8/16 65/113/16
f 130/227/2 65/114/2 6/22/2 71/135/2
f 5/18/17 70/131/17 71/136/17 6/23/17
f 66/115/3 1/2/3 3/11/3 68/124/3
f 68/125/16 3/12/16 4/15/16 69/128/16
f 1/3/17 66/116/17 67/121/17 2/9/17
f 66/117/18 68/126/18 69/129/18 67/122/18
f 72/140/19 71/137/19 76/156/19 73/145/19
f 91/181/18 94/184/18 93/183/18 92/182/18
f 95/185/18 98/188/18 97/187/18 96/186/18
f 99/189/18 102/192/18 101/191/18 100/190/18
f 103/193/18 106/196/18 105/195/18 104/194/18
f 107/197/18 110/200/18 109/199/18 108/198/18
f 111/201/18 114/204/18 113/203/18 112/202/18
f 115/205/20 118/208/20 117/207/20 116/206/20
f 119/209/21 122/212/21 121/211/21 120/210/21
f 123/213/18 126/216/18 125/215/18 124/214/18
f 84/174/18 91/181/18 92/182/18 70/132/18
f 70/132/22 92/182/22 93/183/22 67/123/22
f 67/123/18 93/183/18 94/184/18 83/173/18
f 83/173/18 94/184/18 91/181/18 84/174/18
f 85/175/18 95/185/18 96/186/18 86/176/18
f 86/176/23 96/186/23 97/187/23 70/132/23
f 70/132/18 97/187/18 98/188/18 84/174/18
f 84/174/18 98/188/18 95/185/18 85/175/18
f 87/177/18 99/189/18 100/190/18 88/178/18
f 88/178/18 100/190/18 101/191/18 86/176/18
f 86/176/18 101/191/18 102/192/18 85/175/18
f 85/175/18 102/192/18 99/189/18 87/177/18
f 89/179/18 103/193/18 104/194/18 90/180/18
f 90/180/18 104/194/18 105/195/18 88/178/18
f 88/178/18 105/195/18 106/196/18 87/177/18
f 87/177/18 106/196/18 103/193/18 89/179/18
f 81/171/18 107/197/18 108/198/18 82/172/18
f 82/172/18 108/198/18 109/199/18 90/180/18
f 90/180/18 109/199/18 110/200/18 89/179/18
f 89/179/18 110/200/18 107/197/18 81/171/18
f 88/178/18 111/201/18 112/202/18 90/180/18
f 90/180/18 112/202/18 113/203/18 77/159/18
f 77/159/23 113/203/23 114/204/23 75/153/23
f 75/153/18 114/204/18 111/201/18 88/178/18
f 70/132/24 115/205/24 116/206/24 86/176/24
f 86/176/25 116/206/25 117/207/25 72/140/25
f 72/140/26 117/207/26 118/208/26 71/137/26
f 71/137/27 118/208/27 115/205/27 70/132/27
f 86/176/18 119/209/18 120/210/18 88/178/18
f 88/178/28 120/210/28 121/211/28 74/148/28
f 74/148/29 121/211/29 122/212/29 73/145/29
f 73/145/30 122/212/30 119/209/30 86/176/30
f 90/180/18 123/213/18 124/214/18 82/172/18
f 82/172/18 124/214/18 125/215/18 79/166/18
f 79/166/23 125/215/23 126/216/23 78/163/23
f 78/163/18 126/216/18 123/213/18 90/180/18
f 79/166/18 78/163/18 127/219/18 80/170/18
f 77/159/18 75/153/18 128/222/18 78/163/18
f 74/148/18 73/145/18 129/225/18 75/153/18
f 70/132/23 67/123/23 130/228/23 71/137/23
f 79/167/3 14/53/3 13/50/3 78/164/3
