# Blender 3.4.1
# www.blender.org
mtllib Unbreakable_circle.mtl
o Unbreakable_circle
v 0.277187 0.007502 -3.096069
v 0.112678 0.007502 -3.257556
v -0.117836 0.007502 -3.255420
v -0.279323 0.007502 -3.090911
v -0.277187 0.007502 -2.860397
v -0.112678 0.007502 -2.698910
v 0.117836 0.007502 -2.701046
v 0.279323 0.007502 -2.865555
v 0.049509 0.007502 -3.100962
v 0.121791 0.007502 -3.030008
v -0.051775 0.007502 -3.100024
v -0.122730 0.007502 -3.027741
v -0.121791 0.007502 -2.926458
v -0.049509 0.007502 -2.855503
v 0.051775 0.007502 -2.856442
v 0.122730 0.007502 -2.928724
v 0.101095 0.007502 -3.228843
v 0.084578 0.007502 -3.187897
v 0.067456 0.007502 -3.145453
v 0.165941 0.007502 -3.048777
v 0.208061 0.007502 -3.066683
v 0.248693 0.007502 -3.083956
v -0.105723 0.007502 -3.226926
v -0.088450 0.007502 -3.186294
v -0.070544 0.007502 -3.144174
v -0.250610 0.007502 -3.079328
v -0.209665 0.007502 -3.062811
v -0.167220 0.007502 -3.045689
v -0.248693 0.007502 -2.872510
v -0.208061 0.007502 -2.889783
v -0.165941 0.007502 -2.907689
v -0.101095 0.007502 -2.727623
v -0.084578 0.007502 -2.768568
v -0.067456 0.007502 -2.811013
v 0.105723 0.007502 -2.729540
v 0.088450 0.007502 -2.770172
v 0.070544 0.007502 -2.812292
v 0.250610 0.007502 -2.877138
v 0.209665 0.007502 -2.893655
v 0.167220 0.007502 -2.910777
v 0.011412 0.007502 -2.856068
v 0.025972 0.007502 -2.700195
v 0.015548 0.007502 -2.811782
v 0.019495 0.007502 -2.769533
v 0.023302 0.007502 -2.728776
v -0.019049 0.007502 -2.855786
v -0.034054 0.007502 -2.699638
v -0.025954 0.007502 -2.811397
v -0.032542 0.007502 -2.769051
v -0.038897 0.007502 -2.728199
v 0.036323 0.007502 -2.387256
v -0.026128 0.007502 -2.386677
v -0.122104 0.007502 -2.960219
v -0.122417 0.007502 -2.993980
v -0.277973 0.007502 -2.945274
v -0.277718 0.007502 -3.010059
v -0.166794 0.007502 -2.999689
v -0.166368 0.007502 -2.953689
v -0.209130 0.007502 -3.005135
v -0.208596 0.007502 -2.947459
v -0.249971 0.007502 -3.010389
v -0.249332 0.007502 -2.941449
v -0.614445 0.007502 -2.940768
v -0.615061 0.007502 -3.007155
v -0.018014 0.007502 -3.100337
v 0.015747 0.007502 -3.100650
v -0.027328 0.007502 -3.256258
v 0.028114 0.007502 -3.256772
v 0.021456 0.007502 -3.145027
v -0.024544 0.007502 -3.144600
v 0.026902 0.007502 -3.187363
v -0.030774 0.007502 -3.186828
v 0.032156 0.007502 -3.228204
v -0.036784 0.007502 -3.227565
v -0.028717 0.007502 -3.586214
v 0.025699 0.007502 -3.586711
v 0.122104 0.007502 -2.996247
v 0.122417 0.007502 -2.962485
v 0.277983 0.007502 -3.010127
v 0.278467 0.007502 -2.957893
v 0.166794 0.007502 -2.956777
v 0.166368 0.007502 -3.002777
v 0.209130 0.007502 -2.951331
v 0.208596 0.007502 -3.009007
v 0.249971 0.007502 -2.946077
v 0.249332 0.007502 -3.015016
v 0.584449 0.007502 -3.012317
v 0.584956 0.007502 -2.957592
v 0.277187 -0.001534 -3.096069
v 0.112678 -0.001534 -3.257556
v -0.117836 -0.001534 -3.255420
v -0.279323 -0.001534 -3.090911
v -0.277187 -0.001534 -2.860397
v -0.112678 -0.001534 -2.698910
v 0.117836 -0.001534 -2.701046
v 0.279323 -0.001534 -2.865555
v 0.049509 -0.001534 -3.100962
v 0.121791 -0.001534 -3.030008
v -0.051775 -0.001534 -3.100024
v -0.122730 -0.001534 -3.027741
v -0.121791 -0.001534 -2.926458
v -0.049509 -0.001534 -2.855503
v 0.051775 -0.001534 -2.856442
v 0.122730 -0.001534 -2.928724
v 0.101095 -0.001534 -3.228843
v 0.084578 -0.001534 -3.187897
v 0.067456 -0.001534 -3.145453
v 0.165941 -0.001534 -3.048777
v 0.208061 -0.001534 -3.066683
v 0.248693 -0.001534 -3.083956
v -0.105723 -0.001534 -3.226926
v -0.088450 -0.001534 -3.186294
v -0.070544 -0.001534 -3.144174
v -0.250610 -0.001534 -3.079328
v -0.209665 -0.001534 -3.062811
v -0.167220 -0.001534 -3.045689
v -0.248693 -0.001534 -2.872510
v -0.208061 -0.001534 -2.889783
v -0.165941 -0.001534 -2.907689
v -0.101095 -0.001534 -2.727623
v -0.084578 -0.001534 -2.768568
v -0.067456 -0.001534 -2.811013
v 0.105723 -0.001534 -2.729540
v 0.088450 -0.001534 -2.770172
v 0.070544 -0.001534 -2.812292
v 0.250610 -0.001534 -2.877138
v 0.209665 -0.001534 -2.893655
v 0.167220 -0.001534 -2.910777
v 0.011412 -0.001534 -2.856068
v 0.025972 -0.001534 -2.700195
v 0.015548 -0.001534 -2.811782
v 0.019495 -0.001534 -2.769533
v 0.023302 -0.001534 -2.728776
v -0.019049 -0.001534 -2.855786
v -0.034054 -0.001534 -2.699638
v -0.025954 -0.001534 -2.811397
v -0.032542 -0.001534 -2.769051
v -0.038897 -0.001534 -2.728199
v 0.036323 -0.001534 -2.387256
v -0.026128 -0.001534 -2.386677
v -0.122104 -0.001534 -2.960219
v -0.122417 -0.001534 -2.993980
v -0.277973 -0.001534 -2.945274
v -0.277718 -0.001534 -3.010059
v -0.166794 -0.001534 -2.999689
v -0.166368 -0.001534 -2.953689
v -0.209130 -0.001534 -3.005135
v -0.208596 -0.001534 -2.947459
v -0.249971 -0.001534 -3.010389
v -0.249332 -0.001534 -2.941449
v -0.614445 -0.001534 -2.940768
v -0.615061 -0.001534 -3.007155
v -0.018014 -0.001534 -3.100337
v 0.015747 -0.001534 -3.100650
v -0.027328 -0.001534 -3.256258
v 0.028114 -0.001534 -3.256772
v 0.021456 -0.001534 -3.145027
v -0.024544 -0.001534 -3.144600
v 0.026902 -0.001534 -3.187363
v -0.030774 -0.001534 -3.186828
v 0.032156 -0.001534 -3.228204
v -0.036784 -0.001534 -3.227565
v -0.028717 -0.001534 -3.586214
v 0.025699 -0.001534 -3.586711
v 0.122104 -0.001534 -2.996247
v 0.122417 -0.001534 -2.962485
v 0.277983 -0.001534 -3.010127
v 0.278467 -0.001534 -2.957893
v 0.166794 -0.001534 -2.956777
v 0.166368 -0.001534 -3.002777
v 0.209130 -0.001534 -2.951331
v 0.208596 -0.001534 -3.009007
v 0.249971 -0.001534 -2.946077
v 0.249332 -0.001534 -3.015016
v 0.584449 -0.001534 -3.012317
v 0.584956 -0.001534 -2.957592
vn -0.0000 1.0000 -0.0000
vn -0.0000 -1.0000 -0.0000
vn -0.7005 -0.0000 0.7136
vn 0.0093 -0.0000 1.0000
vn 0.7136 -0.0000 0.7005
vn 1.0000 -0.0000 -0.0093
vn 0.7005 -0.0000 -0.7136
vn -0.0093 -0.0000 -1.0000
vn -0.7136 -0.0000 -0.7005
vn -1.0000 -0.0000 0.0093
vn -0.9998 -0.0000 0.0198
vn 0.9995 -0.0000 -0.0331
vn -0.9997 -0.0000 0.0253
vn 0.0134 -0.0000 0.9999
vn -0.0086 -0.0000 -1.0000
vn -0.0091 -0.0000 -1.0000
vn -1.0000 -0.0000 0.0042
vn 1.0000 -0.0000 -0.0073
vn -0.0071 -0.0000 -1.0000
vn -0.0010 -0.0000 1.0000
vt 0.369261 0.184236
vt 0.621230 0.188147
vt 0.796633 0.369081
vt 0.792722 0.621049
vt 0.611788 0.796452
vt 0.359820 0.792542
vt 0.184417 0.611608
vt 0.188328 0.359639
vt 0.547954 0.357564
vt 0.437244 0.355846
vt 0.625023 0.437063
vt 0.623305 0.547774
vt 0.543806 0.624843
vt 0.433095 0.623124
vt 0.356027 0.543625
vt 0.357745 0.432915
vt 0.607794 0.219212
vt 0.588634 0.263510
vt 0.568773 0.309430
vt 0.417929 0.307089
vt 0.399503 0.260574
vt 0.381727 0.215703
vt 0.765166 0.381546
vt 0.720295 0.399322
vt 0.673780 0.417748
vt 0.761657 0.607613
vt 0.717359 0.588453
vt 0.671439 0.568592
vt 0.599323 0.764986
vt 0.581547 0.720114
vt 0.563121 0.673599
vt 0.373256 0.761477
vt 0.392416 0.717179
vt 0.412277 0.671258
vt 0.215884 0.599142
vt 0.260755 0.581367
vt 0.307270 0.562940
vt 0.219392 0.373075
vt 0.263691 0.392235
vt 0.309611 0.412096
vt 0.386740 0.575307
vt 0.254318 0.683713
vt 0.349117 0.606107
vt 0.313224 0.635490
vt 0.278599 0.663836
vt 0.409918 0.599216
vt 0.299993 0.730829
vt 0.380697 0.638683
vt 0.352820 0.676334
vt 0.325928 0.712656
vt 0.002965 0.916040
vt 0.050485 0.965059
vt 0.570306 0.599153
vt 0.596805 0.573463
vt 0.678410 0.731867
vt 0.728603 0.681905
vt 0.635333 0.603595
vt 0.599227 0.638597
vt 0.672088 0.632340
vt 0.626818 0.676227
vt 0.707546 0.660071
vt 0.653434 0.712528
vt 0.933359 0.997035
vt 0.985468 0.946520
vt 0.599333 0.410564
vt 0.573644 0.384064
vt 0.727764 0.298040
vt 0.685576 0.254522
vt 0.603775 0.345536
vt 0.638778 0.381642
vt 0.632521 0.308781
vt 0.676408 0.354051
vt 0.660251 0.273323
vt 0.712709 0.327435
vt 0.985468 0.045671
vt 0.944056 0.002965
vt 0.410744 0.381536
vt 0.384245 0.407225
vt 0.301804 0.249631
vt 0.260805 0.289377
vt 0.345717 0.377094
vt 0.381823 0.342091
vt 0.308961 0.348348
vt 0.354232 0.304461
vt 0.273504 0.320618
vt 0.327615 0.268160
vt 0.068103 0.009581
vt 0.025148 0.051223
vt 0.369261 0.184236
vt 0.621230 0.188147
vt 0.796633 0.369081
vt 0.792722 0.621049
vt 0.611788 0.796452
vt 0.359820 0.792542
vt 0.184417 0.611608
vt 0.188328 0.359639
vt 0.547954 0.357564
vt 0.437244 0.355846
vt 0.625023 0.437063
vt 0.623305 0.547774
vt 0.543806 0.624843
vt 0.433095 0.623124
vt 0.356027 0.543625
vt 0.357745 0.432915
vt 0.607794 0.219212
vt 0.588634 0.263510
vt 0.568773 0.309430
vt 0.417929 0.307089
vt 0.399503 0.260574
vt 0.381727 0.215703
vt 0.765166 0.381546
vt 0.720295 0.399322
vt 0.673780 0.417748
vt 0.761657 0.607613
vt 0.717359 0.588453
vt 0.671439 0.568592
vt 0.599323 0.764986
vt 0.581547 0.720114
vt 0.563121 0.673599
vt 0.373256 0.761477
vt 0.392416 0.717179
vt 0.412277 0.671258
vt 0.215884 0.599142
vt 0.260755 0.581367
vt 0.307270 0.562940
vt 0.219392 0.373075
vt 0.263691 0.392235
vt 0.309611 0.412096
vt 0.386740 0.575307
vt 0.254318 0.683713
vt 0.349117 0.606107
vt 0.313224 0.635490
vt 0.278599 0.663836
vt 0.409918 0.599216
vt 0.299993 0.730829
vt 0.380697 0.638683
vt 0.352820 0.676334
vt 0.325928 0.712656
vt 0.002965 0.916040
vt 0.050485 0.965059
vt 0.570306 0.599153
vt 0.596805 0.573463
vt 0.678410 0.731867
vt 0.728603 0.681905
vt 0.635333 0.603595
vt 0.599227 0.638597
vt 0.672088 0.632340
vt 0.626818 0.676227
vt 0.707546 0.660071
vt 0.653434 0.712528
vt 0.933359 0.997035
vt 0.985468 0.946520
vt 0.599333 0.410564
vt 0.573644 0.384064
vt 0.727764 0.298040
vt 0.685576 0.254522
vt 0.603775 0.345536
vt 0.638778 0.381642
vt 0.632521 0.308781
vt 0.676408 0.354051
vt 0.660251 0.273323
vt 0.712709 0.327435
vt 0.985468 0.045671
vt 0.944056 0.002965
vt 0.410744 0.381536
vt 0.384245 0.407225
vt 0.301804 0.249631
vt 0.260805 0.289377
vt 0.345717 0.377094
vt 0.381823 0.342091
vt 0.308961 0.348348
vt 0.354232 0.304461
vt 0.273504 0.320618
vt 0.327615 0.268160
vt 0.068103 0.009581
vt 0.025148 0.051223
s 0
f 17/17/1 22/22/1 1/1/1 2/2/1
f 73/73/1 17/17/1 2/2/1 68/68/1
f 26/26/1 23/23/1 3/3/1 4/4/1
f 61/61/1 26/26/1 4/4/1 56/56/1
f 32/32/1 29/29/1 5/5/1 6/6/1
f 50/50/1 32/32/1 6/6/1 47/47/1
f 38/38/1 35/35/1 7/7/1 8/8/1
f 85/85/1 38/38/1 8/8/1 80/80/1
f 78/78/1 16/16/1 40/40/1 81/81/1
f 81/81/1 40/40/1 39/39/1 83/83/1
f 83/83/1 39/39/1 38/38/1 85/85/1
f 16/16/1 15/15/1 37/37/1 40/40/1
f 40/40/1 37/37/1 36/36/1 39/39/1
f 39/39/1 36/36/1 35/35/1 38/38/1
f 46/46/1 14/14/1 34/34/1 48/48/1
f 48/48/1 34/34/1 33/33/1 49/49/1
f 49/49/1 33/33/1 32/32/1 50/50/1
f 14/14/1 13/13/1 31/31/1 34/34/1
f 34/34/1 31/31/1 30/30/1 33/33/1
f 33/33/1 30/30/1 29/29/1 32/32/1
f 54/54/1 12/12/1 28/28/1 57/57/1
f 57/57/1 28/28/1 27/27/1 59/59/1
f 59/59/1 27/27/1 26/26/1 61/61/1
f 12/12/1 11/11/1 25/25/1 28/28/1
f 28/28/1 25/25/1 24/24/1 27/27/1
f 27/27/1 24/24/1 23/23/1 26/26/1
f 66/66/1 9/9/1 19/19/1 69/69/1
f 69/69/1 19/19/1 18/18/1 71/71/1
f 71/71/1 18/18/1 17/17/1 73/73/1
f 9/9/1 10/10/1 20/20/1 19/19/1
f 19/19/1 20/20/1 21/21/1 18/18/1
f 18/18/1 21/21/1 22/22/1 17/17/1
f 36/36/1 44/44/1 45/45/1 35/35/1
f 37/37/1 43/43/1 44/44/1 36/36/1
f 15/15/1 41/41/1 43/43/1 37/37/1
f 35/35/1 45/45/1 42/42/1 7/7/1
f 44/44/1 49/49/1 50/50/1 45/45/1
f 43/43/1 48/48/1 49/49/1 44/44/1
f 41/41/1 46/46/1 48/48/1 43/43/1
f 45/45/1 50/50/1 47/47/1 42/42/1
f 42/42/1 47/47/1 52/52/1 51/51/1
f 30/30/1 60/60/1 62/62/1 29/29/1
f 60/60/1 59/59/1 61/61/1 62/62/1
f 31/31/1 58/58/1 60/60/1 30/30/1
f 58/58/1 57/57/1 59/59/1 60/60/1
f 13/13/1 53/53/1 58/58/1 31/31/1
f 53/53/1 54/54/1 57/57/1 58/58/1
f 29/29/1 62/62/1 55/55/1 5/5/1
f 62/62/1 61/61/1 56/56/1 55/55/1
f 55/55/1 56/56/1 64/64/1 63/63/1
f 24/24/1 72/72/1 74/74/1 23/23/1
f 72/72/1 71/71/1 73/73/1 74/74/1
f 25/25/1 70/70/1 72/72/1 24/24/1
f 70/70/1 69/69/1 71/71/1 72/72/1
f 11/11/1 65/65/1 70/70/1 25/25/1
f 65/65/1 66/66/1 69/69/1 70/70/1
f 23/23/1 74/74/1 67/67/1 3/3/1
f 74/74/1 73/73/1 68/68/1 67/67/1
f 67/67/1 68/68/1 76/76/1 75/75/1
f 21/21/1 84/84/1 86/86/1 22/22/1
f 84/84/1 83/83/1 85/85/1 86/86/1
f 20/20/1 82/82/1 84/84/1 21/21/1
f 82/82/1 81/81/1 83/83/1 84/84/1
f 10/10/1 77/77/1 82/82/1 20/20/1
f 77/77/1 78/78/1 81/81/1 82/82/1
f 22/22/1 86/86/1 79/79/1 1/1/1
f 86/86/1 85/85/1 80/80/1 79/79/1
f 79/79/1 80/80/1 88/88/1 87/87/1
f 105/105/2 90/90/2 89/89/2 110/110/2
f 161/161/2 156/156/2 90/90/2 105/105/2
f 114/114/2 92/92/2 91/91/2 111/111/2
f 149/149/2 144/144/2 92/92/2 114/114/2
f 120/120/2 94/94/2 93/93/2 117/117/2
f 138/138/2 135/135/2 94/94/2 120/120/2
f 126/126/2 96/96/2 95/95/2 123/123/2
f 173/173/2 168/168/2 96/96/2 126/126/2
f 166/166/2 169/169/2 128/128/2 104/104/2
f 169/169/2 171/171/2 127/127/2 128/128/2
f 171/171/2 173/173/2 126/126/2 127/127/2
f 104/104/2 128/128/2 125/125/2 103/103/2
f 128/128/2 127/127/2 124/124/2 125/125/2
f 127/127/2 126/126/2 123/123/2 124/124/2
f 134/134/2 136/136/2 122/122/2 102/102/2
f 136/136/2 137/137/2 121/121/2 122/122/2
f 137/137/2 138/138/2 120/120/2 121/121/2
f 102/102/2 122/122/2 119/119/2 101/101/2
f 122/122/2 121/121/2 118/118/2 119/119/2
f 121/121/2 120/120/2 117/117/2 118/118/2
f 142/142/2 145/145/2 116/116/2 100/100/2
f 145/145/2 147/147/2 115/115/2 116/116/2
f 147/147/2 149/149/2 114/114/2 115/115/2
f 100/100/2 116/116/2 113/113/2 99/99/2
f 116/116/2 115/115/2 112/112/2 113/113/2
f 115/115/2 114/114/2 111/111/2 112/112/2
f 154/154/2 157/157/2 107/107/2 97/97/2
f 157/157/2 159/159/2 106/106/2 107/107/2
f 159/159/2 161/161/2 105/105/2 106/106/2
f 97/97/2 107/107/2 108/108/2 98/98/2
f 107/107/2 106/106/2 109/109/2 108/108/2
f 106/106/2 105/105/2 110/110/2 109/109/2
f 124/124/2 123/123/2 133/133/2 132/132/2
f 125/125/2 124/124/2 132/132/2 131/131/2
f 103/103/2 125/125/2 131/131/2 129/129/2
f 123/123/2 95/95/2 130/130/2 133/133/2
f 132/132/2 133/133/2 138/138/2 137/137/2
f 131/131/2 132/132/2 137/137/2 136/136/2
f 129/129/2 131/131/2 136/136/2 134/134/2
f 133/133/2 130/130/2 135/135/2 138/138/2
f 130/130/2 139/139/2 140/140/2 135/135/2
f 118/118/2 117/117/2 150/150/2 148/148/2
f 148/148/2 150/150/2 149/149/2 147/147/2
f 119/119/2 118/118/2 148/148/2 146/146/2
f 146/146/2 148/148/2 147/147/2 145/145/2
f 101/101/2 119/119/2 146/146/2 141/141/2
f 141/141/2 146/146/2 145/145/2 142/142/2
f 117/117/2 93/93/2 143/143/2 150/150/2
f 150/150/2 143/143/2 144/144/2 149/149/2
f 143/143/2 151/151/2 152/152/2 144/144/2
f 112/112/2 111/111/2 162/162/2 160/160/2
f 160/160/2 162/162/2 161/161/2 159/159/2
f 113/113/2 112/112/2 160/160/2 158/158/2
f 158/158/2 160/160/2 159/159/2 157/157/2
f 99/99/2 113/113/2 158/158/2 153/153/2
f 153/153/2 158/158/2 157/157/2 154/154/2
f 111/111/2 91/91/2 155/155/2 162/162/2
f 162/162/2 155/155/2 156/156/2 161/161/2
f 155/155/2 163/163/2 164/164/2 156/156/2
f 109/109/2 110/110/2 174/174/2 172/172/2
f 172/172/2 174/174/2 173/173/2 171/171/2
f 108/108/2 109/109/2 172/172/2 170/170/2
f 170/170/2 172/172/2 171/171/2 169/169/2
f 98/98/2 108/108/2 170/170/2 165/165/2
f 165/165/2 170/170/2 169/169/2 166/166/2
f 110/110/2 89/89/2 167/167/2 174/174/2
f 174/174/2 167/167/2 168/168/2 173/173/2
f 167/167/2 175/175/2 176/176/2 168/168/2
f 10/10/3 9/9/3 97/97/3 98/98/3
f 9/9/4 66/66/4 154/154/4 97/97/4
f 11/11/5 12/12/5 100/100/5 99/99/5
f 12/12/6 54/54/6 142/142/6 100/100/6
f 13/13/7 14/14/7 102/102/7 101/101/7
f 14/14/8 46/46/8 134/134/8 102/102/8
f 15/15/9 16/16/9 104/104/9 103/103/9
f 16/16/10 78/78/10 166/166/10 104/104/10
f 2/2/7 1/1/7 89/89/7 90/90/7
f 68/68/8 2/2/8 90/90/8 156/156/8
f 4/4/9 3/3/9 91/91/9 92/92/9
f 56/56/11 4/4/11 92/92/11 144/144/11
f 6/6/3 5/5/3 93/93/3 94/94/3
f 47/47/4 6/6/4 94/94/4 135/135/4
f 8/8/5 7/7/5 95/95/5 96/96/5
f 80/80/6 8/8/6 96/96/6 168/168/6
f 41/41/8 15/15/8 103/103/8 129/129/8
f 7/7/4 42/42/4 130/130/4 95/95/4
f 46/46/8 41/41/8 129/129/8 134/134/8
f 51/51/4 52/52/4 140/140/4 139/139/4
f 42/42/12 51/51/12 139/139/12 130/130/12
f 52/52/13 47/47/13 135/135/13 140/140/13
f 53/53/6 13/13/6 101/101/6 141/141/6
f 54/54/6 53/53/6 141/141/6 142/142/6
f 5/5/10 55/55/10 143/143/10 93/93/10
f 63/63/10 64/64/10 152/152/10 151/151/10
f 55/55/14 63/63/14 151/151/14 143/143/14
f 64/64/15 56/56/15 144/144/15 152/152/15
f 65/65/4 11/11/4 99/99/4 153/153/4
f 66/66/4 65/65/4 153/153/4 154/154/4
f 3/3/8 67/67/8 155/155/8 91/91/8
f 75/75/16 76/76/16 164/164/16 163/163/16
f 67/67/17 75/75/17 163/163/17 155/155/17
f 76/76/18 68/68/18 156/156/18 164/164/18
f 77/77/10 10/10/10 98/98/10 165/165/10
f 78/78/10 77/77/10 165/165/10 166/166/10
f 1/1/6 79/79/6 167/167/6 89/89/6
f 87/87/6 88/88/6 176/176/6 175/175/6
f 79/79/19 87/87/19 175/175/19 167/167/19
f 88/88/20 80/80/20 168/168/20 176/176/20
