# Blender 3.4.1
# www.blender.org
mtllib basic.mtl
o Arena.002
v -0.731245 0.007396 -3.275452
v -0.725767 0.007395 -2.684440
v -0.728186 0.007395 -2.945465
v -0.728825 0.007395 -3.014427
v -0.617121 0.007396 -3.229415
v -0.612516 0.007395 -2.732584
v -0.612520 -0.000275 -2.733078
v -0.617107 -0.000473 -3.227892
v -0.730438 0.007396 -3.188443
v -0.729632 0.007396 -3.101435
v -0.726573 0.007395 -2.771448
v -0.727379 0.007395 -2.858457
v -0.702852 0.007396 -3.263998
v -0.701034 0.007395 -3.067914
v -0.697591 0.007395 -2.696418
v -0.699408 0.007395 -2.892502
v -0.698197 0.007395 -2.761779
v -0.698802 0.007395 -2.827141
v -0.701640 0.007396 -3.133275
v -0.702246 0.007396 -3.198637
v -0.730035 0.007396 -3.144939
v -0.698500 0.007395 -2.794460
v -0.701943 0.007396 -3.165956
v -0.726976 0.007395 -2.814952
v -0.728505 0.007395 -2.979946
v -0.614818 0.007395 -2.980999
v -0.614813 -0.000374 -2.980485
v -0.700221 0.007395 -2.980208
v -0.613667 0.007395 -2.856792
v -0.699814 0.007395 -2.936355
v -0.728346 0.007395 -2.962706
v -0.613667 -0.000324 -2.856781
v -0.613092 0.007395 -2.794688
v -0.699611 0.007395 -2.914429
v -0.728266 0.007395 -2.954085
v -0.613093 -0.000299 -2.794930
v -0.728426 0.007395 -2.971326
v -0.614240 -0.000349 -2.918633
v -0.614243 0.007395 -2.918896
v -0.700018 0.007395 -2.958282
v -0.728665 0.007395 -2.997187
v -0.615960 -0.000424 -3.104188
v -0.615970 0.007396 -3.105207
v -0.700628 0.007395 -3.024061
v -0.728745 0.007395 -3.005807
v -0.616534 -0.000449 -3.166040
v -0.616545 0.007396 -3.167311
v -0.700831 0.007395 -3.045988
v -0.615394 0.007395 -3.043103
v -0.700424 0.007395 -3.002134
v -0.728585 0.007395 -2.988566
v -0.615387 -0.000399 -3.042337
v -0.659078 0.007396 -3.148664
v -0.655962 0.007395 -2.812543
v -0.657520 0.007395 -2.980604
v -0.656741 0.007395 -2.896574
v -0.656351 0.007395 -2.854558
v -0.657130 0.007395 -2.938589
v -0.658299 0.007395 -3.064634
v -0.658688 0.007396 -3.106649
v -0.657909 0.007395 -3.022619
v -0.727782 0.007395 -2.901961
v -0.729228 0.007395 -3.057931
v -0.701337 0.007396 -3.100595
v -0.699105 0.007395 -2.859822
v -0.636169 0.007395 -2.980802
v -0.635204 0.007395 -2.876683
v -0.634722 0.007395 -2.824623
v -0.635687 0.007395 -2.928742
v -0.637134 0.007396 -3.084921
v -0.637617 0.007396 -3.136980
v -0.636652 0.007395 -3.032861
v -0.638099 0.007396 -3.189040
v -0.634239 0.007395 -2.772563
v -0.659986 0.007396 -3.246706
v -0.659683 0.007396 -3.214026
v -0.659381 0.007396 -3.181345
v -0.659280 0.007396 -3.170451
v -0.659178 0.007396 -3.159558
v -0.638554 0.007396 -3.238061
v -0.638402 0.007396 -3.221720
v -0.638251 0.007396 -3.205380
v -0.636187 0.007395 -2.740650
v -0.635663 0.007395 -2.749241
v -0.635164 0.007395 -2.757403
vn 1.0000 0.0001 -0.0093
vn -0.0000 1.0000 -0.0000
vn 1.0000 -0.0000 -0.0093
vt 0.117347 0.998914
vt 0.117347 0.001086
vt 0.117348 0.441785
vt 0.117349 0.558216
vt 0.739430 0.039038
vt 0.384122 0.919409
vt 0.739431 0.962729
vt 0.384122 0.080591
vt 0.667316 0.961810
vt 0.665444 0.041870
vt 0.117348 0.852013
vt 0.117347 0.705115
vt 0.117348 0.147985
vt 0.117349 0.294886
vt 0.183718 0.979133
vt 0.183719 0.648077
vt 0.183719 0.020867
vt 0.183720 0.351923
vt 0.183718 0.131219
vt 0.183720 0.241571
vt 0.183719 0.758429
vt 0.183719 0.868781
vt 0.117348 0.778564
vt 0.183719 0.186395
vt 0.183719 0.813605
vt 0.117349 0.221436
vt 0.117348 0.500000
vt 0.739430 0.500883
vt 0.384122 0.500000
vt 0.666380 0.501840
vt 0.183720 0.500000
vt 0.739431 0.731806
vt 0.384122 0.290296
vt 0.183720 0.425962
vt 0.117348 0.470893
vt 0.666848 0.731825
vt 0.739431 0.847268
vt 0.384122 0.185443
vt 0.183720 0.388943
vt 0.117348 0.456339
vt 0.667082 0.846818
vt 0.117348 0.485446
vt 0.666614 0.616832
vt 0.739431 0.616344
vt 0.384122 0.395148
vt 0.183720 0.462981
vt 0.117348 0.529108
vt 0.665913 0.271855
vt 0.739430 0.269961
vt 0.384122 0.709704
vt 0.183720 0.574039
vt 0.117348 0.543662
vt 0.665679 0.156863
vt 0.739430 0.154499
vt 0.384122 0.814557
vt 0.183719 0.611058
vt 0.739430 0.385422
vt 0.384122 0.604852
vt 0.183720 0.537019
vt 0.117348 0.514554
vt 0.666146 0.386847
vt 0.283921 0.783743
vt 0.283921 0.216257
vt 0.283921 0.500000
vt 0.283921 0.358129
vt 0.283921 0.287193
vt 0.283921 0.429064
vt 0.283921 0.641872
vt 0.283921 0.712807
vt 0.283921 0.570935
vt 0.117349 0.368336
vt 0.117348 0.631665
vt 0.183719 0.703253
vt 0.183720 0.296747
vt 0.334022 0.500000
vt 0.334022 0.324212
vt 0.334022 0.236318
vt 0.334022 0.412106
vt 0.334021 0.675788
vt 0.334022 0.763682
vt 0.334022 0.587893
vt 0.334021 0.851576
vt 0.334022 0.148424
vt 0.283920 0.949271
vt 0.283920 0.894095
vt 0.283920 0.838919
vt 0.283920 0.820527
vt 0.283921 0.802135
vt 0.334021 0.934340
vt 0.334021 0.906752
vt 0.334021 0.879164
vt 0.328756 0.094578
vt 0.330174 0.109073
vt 0.331521 0.122845
s 0
usemtl defaultMat
f 33/37/1 6/7/1 7/9/1 36/41/1
f 17/19/2 11/13/2 2/2/2 15/17/2
f 34/39/2 35/40/2 3/3/2 16/18/2
f 64/73/2 63/72/2 4/4/2 14/16/2
f 84/93/2 83/92/2 6/8/2
f 74/83/2 85/94/2 6/8/2
f 81/90/2 82/91/2 5/6/2
f 80/89/2 81/90/2 5/6/2
f 1/1/2 9/11/2 20/22/2 13/15/2
f 21/23/2 10/12/2 19/21/2 23/25/2
f 62/71/2 12/14/2 18/20/2 65/74/2
f 24/26/2 11/13/2 17/19/2 22/24/2
f 79/88/2 64/73/2 14/16/2 53/62/2
f 57/66/2 34/39/2 16/18/2 54/63/2
f 83/92/2 17/19/2 15/17/2
f 12/14/2 24/26/2 22/24/2 18/20/2
f 9/11/2 21/23/2 23/25/2 20/22/2
f 61/70/2 50/59/2 28/31/2 55/64/2
f 50/59/2 51/60/2 25/27/2 28/31/2
f 49/57/3 26/28/3 27/30/3 52/61/3
f 58/67/2 40/46/2 30/34/2 56/65/2
f 40/46/2 37/42/2 31/35/2 30/34/2
f 39/44/1 29/32/1 32/36/1 38/43/1
f 56/65/2 30/34/2 34/39/2 57/66/2
f 30/34/2 31/35/2 35/40/2 34/39/2
f 29/32/1 33/37/1 36/41/1 32/36/1
f 26/28/3 39/44/3 38/43/3 27/30/3
f 28/31/2 25/27/2 37/42/2 40/46/2
f 55/64/2 28/31/2 40/46/2 58/67/2
f 47/54/3 43/49/3 42/48/3 46/53/3
f 48/56/2 45/52/2 41/47/2 44/51/2
f 60/69/2 48/56/2 44/51/2 59/68/2
f 53/62/2 14/16/2 48/56/2 60/69/2
f 14/16/2 4/4/2 45/52/2 48/56/2
f 5/5/3 47/54/3 46/53/3 8/10/3
f 43/49/3 49/57/3 52/61/3 42/48/3
f 44/51/2 41/47/2 51/60/2 50/59/2
f 59/68/2 44/51/2 50/59/2 61/70/2
f 70/79/2 59/68/2 61/70/2 72/81/2
f 73/82/2 53/62/2 60/69/2 71/80/2
f 71/80/2 60/69/2 59/68/2 70/79/2
f 66/75/2 55/64/2 58/67/2 69/78/2
f 67/76/2 56/65/2 57/66/2 68/77/2
f 69/78/2 58/67/2 56/65/2 67/76/2
f 72/81/2 61/70/2 55/64/2 66/75/2
f 68/77/2 57/66/2 54/63/2 74/83/2
f 33/38/2 68/77/2 74/83/2 6/8/2
f 49/58/2 72/81/2 66/75/2 26/29/2
f 39/45/2 69/78/2 67/76/2 29/33/2
f 29/33/2 67/76/2 68/77/2 33/38/2
f 26/29/2 66/75/2 69/78/2 39/45/2
f 47/55/2 71/80/2 70/79/2 43/50/2
f 5/6/2 73/82/2 71/80/2 47/55/2
f 43/50/2 70/79/2 72/81/2 49/58/2
f 78/87/2 79/88/2 73/82/2
f 3/3/2 62/71/2 65/74/2 16/18/2
f 16/18/2 65/74/2 74/83/2 54/63/2
f 19/21/2 10/12/2 63/72/2 64/73/2
f 77/86/2 19/21/2 78/87/2
f 85/94/2 84/93/2 6/8/2
f 19/21/2 64/73/2 79/88/2 78/87/2
f 82/91/2 77/86/2 78/87/2 73/82/2
f 20/22/2 23/25/2 19/21/2 77/86/2 76/85/2
f 13/15/2 20/22/2 76/85/2 75/84/2
f 73/82/2 79/88/2 53/62/2
f 76/85/2 77/86/2 82/91/2 81/90/2
f 75/84/2 76/85/2 81/90/2 80/89/2
f 5/6/2 82/91/2 73/82/2
f 18/20/2 22/24/2 84/93/2 85/94/2
f 22/24/2 17/19/2 83/92/2 84/93/2
f 65/74/2 18/20/2 85/94/2 74/83/2
f 6/8/2 83/92/2 15/17/2
