# Blender 3.3.1
# www.blender.org
mtllib door.mtl
o door
v 0.715608 -0.786637 0.036275
v 0.618479 0.618058 0.027899
v -0.254700 -0.786637 0.036275
v -0.157571 0.618058 0.027899
v 0.715608 0.397745 0.036276
v -0.254700 0.397745 0.036276
v 0.758851 0.543608 0.032088
v -0.297939 0.543608 0.032088
v 0.708495 0.580833 0.029997
v -0.247585 0.580833 0.029997
v 0.787022 -0.786637 -0.112712
v 0.618479 0.618058 -0.104326
v -0.326114 -0.786637 -0.112712
v -0.157571 0.618058 -0.104326
v 0.787022 0.469159 -0.112710
v -0.326114 0.469159 -0.112710
v 0.758851 0.543608 -0.108514
v -0.297939 0.543608 -0.108514
v 0.708495 0.580833 -0.106424
v -0.247585 0.580833 -0.106424
v 0.787022 -0.786637 0.036275
v -0.326114 -0.786637 0.036275
v 0.787022 0.469159 0.036276
v -0.326114 0.469159 0.036276
v 0.758851 0.543608 0.006156
v 0.787022 -0.786637 0.008687
v 0.618479 0.618058 0.003622
v -0.326114 -0.786637 0.008687
v -0.297939 0.543608 0.006156
v 0.708495 0.580833 0.004891
v -0.247585 0.580833 0.004891
v -0.157571 0.618058 0.003622
v 0.787022 0.469159 0.008687
v -0.326114 0.469159 0.008687
v 0.715608 -0.786637 0.008277
v -0.254700 -0.786637 0.008277
v 0.715608 0.397745 0.007867
v -0.254700 0.397745 0.007867
v -0.095863 -0.187333 0.015069
v -0.095863 -0.045819 0.015069
v -0.196046 -0.045819 0.015069
v -0.196046 -0.187333 0.015069
v -0.196046 -0.224253 0.016897
v -0.196046 -0.187333 0.021403
v -0.222184 -0.187333 0.016897
v -0.196046 -0.213439 0.020083
v -0.211137 -0.208649 0.019499
v -0.214528 -0.187333 0.020083
v -0.214528 -0.213439 0.016897
v -0.196046 -0.045819 0.021403
v -0.196046 -0.008899 0.016897
v -0.222184 -0.045819 0.016897
v -0.196046 -0.019713 0.020083
v -0.211137 -0.024503 0.019499
v -0.214528 -0.019713 0.016897
v -0.214528 -0.045819 0.020083
v -0.196046 -0.224253 -0.000377
v -0.222184 -0.187333 -0.000377
v -0.196046 -0.187333 -0.004884
v -0.214528 -0.213439 -0.000377
v -0.211137 -0.208649 -0.002979
v -0.214528 -0.187333 -0.003564
v -0.196046 -0.213439 -0.003564
v -0.196046 -0.008899 -0.000377
v -0.196046 -0.045819 -0.004884
v -0.222184 -0.045819 -0.000377
v -0.196046 -0.019713 -0.003564
v -0.211137 -0.024503 -0.002979
v -0.214528 -0.045819 -0.003564
v -0.214528 -0.019713 -0.000377
v -0.095863 -0.224253 0.016897
v -0.069725 -0.187333 0.016897
v -0.095863 -0.187333 0.021403
v -0.077381 -0.213439 0.016897
v -0.080772 -0.208649 0.019499
v -0.077381 -0.187333 0.020083
v -0.095863 -0.213439 0.020083
v -0.095863 -0.008899 0.016897
v -0.095863 -0.045819 0.021403
v -0.069725 -0.045819 0.016897
v -0.095863 -0.019713 0.020083
v -0.080772 -0.024503 0.019499
v -0.077381 -0.045819 0.020083
v -0.077381 -0.019713 0.016897
v -0.095863 -0.224253 -0.000377
v -0.095863 -0.187333 -0.004884
v -0.069725 -0.187333 -0.000377
v -0.095863 -0.213439 -0.003564
v -0.080772 -0.208649 -0.002979
v -0.077381 -0.187333 -0.003564
v -0.077381 -0.213439 -0.000377
v -0.095863 -0.008899 -0.000377
v -0.069725 -0.045819 -0.000377
v -0.095863 -0.045819 -0.004884
v -0.077381 -0.019713 -0.000377
v -0.080772 -0.024503 -0.002979
v -0.077381 -0.045819 -0.003564
v -0.095863 -0.019713 -0.003564
vn -0.0000 0.0563 0.9984
vn -0.0000 -1.0000 -0.0000
vn -1.0000 -0.0000 -0.0000
vn -0.0000 0.0562 0.9984
vn -0.9353 0.3539 -0.0000
vn -0.0000 0.0561 0.9984
vn -0.5945 0.8041 -0.0000
vn 0.9353 0.3539 -0.0000
vn 1.0000 -0.0000 -0.0000
vn -0.0000 1.0000 -0.0000
vn -0.3822 0.9241 -0.0000
vn 0.3822 0.9241 -0.0000
vn -0.0000 0.0563 -0.9984
vn -0.0000 -0.0000 -1.0000
vn -0.0000 0.0561 -0.9984
vn 0.5944 0.8041 -0.0000
vn -0.0000 -0.0000 1.0000
vn -0.0000 0.0003 1.0000
vn -0.1614 -0.3122 0.9362
vn -0.0629 -0.0445 0.9970
vn -0.4236 -0.1098 0.8992
vn -0.0629 0.0445 0.9970
vn -0.1614 0.3122 0.9362
vn -0.4236 0.1098 0.8992
vn -0.1614 -0.3122 -0.9362
vn -0.4236 -0.1098 -0.8992
vn -0.0629 -0.0445 -0.9970
vn -0.1614 0.3122 -0.9362
vn -0.0629 0.0445 -0.9970
vn -0.4236 0.1098 -0.8992
vn 0.1614 -0.3122 0.9362
vn 0.4236 -0.1098 0.8992
vn 0.0629 -0.0445 0.9970
vn 0.1614 0.3122 0.9362
vn 0.0629 0.0445 0.9970
vn 0.4236 0.1098 0.8992
vn 0.1614 -0.3122 -0.9362
vn 0.0629 -0.0445 -0.9970
vn 0.4236 -0.1098 -0.8992
vn 0.1614 0.3122 -0.9362
vn 0.4236 0.1098 -0.8992
vn 0.0629 0.0445 -0.9970
vn -0.5050 -0.8631 -0.0000
vn -0.9596 -0.2814 -0.0000
vn -0.0712 -0.0000 0.9975
vn -0.3843 -0.0000 0.9232
vn -0.5050 0.8631 -0.0000
vn -0.9596 0.2814 -0.0000
vn -0.0712 -0.0000 -0.9975
vn -0.3843 -0.0000 -0.9232
vn -0.0000 -0.2827 -0.9592
vn -0.0000 -0.0505 -0.9987
vn -0.0000 0.2827 -0.9592
vn -0.0000 0.0505 -0.9987
vn 0.3843 -0.0000 -0.9232
vn 0.0712 -0.0000 -0.9975
vn 0.5050 -0.8631 -0.0000
vn 0.9596 -0.2814 -0.0000
vn 0.5050 0.8631 -0.0000
vn 0.9596 0.2814 -0.0000
vn 0.0712 -0.0000 0.9975
vn 0.3843 -0.0000 0.9232
vn -0.0000 -0.2827 0.9592
vn -0.0000 -0.0505 0.9987
vn -0.0000 0.2827 0.9592
vn -0.0000 0.0505 0.9987
vt 0.249250 0.958590
vt 0.755550 0.346170
vt 0.736050 0.342800
vt 0.715840 0.738910
vt 0.777880 0.351690
vt 0.469810 0.704900
vt 0.511110 0.562680
vt 0.972180 0.821490
vt 0.568480 0.550500
vt 0.067030 0.534870
vt 0.454220 0.848500
vt 0.590810 0.556010
vt 0.648850 0.633730
vt 0.661950 0.400340
vt 0.552480 0.549740
vt 0.458800 0.777170
vt 0.505790 0.590450
vt 0.739410 0.345310
vt 0.703710 0.682660
vt 0.063660 0.442700
vt 0.445900 0.737270
vt 0.481990 0.596650
vt 0.689050 0.640690
vt 0.694260 0.366590
vt 0.453210 0.722930
vt 0.493030 0.583320
vt 0.673590 0.635360
vt 0.681470 0.379990
vt 0.231990 0.885560
vt 0.372780 0.389990
vt 0.713740 0.693630
vt 0.261680 0.001950
vt 0.483360 0.537030
vt 0.060130 0.441590
vt 0.874400 0.026430
vt 0.423440 0.815430
vt 0.042980 0.037260
vt 0.634210 0.374730
vt 0.434840 0.588830
vt 0.316190 0.036310
vt 0.001950 0.087050
vt 0.675780 0.323820
vt 0.304580 0.016610
vt 0.451020 0.570900
vt 0.006830 0.064710
vt 0.663170 0.340910
vt 0.288700 0.008370
vt 0.463790 0.557460
vt 0.019350 0.051900
vt 0.652230 0.354180
vt 0.241060 0.940230
vt 0.267390 0.908980
vt 0.732480 0.726460
vt 0.910100 0.049450
vt 0.978870 0.802060
vt 0.433690 0.851690
vt 0.448080 0.759240
vt 0.469400 0.613650
vt 0.710570 0.348290
vt 0.703160 0.658060
vt 0.476400 0.591760
vt 0.261010 0.904360
vt 0.727200 0.721280
vt 0.506020 0.557950
vt 0.903450 0.045230
vt 0.433680 0.844290
vt 0.688640 0.361730
vt 0.487730 0.578480
vt 0.676170 0.375160
vt 0.656860 0.395630
vt 0.463000 0.609070
vt 0.704080 0.343840
vt 0.366290 0.339940
vt 0.761440 0.351570
vt 0.730190 0.337350
vt 0.709590 0.733170
vt 0.771980 0.346290
vt 0.642470 0.361540
vt 0.574370 0.555890
vt 0.063680 0.534990
vt 0.454480 0.840010
vt 0.584910 0.550610
vt 0.558470 0.555210
vt 0.392650 0.002820
vt 0.499850 0.584920
vt 0.745400 0.350780
vt 0.668830 0.024420
vt 0.060260 0.442820
vt 0.005780 0.964290
vt 0.063080 0.536270
vt 0.524090 0.575770
vt 0.544620 0.580870
vt 0.045820 0.969700
vt 0.064430 0.536180
vt 0.516150 0.583540
vt 0.041990 0.998040
vt 0.065150 0.537350
vt 0.001950 0.992630
vt 0.063800 0.537440
vt 0.552570 0.573100
vt 0.837650 0.670460
vt 0.641420 0.559020
vt 0.700120 0.635140
vt 0.836640 0.659960
vt 0.063810 0.537530
vt 0.552740 0.574900
vt 0.844800 0.660720
vt 0.627630 0.560530
vt 0.696000 0.641650
vt 0.837210 0.667280
vt 0.841200 0.666030
vt 0.842480 0.660260
vt 0.697280 0.639650
vt 0.842240 0.667560
vt 0.635350 0.559690
vt 0.516320 0.585340
vt 0.734120 0.658260
vt 0.065150 0.537440
vt 0.573670 0.566220
vt 0.734320 0.669350
vt 0.728980 0.664020
vt 0.587500 0.564780
vt 0.734680 0.666150
vt 0.731760 0.665910
vt 0.730880 0.667460
vt 0.579790 0.565570
vt 0.730380 0.662140
vt 0.723550 0.768760
vt 0.640900 0.554110
vt 0.627100 0.555620
vt 0.717550 0.780430
vt 0.714040 0.773600
vt 0.723260 0.774920
vt 0.634810 0.554780
vt 0.721440 0.774640
vt 0.716460 0.778320
vt 0.720680 0.770210
vt 0.573230 0.561300
vt 0.668390 0.796420
vt 0.677940 0.791690
vt 0.587000 0.559860
vt 0.681300 0.798580
vt 0.671270 0.794970
vt 0.674350 0.798230
vt 0.680270 0.796450
vt 0.673490 0.799870
vt 0.579270 0.560680
vt 0.810900 0.675850
vt 0.669830 0.556070
vt 0.683200 0.555320
vt 0.804850 0.672880
vt 0.806840 0.665560
vt 0.063080 0.536180
vt 0.524260 0.577570
vt 0.807180 0.675250
vt 0.675830 0.555480
vt 0.807510 0.673510
vt 0.805210 0.670590
vt 0.810160 0.672720
vt 0.545180 0.568640
vt 0.760460 0.673950
vt 0.544790 0.582670
vt 0.764730 0.664170
vt 0.064420 0.536090
vt 0.722940 0.561180
vt 0.532390 0.571800
vt 0.766260 0.671770
vt 0.761270 0.670850
vt 0.763690 0.671940
vt 0.766060 0.669440
vt 0.763910 0.673680
vt 0.539470 0.569430
vt 0.710780 0.743290
vt 0.669340 0.551170
vt 0.701220 0.748010
vt 0.697850 0.741120
vt 0.683660 0.550380
vt 0.707890 0.744740
vt 0.704810 0.741470
vt 0.698890 0.743260
vt 0.705670 0.739840
vt 0.675510 0.550620
vt 0.655590 0.770950
vt 0.544710 0.563710
vt 0.723810 0.556350
vt 0.661600 0.759270
vt 0.530730 0.567300
vt 0.665110 0.766100
vt 0.655890 0.764780
vt 0.538330 0.564640
vt 0.657710 0.765060
vt 0.662690 0.761380
vt 0.658470 0.769500
s 0
usemtl defaultMat.005
f 9/25/1 2/6/1 4/13/1 10/27/1
f 5/15/2 6/18/2 38/86/2 37/83/2
f 28/65/3 22/54/3 24/59/3 34/72/3
f 23/57/4 7/21/4 8/23/4 24/60/4
f 34/72/5 24/59/5 8/24/5 29/67/5
f 7/21/6 9/25/6 10/27/6 8/23/6
f 29/67/7 8/24/7 10/28/7 31/69/7
f 33/71/8 15/39/8 17/44/8 25/61/8
f 26/62/9 11/29/9 15/39/9 33/71/9
f 32/70/10 4/14/10 2/7/10 27/64/10
f 31/69/11 10/28/11 4/14/11 32/70/11
f 30/68/12 19/48/12 12/33/12 27/64/12
f 19/47/13 20/49/13 14/37/13 12/32/13
f 11/30/14 13/34/14 16/41/14 15/40/14
f 15/40/13 16/41/13 18/45/13 17/43/13
f 17/43/15 18/45/15 20/49/15 19/47/15
f 25/61/16 17/44/16 19/48/16 30/68/16
f 9/26/12 30/68/12 27/64/12 2/7/12
f 5/16/17 1/1/17 21/51/17 23/57/17
f 6/19/17 5/16/17 23/57/17 24/60/17
f 3/8/17 6/19/17 24/60/17 22/55/17
f 7/22/16 25/61/16 30/68/16 9/26/16
f 20/50/11 31/69/11 32/70/11 14/38/11
f 14/38/10 32/70/10 27/64/10 12/33/10
f 21/52/9 26/62/9 33/71/9 23/58/9
f 23/58/8 33/71/8 25/61/8 7/22/8
f 18/46/7 29/67/7 31/69/7 20/50/7
f 16/42/5 34/72/5 29/67/5 18/46/5
f 13/35/3 28/65/3 34/72/3 16/42/3
f 35/73/18 37/84/18 38/87/18 36/78/18
f 3/9/10 1/2/10 35/74/10 36/79/10
f 6/20/9 3/10/9 36/80/9 38/88/9
f 1/3/3 5/17/3 37/85/3 35/75/3
f 79/162/2 50/116/2 41/95/2 40/92/2
f 87/177/9 93/185/9 80/165/9 72/150/9
f 39/89/17 40/93/17 41/96/17 42/98/17
f 92/184/10 64/138/10 51/119/10 78/160/10
f 45/108/3 52/122/3 66/141/3 58/130/3
f 59/132/14 65/140/14 94/188/14 86/175/14
f 43/101/19 46/110/19 47/111/19 49/114/19
f 44/104/20 48/112/20 47/111/20 46/110/20
f 45/107/21 49/114/21 47/111/21 48/112/21
f 50/117/22 53/123/22 54/124/22 56/127/22
f 51/120/23 55/125/23 54/124/23 53/123/23
f 52/121/24 56/127/24 54/124/24 55/125/24
f 57/128/25 60/133/25 61/135/25 63/137/25
f 58/131/26 62/136/26 61/135/26 60/133/26
f 59/132/27 63/137/27 61/135/27 62/136/27
f 64/139/28 67/143/28 68/144/28 70/146/28
f 65/140/29 69/145/29 68/144/29 67/143/29
f 66/142/30 70/146/30 68/144/30 69/145/30
f 71/148/31 74/155/31 75/157/31 77/159/31
f 72/151/32 76/158/32 75/157/32 74/155/32
f 73/152/33 77/159/33 75/157/33 76/158/33
f 78/161/34 81/168/34 82/169/34 84/171/34
f 79/163/35 83/170/35 82/169/35 81/168/35
f 80/167/36 84/171/36 82/169/36 83/170/36
f 85/173/37 88/178/37 89/179/37 91/181/37
f 86/175/38 90/180/38 89/179/38 88/178/38
f 87/176/39 91/181/39 89/179/39 90/180/39
f 92/183/40 95/189/40 96/191/40 98/193/40
f 93/186/41 97/192/41 96/191/41 95/189/41
f 94/188/42 98/193/42 96/191/42 97/192/42
f 57/129/43 43/102/43 49/115/43 60/134/43
f 60/134/44 49/115/44 45/108/44 58/130/44
f 44/103/45 50/117/45 56/127/45 48/113/45
f 48/113/46 56/127/46 52/121/46 45/109/46
f 51/119/47 64/138/47 70/147/47 55/126/47
f 55/126/48 70/147/48 66/141/48 52/122/48
f 65/140/49 59/132/49 62/136/49 69/145/49
f 69/145/50 62/136/50 58/131/50 66/142/50
f 85/173/51 57/128/51 63/137/51 88/178/51
f 88/178/52 63/137/52 59/132/52 86/175/52
f 64/139/53 92/183/53 98/193/53 67/143/53
f 67/143/54 98/193/54 94/188/54 65/140/54
f 93/186/55 87/176/55 90/180/55 97/192/55
f 97/192/56 90/180/56 86/175/56 94/188/56
f 71/149/57 85/174/57 91/182/57 74/156/57
f 74/156/58 91/182/58 87/177/58 72/150/58
f 92/184/59 78/160/59 84/172/59 95/190/59
f 95/190/60 84/172/60 80/166/60 93/187/60
f 79/163/61 73/152/61 76/158/61 83/170/61
f 83/170/62 76/158/62 72/151/62 80/167/62
f 43/101/63 71/148/63 77/159/63 46/110/63
f 46/110/64 77/159/64 73/152/64 44/104/64
f 78/161/65 51/120/65 53/123/65 81/168/65
f 81/168/66 53/123/66 50/117/66 79/163/66
f 57/129/2 85/174/2 71/149/2 43/102/2
f 73/153/3 79/164/3 40/94/3 39/90/3
f 50/118/9 44/105/9 42/99/9 41/97/9
f 44/106/10 73/154/10 39/91/10 42/100/10
f 28/66/2 36/81/2 3/11/2 22/56/2
f 26/63/2 21/53/2 1/4/2 35/76/2
f 35/76/2 36/81/2 13/36/2 11/31/2
f 11/31/2 26/63/2 35/76/2
f 36/81/2 28/66/2 13/36/2
f 36/82/2 35/77/2 1/5/2 3/12/2
