# Blender 3.3.1
# www.blender.org
mtllib floor_end.mtl
o floor_end
v 0.446636 1.120806 -0.000715
v -4.096085 -0.105451 0.004781
v 4.989776 -0.095199 -0.006215
v -3.391912 1.116641 10.700405
v -3.391912 1.116655 -10.689684
v 4.285184 1.124956 10.688254
v 4.285184 1.124971 -10.701839
v -1.536250 1.118653 8.841804
v -1.536250 1.118663 -8.836956
v 2.429523 1.122948 8.835527
v 2.429523 1.122959 -8.843236
v -5.338056 1.114532 12.649633
v -2.679800 -1.496670 0.004233
v -5.338056 1.114549 -12.632750
v 6.231328 1.127063 12.631323
v 3.573072 -1.489897 -0.005662
v 6.231328 1.127079 -12.651068
v -4.571359 0.361406 5.200178
v -3.479111 -0.711505 0.004334
v -4.571358 0.361417 -5.188065
v 5.465459 0.373092 5.194345
v 4.371587 -0.703784 -0.005763
v 5.465461 0.373103 -5.209360
v 6.013818 1.126843 -12.433213
v -5.120546 1.114768 12.431779
v -5.120546 1.114784 -12.415584
v 6.013818 1.126827 12.414156
vn 0.0007 -0.9793 -0.2025
vn 0.0014 -0.9793 0.2025
vn -0.0011 1.0000 -0.0000
vn -0.7008 -0.7134 -0.0000
vn 0.7016 -0.7126 -0.0000
vn 0.7015 -0.7126 -0.0000
vt 0.246468 0.500000
vt 0.907205 0.499797
vt 0.571686 0.500203
vt 0.388216 0.895166
vt 0.388216 0.105282
vt 0.104720 0.894718
vt 0.104720 0.104834
vt 0.319691 0.826533
vt 0.319691 0.173699
vt 0.173244 0.826302
vt 0.173244 0.173467
vt 0.460083 0.967147
vt 0.953019 0.032853
vt 0.854960 0.499817
vt 0.460083 0.033529
vt 0.953019 0.966471
vt 0.032853 0.966471
vt 0.525789 0.033529
vt 0.624057 0.500182
vt 0.032853 0.032853
vt 0.525789 0.967147
vt 0.924737 0.307943
vt 0.884446 0.499813
vt 0.924737 0.691556
vt 0.554101 0.308159
vt 0.594538 0.500186
vt 0.554101 0.692343
vt 0.040885 0.040898
vt 0.452051 0.959103
vt 0.452051 0.041549
vt 0.040885 0.958451
s 0
usemtl defaultMat.004
f 14/16/1 17/21/1 16/19/1 13/14/1
f 15/18/2 12/13/2 13/14/2 16/19/2
f 25/29/3 26/30/3 14/15/3 12/12/3
f 27/31/3 25/29/3 12/12/3 15/17/3
f 26/30/3 24/28/3 17/20/3 14/15/3
f 24/28/3 27/31/3 15/17/3 17/20/3
f 8/8/3 9/9/3 5/5/3 4/4/3
f 10/10/3 8/8/3 4/4/3 6/6/3
f 9/9/3 11/11/3 7/7/3 5/5/3
f 11/11/3 10/10/3 6/6/3 7/7/3
f 1/1/3 9/9/3 8/8/3
f 1/1/3 8/8/3 10/10/3
f 1/1/3 11/11/3 9/9/3
f 1/1/3 10/10/3 11/11/3
f 18/22/4 19/23/4 13/14/4 12/13/4
f 20/24/4 18/22/4 12/13/4 14/16/4
f 22/26/5 21/25/5 15/18/5 16/19/5
f 21/25/5 23/27/5 17/21/5 15/18/5
f 19/23/4 20/24/4 14/16/4 13/14/4
f 23/27/5 22/26/5 16/19/5 17/21/5
f 2/2/4 19/23/4 18/22/4
f 2/2/4 18/22/4 20/24/4
f 3/3/6 21/25/6 22/26/6
f 3/3/5 23/27/5 21/25/5
f 2/2/4 20/24/4 19/23/4
f 3/3/6 22/26/6 23/27/6
f 7/7/3 6/6/3 27/31/3 24/28/3
f 5/5/3 7/7/3 24/28/3 26/30/3
f 6/6/3 4/4/3 25/29/3 27/31/3
f 4/4/3 5/5/3 26/30/3 25/29/3
