# Blender 3.3.1
# www.blender.org
mtllib plate.mtl
o plate
v -0.051617 0.507838 0.750337
v -0.051617 0.684634 1.000000
v -0.076576 0.684634 0.750337
v -0.051617 0.531457 0.836815
v -0.064080 0.531457 0.750337
v -0.063553 0.554400 0.829927
v -0.064080 0.684634 0.956455
v -0.051617 0.596352 0.956455
v -0.063553 0.600088 0.914157
v -0.073242 0.596352 0.750337
v -0.073242 0.684634 0.836815
v -0.070003 0.600088 0.829927
v -0.051617 1.415873 1.000000
v -0.051617 1.592669 0.750337
v -0.076576 1.415873 0.750337
v -0.051617 1.504155 0.956455
v -0.064080 1.415873 0.956455
v -0.063553 1.500419 0.914157
v -0.064080 1.569050 0.750337
v -0.051617 1.569050 0.836815
v -0.063553 1.546107 0.829927
v -0.073242 1.415873 0.836815
v -0.073242 1.504155 0.750337
v -0.070003 1.500419 0.829927
v -0.051617 0.507838 -0.750337
v -0.076576 0.684634 -0.750337
v -0.051617 0.684634 -1.000000
v -0.064080 0.531457 -0.750337
v -0.051617 0.531457 -0.836815
v -0.063553 0.554400 -0.829927
v -0.073242 0.684634 -0.836815
v -0.073242 0.596352 -0.750337
v -0.070003 0.600088 -0.829927
v -0.051617 0.596352 -0.956455
v -0.064080 0.684634 -0.956455
v -0.063553 0.600088 -0.914157
v -0.051617 1.592669 -0.750337
v -0.051617 1.415873 -1.000000
v -0.076576 1.415873 -0.750337
v -0.051617 1.569050 -0.836815
v -0.064080 1.569050 -0.750337
v -0.063553 1.546107 -0.829927
v -0.064080 1.415873 -0.956455
v -0.051617 1.504155 -0.956455
v -0.063553 1.500419 -0.914157
v -0.073242 1.504155 -0.750337
v -0.073242 1.415873 -0.836815
v -0.070003 1.500419 -0.829927
v 0.051617 0.507838 0.750337
v 0.076576 0.684634 0.750337
v 0.051617 0.684634 1.000000
v 0.064080 0.531457 0.750337
v 0.051617 0.531457 0.836815
v 0.063553 0.554400 0.829927
v 0.073242 0.684634 0.836815
v 0.073242 0.596352 0.750337
v 0.070003 0.600088 0.829927
v 0.051617 0.596352 0.956455
v 0.064080 0.684634 0.956455
v 0.063553 0.600088 0.914157
v 0.051617 1.592669 0.750337
v 0.051617 1.415873 1.000000
v 0.076576 1.415873 0.750337
v 0.051617 1.569050 0.836815
v 0.064080 1.569050 0.750337
v 0.063553 1.546107 0.829927
v 0.064080 1.415873 0.956455
v 0.051617 1.504155 0.956455
v 0.063553 1.500419 0.914157
v 0.073242 1.504155 0.750337
v 0.073242 1.415873 0.836815
v 0.070003 1.500419 0.829927
v 0.051617 0.507838 -0.750337
v 0.051617 0.684634 -1.000000
v 0.076576 0.684634 -0.750337
v 0.051617 0.531457 -0.836815
v 0.064080 0.531457 -0.750337
v 0.063553 0.554400 -0.829927
v 0.064080 0.684634 -0.956455
v 0.051617 0.596352 -0.956455
v 0.063553 0.600088 -0.914157
v 0.073242 0.596352 -0.750337
v 0.073242 0.684634 -0.836815
v 0.070003 0.600088 -0.829927
v 0.051617 1.592669 -0.750337
v 0.076576 1.415873 -0.750337
v 0.051617 1.415873 -1.000000
v 0.064080 1.569050 -0.750337
v 0.051617 1.569050 -0.836815
v 0.063553 1.546107 -0.829927
v 0.073242 1.415873 -0.836815
v 0.073242 1.504155 -0.750337
v 0.070003 1.500419 -0.829927
v 0.051617 1.504155 -0.956455
v 0.064080 1.415873 -0.956455
v 0.063553 1.500419 -0.914157
v -0.052027 0.684634 0.750337
v -0.052027 0.684634 -0.750337
v -0.052027 1.415873 0.750337
v -0.052027 1.415873 -0.750337
vn -0.0000 -0.0000 1.0000
vn 1.0000 -0.0000 -0.0000
vn -0.0000 1.0000 -0.0000
vn -0.0000 -1.0000 -0.0000
vn -0.0000 -0.0000 -1.0000
vn -0.8861 -0.4455 0.1277
vn -0.8912 -0.3987 0.2163
vn -0.9547 -0.1348 0.2655
vn -0.9961 -0.0444 0.0763
vn -0.9984 -0.0396 0.0404
vn -0.9891 -0.1396 0.0468
vn -0.9873 -0.1394 0.0756
vn -0.9547 0.1348 0.2655
vn -0.8912 0.3987 0.2163
vn -0.8861 0.4455 0.1277
vn -0.9891 0.1396 0.0468
vn -0.9984 0.0396 0.0404
vn -0.9961 0.0444 0.0763
vn -0.9873 0.1394 0.0756
vn -0.8861 -0.4455 -0.1277
vn -0.9891 -0.1396 -0.0468
vn -0.9984 -0.0396 -0.0404
vn -0.9961 -0.0444 -0.0763
vn -0.9547 -0.1348 -0.2655
vn -0.8912 -0.3987 -0.2163
vn -0.9873 -0.1394 -0.0756
vn -0.8861 0.4455 -0.1277
vn -0.8912 0.3987 -0.2163
vn -0.9547 0.1348 -0.2655
vn -0.9961 0.0444 -0.0763
vn -0.9984 0.0396 -0.0404
vn -0.9891 0.1396 -0.0468
vn -0.9873 0.1394 -0.0756
vn 0.8861 -0.4455 0.1277
vn 0.9891 -0.1396 0.0468
vn 0.9984 -0.0396 0.0404
vn 0.9961 -0.0444 0.0763
vn 0.9547 -0.1348 0.2655
vn 0.8912 -0.3987 0.2163
vn 0.9873 -0.1394 0.0756
vn 0.8861 0.4455 0.1277
vn 0.8912 0.3987 0.2163
vn 0.9547 0.1348 0.2655
vn 0.9961 0.0444 0.0763
vn 0.9984 0.0396 0.0404
vn 0.9891 0.1396 0.0468
vn 0.9873 0.1394 0.0756
vn 0.8861 -0.4455 -0.1277
vn 0.8912 -0.3987 -0.2163
vn 0.9547 -0.1348 -0.2655
vn 0.9961 -0.0444 -0.0763
vn 0.9984 -0.0396 -0.0404
vn 0.9891 -0.1396 -0.0468
vn 0.9873 -0.1394 -0.0756
vn 0.8861 0.4455 -0.1277
vn 0.9891 0.1396 -0.0468
vn 0.9984 0.0396 -0.0404
vn 0.9961 0.0444 -0.0763
vn 0.9547 0.1348 -0.2655
vn 0.8912 0.3987 -0.2163
vn 0.9873 0.1394 -0.0756
vn -0.8844 -0.4667 -0.0000
vn -0.9902 -0.1398 -0.0000
vn -0.9993 -0.0377 -0.0000
vn -0.9614 -0.0000 0.2752
vn -0.9971 -0.0000 0.0764
vn -0.9993 -0.0000 0.0385
vn -0.8844 0.4667 -0.0000
vn -0.9902 0.1398 -0.0000
vn -0.9993 0.0377 -0.0000
vn -0.9614 -0.0000 -0.2752
vn -0.9971 -0.0000 -0.0764
vn -0.9993 -0.0000 -0.0385
vn -0.0000 -0.9647 -0.2635
vn -0.0000 -0.8790 -0.4768
vn -0.0000 -0.4424 -0.8968
vn -0.0000 0.9647 -0.2635
vn -0.0000 0.8790 -0.4768
vn -0.0000 0.4424 -0.8968
vn 0.9993 -0.0000 -0.0385
vn 0.9971 -0.0000 -0.0764
vn 0.9614 -0.0000 -0.2752
vn 0.8844 -0.4667 -0.0000
vn 0.9902 -0.1398 -0.0000
vn 0.9993 -0.0377 -0.0000
vn 0.8844 0.4667 -0.0000
vn 0.9902 0.1398 -0.0000
vn 0.9993 0.0377 -0.0000
vn 0.9614 -0.0000 0.2752
vn 0.9971 -0.0000 0.0764
vn 0.9993 -0.0000 0.0385
vn -0.0000 -0.9647 0.2635
vn -0.0000 -0.8790 0.4768
vn -0.0000 -0.4424 0.8968
vn -0.0000 0.9647 0.2635
vn -0.0000 0.8790 0.4768
vn -0.0000 0.4424 0.8968
vn -1.0000 -0.0000 -0.0000
vt 0.949315 0.652626
vt 0.386087 0.652626
vt 0.311932 0.410548
vt 0.521367 0.714229
vt 0.315985 0.964502
vt 0.966636 0.652626
vt 0.952214 0.681852
vt 0.311932 0.359838
vt 0.968303 0.680615
vt 0.388089 0.681852
vt 0.348944 0.410548
vt 0.994553 0.652626
vt 0.359838 0.652626
vt 0.362979 0.680615
vt 0.341349 0.382559
vt 0.987957 0.680615
vt 0.960178 0.703336
vt 0.311932 0.381322
vt 0.327461 0.410548
vt 0.326224 0.382559
vt 0.973910 0.695740
vt 0.620090 0.652626
vt 0.994553 0.056157
vt 0.688149 0.652626
vt 0.326879 0.964502
vt 0.311932 0.652626
vt 0.521367 0.948233
vt 0.650344 0.652626
vt 0.622093 0.681852
vt 0.348944 0.652626
vt 0.651094 0.680615
vt 0.680591 0.681852
vt 0.991655 0.026930
vt 0.311932 0.703336
vt 0.676614 0.652626
vt 0.326224 0.695740
vt 0.669588 0.680615
vt 0.627595 0.703336
vt 0.327461 0.652626
vt 0.311932 0.681852
vt 0.326224 0.680615
vt 0.654968 0.695740
vt 0.359838 0.056157
vt 0.699043 0.652626
vt 0.042459 0.410548
vt 0.315985 0.714229
vt 0.395340 0.714229
vt 0.427897 0.056157
vt 0.367397 0.026930
vt 0.701942 0.681852
vt 0.042459 0.359838
vt 0.371374 0.056157
vt 0.028167 0.367433
vt 0.378399 0.028167
vt 0.420392 0.005447
vt 0.026931 0.410548
vt 0.042459 0.381322
vt 0.028167 0.382559
vt 0.393019 0.013042
vt 0.397643 0.056157
vt 0.425894 0.026930
vt 0.005447 0.410548
vt 0.396893 0.028167
vt 0.744281 0.056157
vt 0.661901 0.056157
vt 0.326879 0.714229
vt 0.042459 0.652626
vt 0.395340 0.948233
vt 0.726960 0.056157
vt 0.741382 0.026930
vt 0.042459 0.703336
vt 0.725293 0.028167
vt 0.659898 0.026930
vt 0.005447 0.652626
vt 0.699043 0.056157
vt 0.688149 0.056157
vt 0.685008 0.028167
vt 0.013042 0.680615
vt 0.705639 0.028167
vt 0.733418 0.005447
vt 0.042459 0.681852
vt 0.026930 0.652626
vt 0.028167 0.680615
vt 0.719686 0.013042
vt 0.949315 0.410548
vt 0.042459 0.056157
vt 0.386087 0.410548
vt 0.952214 0.381322
vt 0.042459 0.005447
vt 0.966636 0.410548
vt 0.968303 0.382559
vt 0.026931 0.056157
vt 0.960178 0.359838
vt 0.042459 0.026930
vt 0.028167 0.028167
vt 0.973910 0.367433
vt 0.994553 0.410548
vt 0.359838 0.410548
vt 0.388089 0.381322
vt 0.005447 0.056157
vt 0.013042 0.028167
vt 0.362979 0.382559
vt 0.987957 0.382559
vt 0.994553 0.298235
vt 0.688149 0.410548
vt 0.620090 0.410548
vt 0.042459 0.298235
vt 0.676614 0.410548
vt 0.680591 0.381322
vt 0.991655 0.327461
vt 0.042459 0.348944
vt 0.028167 0.341349
vt 0.669588 0.382559
vt 0.622093 0.381322
vt 0.005447 0.298235
vt 0.650344 0.410548
vt 0.651094 0.382559
vt 0.042459 0.327461
vt 0.627595 0.359838
vt 0.026930 0.298235
vt 0.028167 0.326224
vt 0.654968 0.367433
vt 0.359838 0.298235
vt 0.699043 0.410548
vt 0.427897 0.298235
vt 0.311932 0.056157
vt 0.371374 0.298235
vt 0.367396 0.327461
vt 0.701942 0.381322
vt 0.311932 0.005447
vt 0.326224 0.013042
vt 0.378399 0.326224
vt 0.348944 0.056157
vt 0.425894 0.327461
vt 0.397643 0.298235
vt 0.396893 0.326224
vt 0.311932 0.026931
vt 0.420392 0.348944
vt 0.327461 0.056157
vt 0.326224 0.028167
vt 0.393019 0.341349
vt 0.744281 0.298235
vt 0.311932 0.298235
vt 0.661901 0.298235
vt 0.741382 0.327461
vt 0.311932 0.348944
vt 0.726960 0.298235
vt 0.725293 0.326224
vt 0.327461 0.298235
vt 0.733418 0.348944
vt 0.311932 0.327461
vt 0.326224 0.326224
vt 0.719686 0.341349
vt 0.699043 0.298235
vt 0.688149 0.298235
vt 0.348944 0.298235
vt 0.659898 0.327461
vt 0.341349 0.326224
vt 0.685008 0.326224
vt 0.705639 0.326224
vt 0.247525 0.983702
vt 0.463800 0.714229
vt 0.258419 0.964502
vt 0.247525 0.714229
vt 0.258419 0.714229
vt 0.452906 0.714229
vt 0.384446 0.964502
vt 0.005447 0.983702
vt 0.463800 0.948233
vt 0.384446 0.714229
vt 0.005447 0.714229
vt 0.452906 0.948233
s 0
f 51/87/1 62/106/1 13/22/1 2/2/1
f 75/126/2 86/143/2 63/107/2 50/86/2
f 85/142/3 37/64/3 14/23/3 61/104/3
f 15/25/4 39/66/4 100/170/4 99/167/4
f 27/48/5 38/65/5 87/144/5 74/125/5
f 1/1/6 4/6/6 6/9/6 5/7/6
f 4/6/7 8/12/7 9/16/7 6/9/7
f 2/2/8 7/10/8 9/14/8 8/13/8
f 7/11/9 11/19/9 12/20/9 9/15/9
f 3/3/10 10/18/10 12/20/10 11/19/10
f 10/17/11 5/7/11 6/9/11 12/21/11
f 6/9/12 9/16/12 12/21/12
f 13/22/13 16/28/13 18/31/13 17/29/13
f 16/28/14 20/35/14 21/37/14 18/31/14
f 14/24/15 19/32/15 21/37/15 20/35/15
f 19/34/16 23/40/16 24/41/16 21/36/16
f 15/26/17 22/39/17 24/41/17 23/40/17
f 22/38/18 17/29/18 18/31/18 24/42/18
f 18/31/19 21/37/19 24/42/19
f 25/43/20 28/49/20 30/54/20 29/52/20
f 28/51/21 32/57/21 33/58/21 30/53/21
f 26/45/22 31/56/22 33/58/22 32/57/22
f 31/55/23 35/61/23 36/63/23 33/59/23
f 27/48/24 34/60/24 36/63/24 35/61/24
f 34/60/25 29/52/25 30/54/25 36/63/25
f 30/54/26 33/59/26 36/63/26
f 37/64/27 40/69/27 42/72/27 41/70/27
f 40/69/28 44/75/28 45/79/28 42/72/28
f 38/65/29 43/73/29 45/77/29 44/76/29
f 43/74/30 47/82/30 48/83/30 45/78/30
f 39/67/31 46/81/31 48/83/31 47/82/31
f 46/80/32 41/70/32 42/72/32 48/84/32
f 42/72/33 45/79/33 48/84/33
f 49/85/34 52/88/34 54/91/34 53/90/34
f 52/88/35 56/93/35 57/96/35 54/91/35
f 50/86/36 55/92/36 57/95/36 56/94/36
f 55/92/37 59/100/37 60/101/37 57/95/37
f 51/87/38 58/98/38 60/102/38 59/99/38
f 58/97/39 53/90/39 54/91/39 60/103/39
f 54/91/40 57/96/40 60/103/40
f 61/105/41 64/108/41 66/113/41 65/109/41
f 64/108/42 68/116/42 69/117/42 66/113/42
f 62/106/43 67/114/43 69/117/43 68/116/43
f 67/114/44 71/119/44 72/122/44 69/117/44
f 63/107/45 70/118/45 72/121/45 71/120/45
f 70/118/46 65/111/46 66/112/46 72/121/46
f 66/113/47 69/117/47 72/122/47
f 73/123/48 76/127/48 78/132/48 77/128/48
f 76/127/49 80/135/49 81/136/49 78/132/49
f 74/125/50 79/134/50 81/136/50 80/135/50
f 79/134/51 83/138/51 84/141/51 81/136/51
f 75/126/52 82/137/52 84/140/52 83/139/52
f 82/137/53 77/130/53 78/131/53 84/140/53
f 78/132/54 81/136/54 84/141/54
f 85/142/55 88/145/55 90/148/55 89/147/55
f 88/145/56 92/150/56 93/153/56 90/148/56
f 86/143/57 91/149/57 93/152/57 92/151/57
f 91/149/58 95/156/58 96/158/58 93/152/58
f 87/144/59 94/155/59 96/159/59 95/157/59
f 94/154/60 89/147/60 90/148/60 96/160/60
f 90/148/61 93/153/61 96/160/61
f 25/44/62 1/1/62 5/7/62 28/50/62
f 28/51/63 5/8/63 10/18/63 32/57/63
f 32/57/64 10/18/64 3/3/64 26/45/64
f 2/2/65 13/22/65 17/29/65 7/10/65
f 7/11/66 17/30/66 22/39/66 11/19/66
f 11/19/67 22/39/67 15/26/67 3/3/67
f 14/23/68 37/64/68 41/70/68 19/33/68
f 19/34/69 41/71/69 46/81/69 23/40/69
f 23/40/70 46/81/70 39/67/70 15/26/70
f 38/65/71 27/48/71 35/61/71 43/73/71
f 43/74/72 35/62/72 31/56/72 47/82/72
f 47/82/73 31/56/73 26/45/73 39/67/73
f 73/123/74 25/43/74 29/52/74 76/127/74
f 76/127/75 29/52/75 34/60/75 80/135/75
f 80/135/76 34/60/76 27/48/76 74/125/76
f 37/64/77 85/142/77 89/147/77 40/69/77
f 40/69/78 89/147/78 94/154/78 44/75/78
f 44/76/79 94/155/79 87/144/79 38/65/79
f 86/143/80 75/126/80 83/139/80 91/149/80
f 91/149/81 83/139/81 79/133/81 95/156/81
f 95/157/82 79/134/82 74/125/82 87/144/82
f 49/85/83 73/124/83 77/129/83 52/88/83
f 52/89/84 77/130/84 82/137/84 56/94/84
f 56/94/85 82/137/85 75/126/85 50/86/85
f 85/142/86 61/104/86 65/110/86 88/145/86
f 88/146/87 65/111/87 70/118/87 92/151/87
f 92/151/88 70/118/88 63/107/88 86/143/88
f 62/106/89 51/87/89 59/99/89 67/114/89
f 67/115/90 59/100/90 55/92/90 71/120/90
f 71/120/91 55/92/91 50/86/91 63/107/91
f 1/1/92 49/85/92 53/90/92 4/6/92
f 4/6/93 53/90/93 58/97/93 8/12/93
f 8/13/94 58/98/94 51/87/94 2/2/94
f 61/105/95 14/24/95 20/35/95 64/108/95
f 64/108/96 20/35/96 16/28/96 68/116/96
f 68/116/97 16/28/97 13/22/97 62/106/97
f 25/44/4 73/124/4 49/85/4 1/1/4
f 97/161/98 99/168/98 100/171/98 98/164/98
f 3/4/5 15/27/5 99/169/5 97/162/5
f 26/46/3 3/5/3 97/163/3 98/165/3
f 39/68/1 26/47/1 98/166/1 100/172/1
