# Blender 3.3.1
# www.blender.org
mtllib bilboard.mtl
o bilboard
v -41.525799 5.314342 -27.834713
v -41.522945 5.328705 -27.834713
v -41.514812 5.340881 -27.834713
v -41.502632 5.349016 -27.834713
v -41.488270 5.351873 -27.834713
v -41.473911 5.349016 -27.834713
v -41.461735 5.340881 -27.834713
v -41.453598 5.328705 -27.834713
v -41.450741 5.314342 -27.834713
v -41.453598 5.299979 -27.834713
v -41.461735 5.287802 -27.834713
v -41.473911 5.279668 -27.834713
v -41.488270 5.276811 -27.834713
v -41.502632 5.279668 -27.834713
v -41.514812 5.287802 -27.834713
v -41.522945 5.299979 -27.834713
v -41.522945 5.328704 -27.297415
v -41.525799 5.314341 -27.297415
v -41.514812 5.340880 -27.297415
v -41.502632 5.349015 -27.297415
v -41.488270 5.351872 -27.297415
v -41.473911 5.349015 -27.297415
v -41.461735 5.340880 -27.297415
v -41.453598 5.328704 -27.297415
v -41.450741 5.314341 -27.297415
v -41.453598 5.299978 -27.297415
v -41.461735 5.287802 -27.297415
v -41.473911 5.279667 -27.297415
v -41.488270 5.276810 -27.297415
v -41.502632 5.279667 -27.297415
v -41.514812 5.287802 -27.297415
v -41.522945 5.299978 -27.297415
v -41.525799 4.596501 -27.834713
v -41.522945 4.610862 -27.834713
v -41.514812 4.623039 -27.834713
v -41.502632 4.631174 -27.834713
v -41.488270 4.634032 -27.834713
v -41.473911 4.631174 -27.834713
v -41.461735 4.623039 -27.834713
v -41.453598 4.610862 -27.834713
v -41.450741 4.596501 -27.834713
v -41.453598 4.582138 -27.834713
v -41.461735 4.569962 -27.834713
v -41.473911 4.561827 -27.834713
v -41.488270 4.558970 -27.834713
v -41.502632 4.561827 -27.834713
v -41.514812 4.569962 -27.834713
v -41.522945 4.582138 -27.834713
v -41.522945 4.610862 -27.297415
v -41.525799 4.596500 -27.297415
v -41.514812 4.623038 -27.297415
v -41.502632 4.631174 -27.297415
v -41.488270 4.634031 -27.297415
v -41.473911 4.631174 -27.297415
v -41.461735 4.623038 -27.297415
v -41.453598 4.610862 -27.297415
v -41.450741 4.596500 -27.297415
v -41.453598 4.582137 -27.297415
v -41.461735 4.569961 -27.297415
v -41.473911 4.561826 -27.297415
v -41.488270 4.558969 -27.297415
v -41.502632 4.561826 -27.297415
v -41.514812 4.569961 -27.297415
v -41.522945 4.582137 -27.297415
v -41.392700 4.297965 -27.888548
v -41.376511 4.396129 -27.888548
v -41.392700 4.396128 -27.772276
v -41.381248 4.326716 -27.888548
v -41.383354 4.339453 -27.821419
v -41.381248 4.396129 -27.806330
v -41.392700 4.326716 -27.806330
v -41.376511 5.426856 -27.888548
v -41.392700 5.525020 -27.888548
v -41.392700 5.426855 -27.772276
v -41.381248 5.496268 -27.888548
v -41.383354 5.483531 -27.821419
v -41.392700 5.496268 -27.806330
v -41.381248 5.426856 -27.806330
v -41.562656 4.297965 -27.888548
v -41.562656 4.396128 -27.772276
v -41.578842 4.396129 -27.888548
v -41.562656 4.326716 -27.806330
v -41.572002 4.339453 -27.821419
v -41.574104 4.396129 -27.806330
v -41.574104 4.326716 -27.888548
v -41.562656 5.525020 -27.888548
v -41.578842 5.426856 -27.888548
v -41.562656 5.426855 -27.772276
v -41.574104 5.496268 -27.888548
v -41.572002 5.483531 -27.821419
v -41.574104 5.426856 -27.806330
v -41.562656 5.496268 -27.806330
v -41.392700 4.297965 -29.109396
v -41.392700 4.396129 -29.225666
v -41.376511 4.396129 -29.109396
v -41.392700 4.326716 -29.191612
v -41.383354 4.339453 -29.176525
v -41.381248 4.396129 -29.191612
v -41.381248 4.326716 -29.109396
v -41.392700 5.525020 -29.109396
v -41.376511 5.426856 -29.109396
v -41.392700 5.426856 -29.225666
v -41.381248 5.496268 -29.109396
v -41.383354 5.483531 -29.176525
v -41.381248 5.426856 -29.191612
v -41.392700 5.496268 -29.191612
v -41.562656 4.297965 -29.109396
v -41.578842 4.396129 -29.109396
v -41.562656 4.396129 -29.225666
v -41.574104 4.326716 -29.109396
v -41.572002 4.339453 -29.176525
v -41.574104 4.396129 -29.191612
v -41.562656 4.326716 -29.191612
v -41.562656 5.525020 -29.109396
v -41.562656 5.426856 -29.225666
v -41.578842 5.426856 -29.109396
v -41.562656 5.496268 -29.191612
v -41.572002 5.483531 -29.176525
v -41.574104 5.426856 -29.191612
v -41.574104 5.496268 -29.109396
v -41.456211 4.396129 -27.888548
v -41.456211 5.426856 -27.888548
v -41.456211 5.426856 -29.109396
v -41.456211 4.396129 -29.109396
vn -0.5554 -0.8316 -0.0000
vn 0.8315 0.5556 -0.0000
vn -0.8316 -0.5554 -0.0000
vn 0.9808 0.1951 -0.0000
vn -0.9808 0.1949 -0.0000
vn -0.9808 -0.1949 -0.0000
vn 0.9808 -0.1951 -0.0000
vn -0.8316 0.5554 -0.0000
vn 0.8315 -0.5556 -0.0000
vn -0.5554 0.8316 -0.0000
vn 0.5555 -0.8315 -0.0000
vn -0.1951 0.9808 -0.0000
vn 0.1952 -0.9808 -0.0000
vn 0.1952 0.9808 -0.0000
vn -0.1951 -0.9808 -0.0000
vn 0.5555 0.8315 -0.0000
vn 0.9808 0.1952 -0.0000
vn 0.1951 -0.9808 -0.0000
vn -0.0000 -0.0000 1.0000
vn -0.0000 -0.0000 -1.0000
vn -0.0000 1.0000 -0.0000
vn -1.0000 -0.0000 -0.0000
vn 0.9045 -0.4075 0.1260
vn 0.9969 -0.0602 0.0508
vn 0.9237 -0.1524 0.3515
vn 0.9969 0.0602 0.0508
vn 0.9045 0.4075 0.1260
vn 0.9237 0.1524 0.3514
vn -0.9045 -0.4074 0.1259
vn -0.9238 -0.1523 0.3514
vn -0.9969 -0.0602 0.0508
vn -0.9045 0.4074 0.1259
vn -0.9969 0.0602 0.0508
vn -0.9237 0.1523 0.3514
vn 0.9044 -0.4076 -0.1260
vn 0.9237 -0.1523 -0.3515
vn 0.9969 -0.0602 -0.0508
vn 0.9044 0.4076 -0.1260
vn 0.9969 0.0602 -0.0508
vn 0.9237 0.1524 -0.3515
vn -0.9045 -0.4074 -0.1259
vn -0.9969 -0.0602 -0.0508
vn -0.9237 -0.1524 -0.3514
vn -0.9045 0.4074 -0.1259
vn -0.9237 0.1524 -0.3514
vn -0.9969 0.0602 -0.0508
vn -0.0000 -0.9439 0.3301
vn -0.0000 -0.4405 0.8978
vn 0.9983 -0.0000 0.0575
vn 0.9478 -0.0000 0.3187
vn -0.0000 0.9439 0.3301
vn -0.0000 0.4405 0.8978
vn -0.9983 -0.0000 0.0575
vn -0.9479 -0.0000 0.3186
vn -0.9291 -0.3699 -0.0000
vn -0.9977 -0.0681 -0.0000
vn -0.9291 0.3699 -0.0000
vn -0.9977 0.0681 -0.0000
vn -0.9479 -0.0000 -0.3187
vn -0.9983 -0.0000 -0.0575
vn -0.0000 -0.9439 -0.3301
vn -0.0000 -0.4405 -0.8978
vn -0.0000 0.9439 -0.3301
vn -0.0000 0.4405 -0.8978
vn 0.9983 -0.0000 -0.0575
vn 0.9478 -0.0000 -0.3188
vn 0.9290 -0.3700 -0.0000
vn 0.9977 -0.0681 -0.0000
vn 0.9290 0.3700 -0.0000
vn 0.9977 0.0681 -0.0000
vn -0.0000 -1.0000 -0.0000
vn 1.0000 -0.0000 -0.0000
vt 0.583840 0.669360
vt 0.587390 0.670520
vt 0.590950 0.671680
vt 0.594510 0.672830
vt 0.598070 0.673970
vt 0.601640 0.675110
vt 0.605200 0.676240
vt 0.608770 0.677370
vt 0.612340 0.678480
vt 0.615920 0.679600
vt 0.619490 0.680700
vt 0.623070 0.681800
vt 0.626650 0.682880
vt 0.573190 0.665820
vt 0.630230 0.683960
vt 0.576740 0.667010
vt 0.580290 0.668190
vt 0.628990 0.539690
vt 0.625410 0.538590
vt 0.632560 0.540800
vt 0.636130 0.541920
vt 0.639700 0.543040
vt 0.643270 0.544170
vt 0.646830 0.545310
vt 0.650390 0.546460
vt 0.653950 0.547610
vt 0.657510 0.548760
vt 0.661060 0.549920
vt 0.664620 0.551090
vt 0.668160 0.552270
vt 0.614670 0.535330
vt 0.671710 0.553460
vt 0.618250 0.536400
vt 0.621840 0.537490
vt 0.722410 0.571510
vt 0.718860 0.570350
vt 0.715300 0.569190
vt 0.711740 0.568040
vt 0.708180 0.566900
vt 0.704610 0.565760
vt 0.701050 0.564630
vt 0.697480 0.563500
vt 0.693910 0.562390
vt 0.690340 0.561270
vt 0.686760 0.560170
vt 0.683180 0.559070
vt 0.679600 0.557990
vt 0.733060 0.575050
vt 0.676020 0.556910
vt 0.729510 0.573860
vt 0.725960 0.572680
vt 0.677260 0.701180
vt 0.680840 0.702290
vt 0.673690 0.700070
vt 0.670120 0.698950
vt 0.666550 0.697830
vt 0.662980 0.696700
vt 0.659420 0.695560
vt 0.655860 0.694410
vt 0.652300 0.693260
vt 0.648740 0.692110
vt 0.645190 0.690950
vt 0.641630 0.689780
vt 0.638090 0.688600
vt 0.691580 0.705540
vt 0.634540 0.687410
vt 0.688000 0.704470
vt 0.684410 0.703380
vt 0.134350 0.946970
vt 0.951460 0.091110
vt 0.410260 0.564520
vt 0.152700 0.926720
vt 0.932020 0.074450
vt 0.819640 0.319350
vt 0.320260 0.968070
vt 0.434050 0.531200
vt 0.171380 0.950600
vt 0.138930 0.940520
vt 0.945260 0.086210
vt 0.153220 0.949510
vt 0.165890 0.943250
vt 0.153730 0.955090
vt 0.422970 0.547090
vt 0.366990 0.770070
vt 0.856210 0.273440
vt 0.017520 0.330410
vt 0.608820 0.279580
vt 0.388290 0.784540
vt 0.382760 0.796100
vt 0.583840 0.314670
vt 0.382130 0.779670
vt 0.383420 0.786870
vt 0.387910 0.789840
vt 0.595420 0.298180
vt 0.377390 0.788660
vt 0.030910 0.317940
vt 0.444670 0.591090
vt 0.469650 0.556010
vt 0.001950 0.290920
vt 0.032160 0.292250
vt 0.009890 0.309360
vt 0.458070 0.572480
vt 0.014310 0.305920
vt 0.011150 0.291310
vt 0.031310 0.310040
vt 0.643230 0.306150
vt 0.043850 0.003730
vt 0.042860 0.029400
vt 0.619440 0.339460
vt 0.012680 0.028210
vt 0.043560 0.011630
vt 0.026250 0.014300
vt 0.021850 0.028590
vt 0.022130 0.010500
vt 0.630520 0.323580
vt 0.760140 0.334930
vt 0.217040 0.809010
vt 0.682990 0.554110
vt 0.192590 0.844900
vt 0.759410 0.343150
vt 0.973580 0.108980
vt 0.738310 0.321510
vt 0.009840 0.998040
vt 0.761520 0.337350
vt 0.203110 0.827450
vt 0.756530 0.335430
vt 0.752380 0.337270
vt 0.753810 0.330310
vt 0.802350 0.034720
vt 0.591300 0.552140
vt 0.809550 0.314910
vt 0.574360 0.533000
vt 0.047490 0.640840
vt 0.823540 0.331460
vt 0.826100 0.001950
vt 0.600790 0.548310
vt 0.585670 0.546680
vt 0.592150 0.548140
vt 0.593310 0.543000
vt 0.595360 0.552460
vt 0.815350 0.017740
vt 0.342670 0.331760
vt 0.251130 0.835940
vt 0.343680 0.306090
vt 0.646280 0.530940
vt 0.373880 0.307270
vt 0.227380 0.868720
vt 0.342960 0.323850
vt 0.360290 0.321180
vt 0.364690 0.306890
vt 0.364410 0.324980
vt 0.238140 0.852920
vt 0.355600 0.017110
vt 0.836440 0.061660
vt 0.786820 0.308280
vt 0.384590 0.044110
vt 0.860890 0.025760
vt 0.354400 0.042770
vt 0.376650 0.025680
vt 0.850370 0.043210
vt 0.372230 0.029120
vt 0.375400 0.043720
vt 0.355210 0.025010
vt 0.052680 0.352780
vt 0.814450 0.315210
vt 0.318310 0.947800
vt 0.070130 0.615510
vt 0.851010 0.269300
vt 0.037780 0.328450
vt 0.793620 0.302220
vt 0.381310 0.594840
vt 0.067760 0.638880
vt 0.957650 0.096300
vt 0.363860 0.332120
vt 0.007880 0.977780
s 0
usemtl defaultMat.002
f 14/14/1 30/31/1 31/33/1 15/16/1
f 7/7/2 23/24/2 24/25/2 8/8/2
f 15/16/3 31/33/3 32/34/3 16/17/3
f 8/8/4 24/25/4 25/26/4 9/9/4
f 1/1/5 18/19/5 17/18/5 2/2/5
f 16/17/6 32/34/6 18/19/6 1/1/6
f 9/9/7 25/26/7 26/27/7 10/10/7
f 2/2/8 17/18/8 19/20/8 3/3/8
f 10/10/9 26/27/9 27/28/9 11/11/9
f 3/3/10 19/20/10 20/21/10 4/4/10
f 11/11/11 27/28/11 28/29/11 12/12/11
f 4/4/12 20/21/12 21/22/12 5/5/12
f 12/12/13 28/29/13 29/30/13 13/13/13
f 5/5/14 21/22/14 22/23/14 6/6/14
f 13/13/15 29/30/15 30/32/15 14/15/15
f 6/6/16 22/23/16 23/24/16 7/7/16
f 46/48/1 62/65/1 63/67/1 47/50/1
f 39/41/2 55/58/2 56/59/2 40/42/2
f 47/50/3 63/67/3 64/68/3 48/51/3
f 40/42/17 56/59/17 57/60/17 41/43/17
f 33/35/5 50/53/5 49/52/5 34/36/5
f 48/51/6 64/68/6 50/53/6 33/35/6
f 41/43/7 57/60/7 58/61/7 42/44/7
f 34/36/8 49/52/8 51/54/8 35/37/8
f 42/44/9 58/61/9 59/62/9 43/45/9
f 35/37/10 51/54/10 52/55/10 36/38/10
f 43/45/11 59/62/11 60/63/11 44/46/11
f 36/38/12 52/55/12 53/56/12 37/39/12
f 44/46/18 60/63/18 61/64/18 45/47/18
f 37/39/14 53/56/14 54/57/14 38/40/14
f 45/47/15 61/64/15 62/66/15 46/49/15
f 38/40/16 54/57/16 55/58/16 39/41/16
f 95/121/19 101/131/19 123/170/19 124/173/19
f 109/145/20 115/155/20 102/134/20 94/118/20
f 114/154/21 86/106/21 73/87/21 100/129/21
f 67/76/19 74/90/19 88/109/19 80/98/19
f 81/100/22 87/108/22 116/158/22 108/144/22
f 65/69/23 68/78/23 69/80/23 71/82/23
f 66/72/24 70/81/24 69/80/24 68/78/24
f 67/77/25 71/82/25 69/80/25 70/81/25
f 72/84/26 75/91/26 76/92/26 78/95/26
f 73/88/27 77/93/27 76/92/27 75/91/27
f 74/89/28 78/95/28 76/92/28 77/93/28
f 79/96/29 82/101/29 83/103/29 85/105/29
f 80/99/30 84/104/30 83/103/30 82/101/30
f 81/100/31 85/105/31 83/103/31 84/104/31
f 86/107/32 89/111/32 90/112/32 92/114/32
f 87/108/33 91/113/33 90/112/33 89/111/33
f 88/110/34 92/114/34 90/112/34 91/113/34
f 93/116/35 96/124/35 97/126/35 99/128/35
f 94/120/36 98/127/36 97/126/36 96/124/36
f 95/122/37 99/128/37 97/126/37 98/127/37
f 100/130/38 103/137/38 104/138/38 106/140/38
f 101/132/39 105/139/39 104/138/39 103/137/39
f 102/136/40 106/140/40 104/138/40 105/139/40
f 107/142/41 110/148/41 111/149/41 113/151/41
f 108/144/42 112/150/42 111/149/42 110/148/42
f 109/146/43 113/151/43 111/149/43 112/150/43
f 114/153/44 117/159/44 118/161/44 120/163/44
f 115/156/45 119/162/45 118/161/45 117/159/45
f 116/158/46 120/163/46 118/161/46 119/162/46
f 79/97/47 65/71/47 71/83/47 82/102/47
f 82/102/48 71/83/48 67/76/48 80/98/48
f 66/72/49 72/84/49 78/95/49 70/81/49
f 70/81/50 78/95/50 74/89/50 67/77/50
f 73/87/51 86/106/51 92/115/51 77/94/51
f 77/94/52 92/115/52 88/109/52 74/90/52
f 87/108/53 81/100/53 84/104/53 91/113/53
f 91/113/54 84/104/54 80/99/54 88/110/54
f 107/142/55 79/96/55 85/105/55 110/148/55
f 110/148/56 85/105/56 81/100/56 108/144/56
f 86/107/57 114/153/57 120/163/57 89/111/57
f 89/111/58 120/163/58 116/158/58 87/108/58
f 115/156/59 109/146/59 112/150/59 119/162/59
f 119/162/60 112/150/60 108/144/60 116/158/60
f 93/117/61 107/143/61 113/152/61 96/125/61
f 96/125/62 113/152/62 109/147/62 94/119/62
f 114/154/63 100/129/63 106/141/63 117/160/63
f 117/160/64 106/141/64 102/135/64 115/157/64
f 101/132/65 95/122/65 98/127/65 105/139/65
f 105/139/66 98/127/66 94/120/66 102/136/66
f 65/70/67 93/116/67 99/128/67 68/79/67
f 68/79/68 99/128/68 95/122/68 66/73/68
f 100/130/69 73/88/69 75/91/69 103/137/69
f 103/137/70 75/91/70 72/84/70 101/132/70
f 79/97/71 107/143/71 93/117/71 65/71/71
f 124/174/72 123/171/72 122/167/72 121/164/72
f 72/85/20 66/74/20 121/165/20 122/168/20
f 66/75/21 95/123/21 124/175/21 121/166/21
f 101/133/71 72/86/71 122/169/71 123/172/71
