# Blender 3.3.1
# www.blender.org
mtllib ladder.mtl
o ladder
v -40.240055 1.576826 -25.413288
v -40.240055 0.182591 -25.413288
v -38.562984 0.055843 -25.413288
v -38.562984 0.182591 -25.413288
v -38.685677 0.182591 -25.413288
v -38.685677 0.309340 -25.413288
v -38.808365 0.309340 -25.413288
v -38.808365 0.436089 -25.413288
v -38.931057 0.436089 -25.413288
v -38.931057 0.562837 -25.413288
v -39.053749 0.562837 -25.413288
v -39.053749 0.689586 -25.413288
v -39.176441 0.689586 -25.413288
v -39.176441 0.816334 -25.413288
v -39.299137 0.816334 -25.413288
v -39.299137 0.943083 -25.413288
v -39.421829 0.943083 -25.413288
v -39.421829 1.069832 -25.413288
v -39.544518 1.069832 -25.413288
v -39.544518 1.196580 -25.413288
v -39.667210 1.196580 -25.413288
v -39.667210 1.323329 -25.413288
v -39.789902 1.323329 -25.413288
v -39.789902 1.450078 -25.413288
v -39.912594 1.450078 -25.413288
v -39.912594 1.576826 -25.413288
v -40.240055 0.055843 -25.413288
v -40.240055 0.309340 -25.413288
v -40.240055 0.436088 -25.413288
v -40.240055 0.562837 -25.413288
v -40.240055 0.689586 -25.413288
v -40.240055 0.816334 -25.413288
v -40.240055 0.943083 -25.413288
v -40.240055 1.069832 -25.413288
v -40.240055 1.196580 -25.413288
v -40.240055 1.323329 -25.413288
v -40.240055 1.450077 -25.413288
v -39.912594 1.323329 -25.413288
v -39.912594 1.196580 -25.413288
v -39.789902 1.196580 -25.413288
v -39.912594 1.069832 -25.413288
v -39.789902 1.069832 -25.413288
v -39.667210 1.069832 -25.413288
v -39.912594 0.943083 -25.413288
v -39.789902 0.943083 -25.413288
v -39.667210 0.943083 -25.413288
v -39.544518 0.943083 -25.413288
v -39.912594 0.816334 -25.413288
v -39.789902 0.816334 -25.413288
v -39.667210 0.816334 -25.413288
v -39.544518 0.816334 -25.413288
v -39.421829 0.816334 -25.413288
v -39.912594 0.689586 -25.413288
v -39.789902 0.689586 -25.413288
v -39.667210 0.689586 -25.413288
v -39.544518 0.689586 -25.413288
v -39.421829 0.689586 -25.413288
v -39.299137 0.689586 -25.413288
v -39.912594 0.562837 -25.413288
v -39.789902 0.562837 -25.413288
v -39.667210 0.562837 -25.413288
v -39.544518 0.562837 -25.413288
v -39.421829 0.562837 -25.413288
v -39.299137 0.562837 -25.413288
v -39.176441 0.562837 -25.413288
v -39.912594 0.436089 -25.413288
v -39.789902 0.436089 -25.413288
v -39.667210 0.436089 -25.413288
v -39.544518 0.436089 -25.413288
v -39.421829 0.436089 -25.413288
v -39.299137 0.436089 -25.413288
v -39.176441 0.436089 -25.413288
v -39.053749 0.436089 -25.413288
v -39.912594 0.309340 -25.413288
v -39.789902 0.309340 -25.413288
v -39.667210 0.309340 -25.413288
v -39.544518 0.309340 -25.413288
v -39.421829 0.309340 -25.413288
v -39.299137 0.309340 -25.413288
v -39.176441 0.309340 -25.413288
v -39.053749 0.309340 -25.413288
v -38.931057 0.309340 -25.413288
v -38.808365 0.182591 -25.413288
v -38.931057 0.182591 -25.413288
v -39.053749 0.182591 -25.413288
v -39.176441 0.182591 -25.413288
v -39.299137 0.182591 -25.413288
v -39.421829 0.182591 -25.413288
v -39.544518 0.182591 -25.413288
v -39.667210 0.182591 -25.413288
v -39.789902 0.182591 -25.413288
v -39.912594 0.182591 -25.413288
v -39.912594 0.055843 -25.413288
v -39.789902 0.055843 -25.413288
v -39.667210 0.055843 -25.413288
v -39.544518 0.055843 -25.413288
v -39.421829 0.055843 -25.413288
v -39.299137 0.055843 -25.413288
v -39.176441 0.055843 -25.413288
v -39.053749 0.055843 -25.413288
v -38.931057 0.055843 -25.413288
v -38.808365 0.055843 -25.413288
v -38.685677 0.055843 -25.413288
v -40.240055 1.576827 -26.926195
v -40.240055 0.182591 -26.926195
v -38.562984 0.055843 -26.926195
v -38.562984 0.182591 -26.926195
v -38.685677 0.182591 -26.926195
v -38.685677 0.309340 -26.926195
v -38.808365 0.309340 -26.926195
v -38.808365 0.436089 -26.926195
v -38.931057 0.436089 -26.926195
v -38.931057 0.562837 -26.926195
v -39.053749 0.562837 -26.926195
v -39.053749 0.689586 -26.926195
v -39.176441 0.689586 -26.926195
v -39.176441 0.816334 -26.926195
v -39.299137 0.816334 -26.926195
v -39.299137 0.943083 -26.926195
v -39.421829 0.943083 -26.926195
v -39.421829 1.069832 -26.926195
v -39.544518 1.069832 -26.926195
v -39.544518 1.196580 -26.926195
v -39.667210 1.196580 -26.926195
v -39.667210 1.323330 -26.926195
v -39.789902 1.323330 -26.926195
v -39.789902 1.450078 -26.926195
v -39.912594 1.450078 -26.926195
v -39.912594 1.576827 -26.926195
v -40.240055 0.055843 -26.926195
v -40.240055 0.309340 -26.926195
v -40.240055 0.436088 -26.926195
v -40.240055 0.562837 -26.926195
v -40.240055 0.689586 -26.926195
v -40.240055 0.816334 -26.926195
v -40.240055 0.943083 -26.926195
v -40.240055 1.069832 -26.926195
v -40.240055 1.196580 -26.926195
v -40.240055 1.323330 -26.926195
v -40.240055 1.450077 -26.926195
v -39.912594 1.323330 -26.926195
v -39.912594 1.196580 -26.926195
v -39.789902 1.196580 -26.926195
v -39.912594 1.069832 -26.926195
v -39.789902 1.069832 -26.926195
v -39.667210 1.069832 -26.926195
v -39.912594 0.943083 -26.926195
v -39.789902 0.943083 -26.926195
v -39.667210 0.943083 -26.926195
v -39.544518 0.943083 -26.926195
v -39.912594 0.816334 -26.926195
v -39.789902 0.816334 -26.926195
v -39.667210 0.816334 -26.926195
v -39.544518 0.816334 -26.926195
v -39.421829 0.816334 -26.926195
v -39.912594 0.689586 -26.926195
v -39.789902 0.689586 -26.926195
v -39.667210 0.689586 -26.926195
v -39.544518 0.689586 -26.926195
v -39.421829 0.689586 -26.926195
v -39.299137 0.689586 -26.926195
v -39.912594 0.562837 -26.926195
v -39.789902 0.562837 -26.926195
v -39.667210 0.562837 -26.926195
v -39.544518 0.562837 -26.926195
v -39.421829 0.562837 -26.926195
v -39.299137 0.562837 -26.926195
v -39.176441 0.562837 -26.926195
v -39.912594 0.436089 -26.926195
v -39.789902 0.436089 -26.926195
v -39.667210 0.436089 -26.926195
v -39.544518 0.436089 -26.926195
v -39.421829 0.436089 -26.926195
v -39.299137 0.436089 -26.926195
v -39.176441 0.436089 -26.926195
v -39.053749 0.436089 -26.926195
v -39.912594 0.309340 -26.926195
v -39.789902 0.309340 -26.926195
v -39.667210 0.309340 -26.926195
v -39.544518 0.309340 -26.926195
v -39.421829 0.309340 -26.926195
v -39.299137 0.309340 -26.926195
v -39.176441 0.309340 -26.926195
v -39.053749 0.309340 -26.926195
v -38.931057 0.309340 -26.926195
v -38.808365 0.182591 -26.926195
v -38.931057 0.182591 -26.926195
v -39.053749 0.182591 -26.926195
v -39.176441 0.182591 -26.926195
v -39.299137 0.182591 -26.926195
v -39.421829 0.182591 -26.926195
v -39.544518 0.182591 -26.926195
v -39.667210 0.182591 -26.926195
v -39.789902 0.182591 -26.926195
v -39.912594 0.182591 -26.926195
v -39.912594 0.055843 -26.926195
v -39.789902 0.055843 -26.926195
v -39.667210 0.055843 -26.926195
v -39.544518 0.055843 -26.926195
v -39.421829 0.055843 -26.926195
v -39.299137 0.055843 -26.926195
v -39.176441 0.055843 -26.926195
v -39.053749 0.055843 -26.926195
v -38.931057 0.055843 -26.926195
v -38.808365 0.055843 -26.926195
v -38.685677 0.055843 -26.926195
vn -0.0000 -0.0000 1.0000
vn -0.0000 1.0000 -0.0000
vn 1.0000 -0.0000 -0.0000
vn -1.0000 -0.0000 -0.0000
vn -0.0000 -0.0000 -1.0000
vn -0.0000 -1.0000 -0.0000
vt 0.549600 0.711620
vt 0.461570 0.987150
vt 0.001950 0.383200
vt 0.353520 0.476260
vt 0.225940 0.788360
vt 0.545870 0.863790
vt 0.007310 0.451900
vt 0.613710 0.627120
vt 0.400620 0.951640
vt 0.541860 0.830960
vt 0.023870 0.424950
vt 0.827860 0.002150
vt 0.396850 0.919850
vt 0.053310 0.442020
vt 0.400620 0.917020
vt 0.795030 0.006160
vt 0.077560 0.419680
vt 0.856950 0.983880
vt 0.396850 0.885230
vt 0.102690 0.443240
vt 0.936730 0.404040
vt 0.858160 0.993800
vt 0.130190 0.424340
vt 0.799490 0.477630
vt 0.904940 0.407800
vt 0.152160 0.451010
vt 0.933210 0.002890
vt 0.766660 0.481640
vt 0.181710 0.434730
vt 0.856950 0.958940
vt 0.901420 0.006650
vt 0.201120 0.463240
vt 0.950140 0.920300
vt 0.858160 0.968860
vt 0.232200 0.449110
vt 0.545870 0.828070
vt 0.946380 0.888510
vt 0.249400 0.478800
vt 0.878620 0.398870
vt 0.541860 0.795240
vt 0.281720 0.466580
vt 0.856950 0.946470
vt 0.910410 0.395110
vt 0.296930 0.497050
vt 0.415030 0.916790
vt 0.858160 0.956390
vt 0.330330 0.486660
vt 0.856950 0.934000
vt 0.418790 0.948590
vt 0.343620 0.517680
vt 0.902120 0.404040
vt 0.858160 0.943920
vt 0.377980 0.509220
vt 0.545870 0.792350
vt 0.870330 0.407800
vt 0.389280 0.540650
vt 0.898590 0.002890
vt 0.541860 0.759520
vt 0.424450 0.534390
vt 0.053220 0.872650
vt 0.866800 0.006650
vt 0.433540 0.566140
vt 0.801770 0.868630
vt 0.086040 0.868650
vt 0.469290 0.562520
vt 0.856950 0.971410
vt 0.798010 0.836840
vt 0.475690 0.594480
vt 0.511550 0.594210
vt 0.867500 0.404040
vt 0.858160 0.981330
vt 0.840450 0.754090
vt 0.835710 0.407800
vt 0.514130 0.625930
vt 0.548470 0.628860
vt 0.454220 0.961530
vt 0.873280 0.750080
vt 0.385790 0.483820
vt 0.195040 0.799720
vt 0.759410 0.638860
vt 0.321350 0.468360
vt 0.256130 0.776680
vt 0.289250 0.460240
vt 0.285700 0.765140
vt 0.257200 0.451990
vt 0.314760 0.754060
vt 0.225180 0.443640
vt 0.343450 0.743750
vt 0.193190 0.435220
vt 0.371930 0.734440
vt 0.161230 0.426770
vt 0.400370 0.726390
vt 0.129290 0.418260
vt 0.428960 0.719830
vt 0.097380 0.409700
vt 0.457930 0.714970
vt 0.065500 0.401040
vt 0.487500 0.712020
vt 0.517960 0.711040
vt 0.033680 0.392240
vt 0.479960 0.626780
vt 0.446530 0.630140
vt 0.440770 0.598180
vt 0.413860 0.635610
vt 0.406930 0.604010
vt 0.398840 0.572370
vt 0.381910 0.642880
vt 0.374020 0.611620
vt 0.365200 0.580330
vt 0.355150 0.549010
vt 0.350580 0.651670
vt 0.341920 0.620720
vt 0.332520 0.589760
vt 0.322040 0.558820
vt 0.310250 0.527910
vt 0.319750 0.661700
vt 0.310490 0.631050
vt 0.300640 0.600430
vt 0.289860 0.569870
vt 0.277880 0.539390
vt 0.264460 0.509020
vt 0.289260 0.672700
vt 0.279570 0.642350
vt 0.269410 0.612090
vt 0.258460 0.581950
vt 0.246430 0.551960
vt 0.233020 0.522140
vt 0.218000 0.492550
vt 0.258960 0.684360
vt 0.248990 0.654340
vt 0.238670 0.624470
vt 0.227680 0.594820
vt 0.215730 0.565390
vt 0.202500 0.536240
vt 0.187700 0.507410
vt 0.171020 0.478960
vt 0.228670 0.696400
vt 0.218550 0.666700
vt 0.208190 0.637290
vt 0.197310 0.608180
vt 0.185580 0.579440
vt 0.172710 0.551100
vt 0.158360 0.523200
vt 0.142190 0.495840
vt 0.123790 0.469120
vt 0.076970 0.464450
vt 0.096980 0.488520
vt 0.114350 0.513670
vt 0.129670 0.539670
vt 0.143340 0.566400
vt 0.155710 0.593770
vt 0.167090 0.621730
vt 0.177780 0.650200
vt 0.188070 0.679140
vt 0.198230 0.708480
vt 0.167470 0.720260
vt 0.735950 0.617220
vt 0.157400 0.691320
vt 0.725550 0.611220
vt 0.147230 0.662860
vt 0.714500 0.606510
vt 0.136790 0.635030
vt 0.702970 0.603180
vt 0.125800 0.607950
vt 0.691110 0.601250
vt 0.114010 0.581710
vt 0.679120 0.600770
vt 0.101140 0.556380
vt 0.667150 0.601740
vt 0.086920 0.532060
vt 0.655390 0.604150
vt 0.071040 0.508930
vt 0.644000 0.607950
vt 0.053150 0.487310
vt 0.633150 0.613100
vt 0.032580 0.467860
vt 0.623010 0.619520
vt 0.550850 0.961530
vt 0.101060 0.003910
vt 0.725920 0.001950
vt 0.453170 0.095490
vt 0.486500 0.232860
vt 0.154040 0.911600
vt 0.651530 0.598600
vt 0.602880 0.761500
vt 0.008640 0.998040
vt 0.150030 0.878770
vt 0.683150 0.599230
vt 0.875670 0.393990
vt 0.004870 0.966250
vt 0.684690 0.565230
vt 0.008640 0.963430
vt 0.842840 0.397990
vt 0.716590 0.556890
vt 0.938220 0.973960
vt 0.004870 0.931640
vt 0.710340 0.523020
vt 0.983140 0.796020
vt 0.939430 0.983880
vt 0.741110 0.510090
vt 0.847300 0.869460
vt 0.951350 0.799790
vt 0.730530 0.477190
vt 0.979610 0.394870
vt 0.814470 0.873470
vt 0.760200 0.461120
vt 0.938220 0.949020
vt 0.947820 0.398630
vt 0.746690 0.429380
vt 0.558160 0.966700
vt 0.939430 0.958940
vt 0.775370 0.410860
vt 0.154040 0.875880
vt 0.554400 0.934910
vt 0.759680 0.380340
vt 0.832210 0.006870
vt 0.150030 0.843050
vt 0.787420 0.359750
vt 0.938220 0.936550
vt 0.864000 0.003100
vt 0.770000 0.330490
vt 0.807010 0.870390
vt 0.939430 0.946470
vt 0.796780 0.307990
vt 0.938220 0.924080
vt 0.810780 0.902180
vt 0.777860 0.280050
vt 0.948520 0.796020
vt 0.939430 0.934000
vt 0.803540 0.255710
vt 0.154040 0.840160
vt 0.916730 0.799790
vt 0.783190 0.229220
vt 0.945000 0.394870
vt 0.150030 0.807330
vt 0.807460 0.203010
vt 0.005400 0.480820
vt 0.913210 0.398630
vt 0.785650 0.178200
vt 0.409790 0.915040
vt 0.038230 0.476820
vt 0.808020 0.150080
vt 0.938220 0.961490
vt 0.406030 0.883240
vt 0.784580 0.127430
vt 0.913910 0.796020
vt 0.939430 0.971410
vt 0.804180 0.097400
vt 0.792640 0.362260
vt 0.882120 0.799790
vt 0.778880 0.078080
vt 0.543490 0.935910
vt 0.825460 0.358250
vt 0.794970 0.047600
vt 0.484910 0.104530
vt 0.460250 0.252730
vt 0.748590 0.773240
vt 0.421350 0.086690
vt 0.512640 0.213760
vt 0.389480 0.078030
vt 0.538330 0.195110
vt 0.357570 0.069470
vt 0.563340 0.176640
vt 0.325630 0.060970
vt 0.587530 0.158070
vt 0.293670 0.052510
vt 0.610740 0.139130
vt 0.261680 0.044100
vt 0.632880 0.119550
vt 0.229660 0.035750
vt 0.653850 0.099030
vt 0.197610 0.027490
vt 0.673580 0.077280
vt 0.165500 0.019370
vt 0.692050 0.053990
vt 0.133330 0.011470
vt 0.709320 0.028890
vt 0.759700 0.106390
vt 0.738820 0.132700
vt 0.762600 0.154820
vt 0.716560 0.157240
vt 0.739410 0.180140
vt 0.761670 0.204040
vt 0.693180 0.180200
vt 0.715230 0.203730
vt 0.736800 0.228050
vt 0.757720 0.253430
vt 0.668860 0.201820
vt 0.690230 0.225820
vt 0.711200 0.250460
vt 0.731580 0.275990
vt 0.751220 0.302620
vt 0.643760 0.222340
vt 0.664560 0.246690
vt 0.685000 0.271520
vt 0.704900 0.297100
vt 0.724070 0.323650
vt 0.742380 0.351350
vt 0.618040 0.242060
vt 0.638350 0.266600
vt 0.658320 0.291500
vt 0.677770 0.316990
vt 0.696510 0.343330
vt 0.714360 0.370720
vt 0.731140 0.399350
vt 0.591850 0.261250
vt 0.611740 0.285860
vt 0.631290 0.310680
vt 0.650310 0.335950
vt 0.668620 0.361900
vt 0.686000 0.388780
vt 0.702270 0.416810
vt 0.717200 0.446220
vt 0.565360 0.280240
vt 0.584890 0.304800
vt 0.604050 0.329410
vt 0.622650 0.354290
vt 0.640510 0.379680
vt 0.657410 0.405830
vt 0.673130 0.432970
vt 0.687420 0.461360
vt 0.699970 0.491280
vt 0.678600 0.533200
vt 0.669160 0.503360
vt 0.657380 0.475160
vt 0.643770 0.448220
vt 0.628670 0.422280
vt 0.612310 0.397080
vt 0.594940 0.372400
vt 0.576750 0.348020
vt 0.557960 0.323730
vt 0.538750 0.299330
vt 0.512220 0.318850
vt 0.721950 0.790850
vt 0.531140 0.342960
vt 0.710730 0.795100
vt 0.549590 0.366890
vt 0.699070 0.797980
vt 0.567370 0.390710
vt 0.687150 0.799420
vt 0.584220 0.414580
vt 0.675140 0.799430
vt 0.599940 0.438680
vt 0.663230 0.797980
vt 0.614300 0.463200
vt 0.651570 0.795100
vt 0.627080 0.488310
vt 0.640340 0.790850
vt 0.637970 0.514170
vt 0.629710 0.785270
vt 0.646490 0.540890
vt 0.619830 0.778450
vt 0.651750 0.568720
vt 0.610840 0.770490
s 0
usemtl defaultMat.007
f 25/74/1 26/75/1 1/1/1 37/99/1
f 23/68/1 24/69/1 25/74/1 38/101/1
f 26/76/2 129/252/2 104/178/2 1/2/2
f 25/72/3 128/249/3 129/253/3 26/77/3
f 24/70/2 127/246/2 128/250/2 25/73/2
f 23/66/3 126/243/3 127/247/3 24/71/3
f 22/63/2 125/240/2 126/244/2 23/67/2
f 21/60/3 124/237/3 125/241/3 22/64/3
f 20/57/2 123/234/2 124/238/2 21/61/2
f 19/54/3 122/231/3 123/235/3 20/58/3
f 18/51/2 121/228/2 122/232/2 19/55/2
f 17/48/3 120/225/3 121/229/3 18/52/3
f 16/45/2 119/222/2 120/226/2 17/49/2
f 15/42/3 118/219/3 119/223/3 16/46/3
f 14/39/2 117/216/2 118/220/2 15/43/2
f 13/36/3 116/213/3 117/217/3 14/40/3
f 12/33/2 115/210/2 116/214/2 13/37/2
f 11/30/3 114/207/3 115/211/3 12/34/3
f 10/27/2 113/204/2 114/208/2 11/31/2
f 9/24/3 112/201/3 113/205/3 10/28/3
f 8/21/2 111/198/2 112/202/2 9/25/2
f 7/18/3 110/195/3 111/199/3 8/22/3
f 6/15/2 109/192/2 110/196/2 7/19/2
f 5/12/3 108/189/3 109/193/3 6/16/3
f 4/9/2 107/186/2 108/190/2 5/13/2
f 3/6/3 106/183/3 107/187/3 4/10/3
f 139/274/4 36/97/4 37/100/4 140/276/4
f 3/7/1 4/11/1 5/14/1 103/176/1
f 5/14/1 6/17/1 7/20/1 83/146/1
f 7/20/1 8/23/1 9/26/1 82/145/1
f 9/26/1 10/29/1 11/32/1 73/136/1
f 11/32/1 12/35/1 13/38/1 65/128/1
f 13/38/1 14/41/1 15/44/1 58/121/1
f 15/44/1 16/47/1 17/50/1 52/115/1
f 17/50/1 18/53/1 19/56/1 47/110/1
f 19/56/1 20/59/1 21/62/1 43/106/1
f 21/62/1 22/65/1 23/68/1 40/103/1
f 130/255/4 27/78/4 2/4/4 105/181/4
f 105/181/4 2/4/4 28/81/4 131/258/4
f 131/258/4 28/81/4 29/83/4 132/260/4
f 132/260/4 29/83/4 30/85/4 133/262/4
f 133/262/4 30/85/4 31/87/4 134/264/4
f 134/264/4 31/87/4 32/89/4 135/266/4
f 135/266/4 32/89/4 33/91/4 136/268/4
f 136/268/4 33/91/4 34/93/4 137/270/4
f 137/270/4 34/93/4 35/95/4 138/272/4
f 138/272/4 35/95/4 36/97/4 139/274/4
f 38/101/1 25/74/1 37/99/1 36/98/1
f 39/102/1 38/101/1 36/98/1 35/96/1
f 40/103/1 23/68/1 38/101/1 39/102/1
f 42/105/1 40/103/1 39/102/1 41/104/1
f 41/104/1 39/102/1 35/96/1 34/94/1
f 43/106/1 21/62/1 40/103/1 42/105/1
f 46/109/1 43/106/1 42/105/1 45/108/1
f 45/108/1 42/105/1 41/104/1 44/107/1
f 44/107/1 41/104/1 34/94/1 33/92/1
f 47/110/1 19/56/1 43/106/1 46/109/1
f 51/114/1 47/110/1 46/109/1 50/113/1
f 50/113/1 46/109/1 45/108/1 49/112/1
f 49/112/1 45/108/1 44/107/1 48/111/1
f 48/111/1 44/107/1 33/92/1 32/90/1
f 52/115/1 17/50/1 47/110/1 51/114/1
f 57/120/1 52/115/1 51/114/1 56/119/1
f 56/119/1 51/114/1 50/113/1 55/118/1
f 55/118/1 50/113/1 49/112/1 54/117/1
f 54/117/1 49/112/1 48/111/1 53/116/1
f 53/116/1 48/111/1 32/90/1 31/88/1
f 58/121/1 15/44/1 52/115/1 57/120/1
f 64/127/1 58/121/1 57/120/1 63/126/1
f 63/126/1 57/120/1 56/119/1 62/125/1
f 62/125/1 56/119/1 55/118/1 61/124/1
f 61/124/1 55/118/1 54/117/1 60/123/1
f 60/123/1 54/117/1 53/116/1 59/122/1
f 59/122/1 53/116/1 31/88/1 30/86/1
f 65/128/1 13/38/1 58/121/1 64/127/1
f 72/135/1 65/128/1 64/127/1 71/134/1
f 71/134/1 64/127/1 63/126/1 70/133/1
f 70/133/1 63/126/1 62/125/1 69/132/1
f 69/132/1 62/125/1 61/124/1 68/131/1
f 68/131/1 61/124/1 60/123/1 67/130/1
f 67/130/1 60/123/1 59/122/1 66/129/1
f 66/129/1 59/122/1 30/86/1 29/84/1
f 73/136/1 11/32/1 65/128/1 72/135/1
f 81/144/1 73/136/1 72/135/1 80/143/1
f 80/143/1 72/135/1 71/134/1 79/142/1
f 79/142/1 71/134/1 70/133/1 78/141/1
f 78/141/1 70/133/1 69/132/1 77/140/1
f 77/140/1 69/132/1 68/131/1 76/139/1
f 76/139/1 68/131/1 67/130/1 75/138/1
f 75/138/1 67/130/1 66/129/1 74/137/1
f 74/137/1 66/129/1 29/84/1 28/82/1
f 82/145/1 9/26/1 73/136/1 81/144/1
f 84/147/1 82/145/1 81/144/1 85/148/1
f 85/148/1 81/144/1 80/143/1 86/149/1
f 86/149/1 80/143/1 79/142/1 87/150/1
f 87/150/1 79/142/1 78/141/1 88/151/1
f 88/151/1 78/141/1 77/140/1 89/152/1
f 89/152/1 77/140/1 76/139/1 90/153/1
f 90/153/1 76/139/1 75/138/1 91/154/1
f 91/154/1 75/138/1 74/137/1 92/155/1
f 92/155/1 74/137/1 28/82/1 2/5/1
f 83/146/1 7/20/1 82/145/1 84/147/1
f 94/158/1 91/154/1 92/155/1 93/156/1
f 95/160/1 90/153/1 91/154/1 94/158/1
f 96/162/1 89/152/1 90/153/1 95/160/1
f 97/164/1 88/151/1 89/152/1 96/162/1
f 98/166/1 87/150/1 88/151/1 97/164/1
f 99/168/1 86/149/1 87/150/1 98/166/1
f 100/170/1 85/148/1 86/149/1 99/168/1
f 101/172/1 84/147/1 85/148/1 100/170/1
f 102/174/1 83/146/1 84/147/1 101/172/1
f 103/176/1 5/14/1 83/146/1 102/174/1
f 93/156/1 92/155/1 2/5/1 27/79/1
f 140/276/4 37/100/4 1/3/4 104/179/4
f 128/251/5 140/277/5 104/180/5 129/254/5
f 126/245/5 141/278/5 128/251/5 127/248/5
f 106/184/5 206/353/5 108/191/5 107/188/5
f 108/191/5 186/323/5 110/197/5 109/194/5
f 110/197/5 185/322/5 112/203/5 111/200/5
f 112/203/5 176/313/5 114/209/5 113/206/5
f 114/209/5 168/305/5 116/215/5 115/212/5
f 116/215/5 161/298/5 118/221/5 117/218/5
f 118/221/5 155/292/5 120/227/5 119/224/5
f 120/227/5 150/287/5 122/233/5 121/230/5
f 122/233/5 146/283/5 124/239/5 123/236/5
f 124/239/5 143/280/5 126/245/5 125/242/5
f 141/278/5 139/275/5 140/277/5 128/251/5
f 142/279/5 138/273/5 139/275/5 141/278/5
f 143/280/5 142/279/5 141/278/5 126/245/5
f 145/282/5 144/281/5 142/279/5 143/280/5
f 144/281/5 137/271/5 138/273/5 142/279/5
f 146/283/5 145/282/5 143/280/5 124/239/5
f 149/286/5 148/285/5 145/282/5 146/283/5
f 148/285/5 147/284/5 144/281/5 145/282/5
f 147/284/5 136/269/5 137/271/5 144/281/5
f 150/287/5 149/286/5 146/283/5 122/233/5
f 154/291/5 153/290/5 149/286/5 150/287/5
f 153/290/5 152/289/5 148/285/5 149/286/5
f 152/289/5 151/288/5 147/284/5 148/285/5
f 151/288/5 135/267/5 136/269/5 147/284/5
f 155/292/5 154/291/5 150/287/5 120/227/5
f 160/297/5 159/296/5 154/291/5 155/292/5
f 159/296/5 158/295/5 153/290/5 154/291/5
f 158/295/5 157/294/5 152/289/5 153/290/5
f 157/294/5 156/293/5 151/288/5 152/289/5
f 156/293/5 134/265/5 135/267/5 151/288/5
f 161/298/5 160/297/5 155/292/5 118/221/5
f 167/304/5 166/303/5 160/297/5 161/298/5
f 166/303/5 165/302/5 159/296/5 160/297/5
f 165/302/5 164/301/5 158/295/5 159/296/5
f 164/301/5 163/300/5 157/294/5 158/295/5
f 163/300/5 162/299/5 156/293/5 157/294/5
f 162/299/5 133/263/5 134/265/5 156/293/5
f 168/305/5 167/304/5 161/298/5 116/215/5
f 175/312/5 174/311/5 167/304/5 168/305/5
f 174/311/5 173/310/5 166/303/5 167/304/5
f 173/310/5 172/309/5 165/302/5 166/303/5
f 172/309/5 171/308/5 164/301/5 165/302/5
f 171/308/5 170/307/5 163/300/5 164/301/5
f 170/307/5 169/306/5 162/299/5 163/300/5
f 169/306/5 132/261/5 133/263/5 162/299/5
f 176/313/5 175/312/5 168/305/5 114/209/5
f 184/321/5 183/320/5 175/312/5 176/313/5
f 183/320/5 182/319/5 174/311/5 175/312/5
f 182/319/5 181/318/5 173/310/5 174/311/5
f 181/318/5 180/317/5 172/309/5 173/310/5
f 180/317/5 179/316/5 171/308/5 172/309/5
f 179/316/5 178/315/5 170/307/5 171/308/5
f 178/315/5 177/314/5 169/306/5 170/307/5
f 177/314/5 131/259/5 132/261/5 169/306/5
f 185/322/5 184/321/5 176/313/5 112/203/5
f 187/324/5 188/325/5 184/321/5 185/322/5
f 188/325/5 189/326/5 183/320/5 184/321/5
f 189/326/5 190/327/5 182/319/5 183/320/5
f 190/327/5 191/328/5 181/318/5 182/319/5
f 191/328/5 192/329/5 180/317/5 181/318/5
f 192/329/5 193/330/5 179/316/5 180/317/5
f 193/330/5 194/331/5 178/315/5 179/316/5
f 194/331/5 195/332/5 177/314/5 178/315/5
f 195/332/5 105/182/5 131/259/5 177/314/5
f 186/323/5 187/324/5 185/322/5 110/197/5
f 197/335/5 196/333/5 195/332/5 194/331/5
f 198/337/5 197/335/5 194/331/5 193/330/5
f 199/339/5 198/337/5 193/330/5 192/329/5
f 200/341/5 199/339/5 192/329/5 191/328/5
f 201/343/5 200/341/5 191/328/5 190/327/5
f 202/345/5 201/343/5 190/327/5 189/326/5
f 203/347/5 202/345/5 189/326/5 188/325/5
f 204/349/5 203/347/5 188/325/5 187/324/5
f 205/351/5 204/349/5 187/324/5 186/323/5
f 206/353/5 205/351/5 186/323/5 108/191/5
f 196/333/5 130/256/5 105/182/5 195/332/5
f 103/177/6 206/354/6 106/185/6 3/8/6
f 102/175/6 205/352/6 206/354/6 103/177/6
f 101/173/6 204/350/6 205/352/6 102/175/6
f 100/171/6 203/348/6 204/350/6 101/173/6
f 99/169/6 202/346/6 203/348/6 100/171/6
f 98/167/6 201/344/6 202/346/6 99/169/6
f 97/165/6 200/342/6 201/344/6 98/167/6
f 96/163/6 199/340/6 200/342/6 97/165/6
f 95/161/6 198/338/6 199/340/6 96/163/6
f 94/159/6 197/336/6 198/338/6 95/161/6
f 93/157/6 196/334/6 197/336/6 94/159/6
f 27/80/6 130/257/6 196/334/6 93/157/6
